/* XPM */
static char *result[] = {
/* columns rows colors chars-per-pixel */
"64 64 255 2 ",
"   c #0C0D0B",
".  c #0A130A",
"X  c #0B1A0B",
"o  c #15140B",
"O  c #0C0A17",
"+  c #121518",
"@  c #240916",
"#  c #0A260B",
"$  c #0B320F",
"%  c #182918",
"&  c #153817",
"*  c #302C15",
"=  c #0D0A27",
"-  c #140C27",
";  c #181527",
":  c #0C0F30",
">  c #180C38",
",  c #1A1439",
"<  c #241229",
"1  c #231939",
"2  c #152F29",
"3  c #272828",
"4  c #243625",
"5  c #37332E",
"6  c #282636",
"7  c #393B38",
"8  c #412C27",
"9  c #134816",
"0  c #20481C",
"q  c #194B27",
"w  c #244626",
"e  c #2A552B",
"r  c #345336",
"t  c #166E31",
"y  c #2F6B34",
"u  c #39743A",
"i  c #695A1A",
"p  c #544E2C",
"a  c #655B32",
"s  c #437738",
"d  c #776C36",
"f  c #190C46",
"g  c #1C1449",
"h  c #251649",
"j  c #291153",
"k  c #261856",
"l  c #353049",
"z  c #372958",
"x  c #1E0862",
"c  c #280B68",
"v  c #300F6A",
"b  c #280D73",
"n  c #350D75",
"m  c #2E1478",
"M  c #381778",
"N  c #37236C",
"B  c #3B2678",
"V  c #44394E",
"C  c #453B55",
"Z  c #421670",
"A  c #45177B",
"S  c #482F73",
"D  c #62397C",
"F  c #3A5645",
"G  c #1A6742",
"H  c #377645",
"J  c #454648",
"K  c #50534F",
"L  c #4F704F",
"P  c #6E6A5E",
"I  c #574E6C",
"U  c #655475",
"Y  c #656469",
"T  c #717374",
"R  c #8B7E50",
"E  c #887B6D",
"W  c #298A39",
"Q  c #36873B",
"!  c #43863C",
"~  c #369147",
"^  c #38A94A",
"/  c #4E8F49",
"(  c #5E9E5F",
")  c #4FA750",
"_  c #58B458",
"`  c #65B15D",
"'  c #73946F",
"]  c #73B26D",
"[  c #60C25F",
"{  c #70CE6D",
"}  c #78C977",
"|  c #76E573",
" . c #928934",
".. c #A2912B",
"X. c #ABA133",
"o. c #CBBA3A",
"O. c #DCD03B",
"+. c #EBDB3E",
"@. c #959E62",
"#. c #8A8B74",
"$. c #C9BC4B",
"%. c #87C57A",
"&. c #8EF07B",
"*. c #EED948",
"=. c #F4E64F",
"-. c #E7D86E",
";. c #F6E96A",
":. c #391B83",
">. c #3C178B",
",. c #3C2589",
"<. c #3A2693",
"1. c #451B85",
"2. c #4D1C90",
"3. c #472789",
"4. c #532889",
"5. c #493689",
"6. c #583789",
"7. c #472A96",
"8. c #552C96",
"9. c #4B3599",
"0. c #573898",
"q. c #633693",
"w. c #633A9B",
"e. c #673998",
"r. c #4B2EA1",
"t. c #4C35A3",
"y. c #583BA7",
"u. c #663DA4",
"i. c #703EAC",
"p. c #544689",
"a. c #5B479A",
"s. c #69439B",
"d. c #6E5096",
"f. c #766E8C",
"g. c #5B44A9",
"h. c #5D47AF",
"j. c #6847A7",
"k. c #764AA9",
"l. c #6A53A9",
"z. c #785AAB",
"x. c #654BB6",
"c. c #754AB1",
"v. c #6B52B4",
"b. c #6B56B9",
"n. c #6A54BC",
"m. c #7A56B8",
"M. c #7B6AB0",
"N. c #654AC2",
"B. c #6B53C4",
"V. c #775CC7",
"C. c #7656D6",
"Z. c #7865C8",
"A. c #7269C8",
"S. c #7C67D7",
"D. c #7F69E2",
"F. c #807082",
"G. c #8552AF",
"H. c #8658B8",
"J. c #925DBE",
"K. c #8E6BB8",
"L. c #855DC5",
"P. c #855FD0",
"I. c #8866C7",
"U. c #8463CB",
"Y. c #9768C9",
"T. c #9774CC",
"R. c #886DD1",
"E. c #966CD3",
"W. c #8977D7",
"Q. c #9975D6",
"!. c #A56DD1",
"~. c #A774D7",
"^. c #AA70D3",
"/. c #8B6AE7",
"(. c #B07DE2",
"). c #8A8985",
"_. c #928D89",
"`. c #8A928C",
"'. c #97958B",
"]. c #979695",
"[. c #9C9A95",
"{. c #A29C98",
"}. c #93A691",
"|. c #A4A387",
" X c #A7A59D",
".X c #9697AE",
"XX c #A69EAE",
"oX c #A9A8A5",
"OX c #B2ADA6",
"+X c #B6B4AC",
"@X c #AEB2B1",
"#X c #B9B8B5",
"$X c #C3BEB7",
"%X c #8BC98C",
"&X c #8DF285",
"*X c #BAC6BC",
"=X c #DDDD9F",
"-X c #F2EB90",
";X c #D7D0AE",
":X c #C4C3BC",
">X c #CAC6BD",
",X c #C9C8BC",
"<X c #9A87D6",
"1X c #A883DC",
"2X c #AB95D9",
"3X c #B9B6C3",
"4X c #A988E5",
"5X c #AE91EC",
"6X c #B694EB",
"7X c #AA9CF1",
"8X c #C6BDC7",
"9X c #C7A1F3",
"0X c #CAC5C3",
"qX c #C8C8C7",
"wX c #CDCAC4",
"eX c #D1CEC7",
"rX c #CDD4C7",
"tX c #D5D2CC",
"yX c #DAD5CE",
"uX c #DADBCE",
"iX c #CDCED5",
"pX c #D2CED5",
"aX c #D9D7D7",
"sX c #DDDBD3",
"dX c #E3DDCF",
"fX c #E3DED4",
"gX c #E4DDDB",
"hX c #DFE1D7",
"jX c #E6E1D5",
"kX c #E8E1D5",
"lX c #E5E2DA",
"zX c #E9E4DA",
"xX c #E9EBDD",
"cX c #F6EAD2",
"vX c #DBD6E2",
"bX c #E4DDE5",
"nX c #DDE3E3",
"mX c #E4E3E4",
"MX c #E8E7E6",
"NX c #ECEBE4",
"BX c #EDECEB",
"VX c #F0E7EF",
"CX c #F1EDEC",
"ZX c #EBF3EB",
"AX c #F4F2ED",
"SX c #F7F9EB",
"DX c #ECEFF2",
"FX c #F4EDF4",
"GX c #F4F4F3",
"HX c #F9F6F3",
"JX c #F6F8F6",
"KX c #FBFBF5",
"LX c #FCF6FC",
"PX c #F6FCFA",
"IX c #FDFCFC",
/* pixels */
"jXjXfXkXkXlXfXgXfXtX*X*XKXIXLXMXT +XIXIXIXNXtXjXjXjXjXjXkXjXlXlXgXkXkXjXlXsXtXtXeXtXtXtXtXtXtXtXyXuXfXfXzXjXjXjXjXjXjXjXjXjXjXjX",
"jXjXfXzXkXjXgXwXyXzXMXJXKXIXDX*X# T NXLXIXHXeXsXjXdXjXjXlXjXjXkXzXfXkXfXtXeXzXNXSXHXHXAXHXAXAXAXBXmXsXsXzXjXjXjXjXjXjXjXjXjXjXjX",
"kXkXfXkXfXzXwX#XLXIXKXPXIXIXF r y r 5 vXLXIXtXsXjXjXjXjXlXjXjXlXjXfXgXwX XCXLXIXIXIXIXIXIXIXIXLXIXIXCXwXsXzXjXjXjXjXjXjXjXjXjXjX",
"kXkXzXfXfX,XwXAXJXIXBXnXmXrXw 9 t w   vXIXJXtXfXjXjXjXjXjXlXjXjXfXkXeX,XAXIXIXMXmXaXlXaXgXaXbXlXCXIXKXBXtXsXjXzXjXjXjXjXjXjXjXjX",
"kXjXkXkXuX XBXIXKXIX`.V 7 w L W W e . iXLXIXtXyXjXjXkXkXkXkXjXjXfX,X$XNXIXIXIX_.r 7 7 7 7 7 7 7  XJXIXIXNXeXyXjXjXjXjXjXjXjXjXjX",
"jXjXdXkX,X XKXKXZXnXT # $ 9 ) ^ ~ r   vXIXJXJXuXuXxXzXgXfXzXxXdX,X:XHXKXKXJXbXT $ 9 9 9 $ 9 $ # `.bXLXLXKXJXsXmXlXjXjXjXjXjXjXjX",
"jXjXdXkX>X XKXKX@X% w t ! ) &.&.} ( X vXLXIXIXZXrXfXfXfXkXfXfXeX$XNXIXLXJX.X% L ] { } %.%X%X( G 9 X aXIXKXKXnXaXhXjXjXdXjXjXjXjX",
"jXjXdXdX$X XIXIX@X. q t ) _ &.&.&.] e }.oXZXIXIXSXtXuXdXzXfX>X:XAXKXIXvX[.' / / ) Q L L L H ( ) ! e `.oXZXPXlXtXhXjXjXjXjXjXjXjX",
"kXkXdXkX$X XIXIX@XX q t _ { &.&.&.| / e 0 rXIXLXIXZXrXuXfXeX#XNXIXIXHX#Xo s } ^ Q $ X X X # L %X` / & 3 lXIXMXtXdXjXjXjXjXjXjXjX",
"jXkXkXdX$X{.IXIXmXoXL 9 ~ ) | | &.| { Q s ' [.KXLXIXZXrXrX0XHXLXIXNX[.' s / [ W r .X[.3 . X 0 L / ` 0 4 MXIXBXwXhXjXjXhXjXjXjXjX",
"jXjXkXdX,X#.CXLXIXKXT o e W { | &X&X&X_ s & % SXIXIXKXZXNXAXLXLXPXZX& e } { ] e 3 bXaX7 X . . . s %.w 3 bXIXBX0XhXjXjXhXjXjXjXjX",
"jXjXdXfXeX].{.MXIXHXSXcXL 9 t W [ { &X&X&X%.] J #.KXIXIXKXIXLXVXT p ] ] { Q 9 @XVXT L ' ] }.L . r ] 0 5 mXLXBX0XjXjXjXjXjXjXjXjX",
"jXjXkXdXfXeX{.{.LXIXKXFX`.F e y ( ] | | &.{ { 9 L hXNXBXmXmXLXMXr & } { _ y X [.yXp 9 ( ] @.L . y ' 9 * MXLXCX0XjXjXjXjXjXjXjXjX",
"jXjXdXjXkXgX0X_.{.zXKXLXZXZX4 # % q y ~ W _ ` ] ' 4 3 3 2 7 vXbXr & %.[ Q q   % 4 H u 9 $ % % . s %.w 4 mXIXBX0XhXjXjXjXjXjXjXjX",
"jXjXzXjXzXkXfX>X'.[.NXIXLXKXY J F F F e t / / / / $ % 4 4 7 @X:XK e } _ y F K 2 # s / e 2 o % w H ] w 4 MXLXZX,XjXdXdXkXjXjXjXjX",
"jXjXjXjXfXkXzXdX>X'.{.lXIXIXIXKXPX@XX     . . X & L ` %.] %.w w ] } [ u % `.PXT # u / ] ] # F %X( u $ 3 zXIXxX,XdXjXjXjXcXjXjXjX",
"jXjXjXjXzXjXfXjXfXeX{.].LXHXLXIXIXnX XoXXXXXXXXX}.q s / ) ` Q / _ _ y ' [.tXLX3X}.H u ) ) q ~ ( H 0 `.oXGXIXlXyXfXjXkXkXkXkXjXjX",
"jXjXzXjXjXlXlXlXfXfX>X_.{.#XeXCXIXIXIXIXIXHXKXJXnXO + . t ~ { { W t # T KXIXLXLXBXp & s ~ H G e q % rXPXIXIXsXfXjXjXdXkXkXkXjXjX",
"jXjXjXzXlXjXjXlXfXfXdXwX$X X).gXIXIXLXIXJX#.P Y f.T C + e ~ ^ ~ q 2 , z Y P Y qXJXqXoXr 4 & 2 % T *XZXPXPXBX0XsXjXjXdXkXkXkXjXjX",
"jXjXjXjXfXlXkXfXzXfXgXgXtX+X8XLXIXLXLXIXJXJ O = z .XU . r ) W u 2 f > f O O . OXLXLXpX7     . . `.LXPXPXvXoXtXzXdXjXjXkXzXjXjXjX",
"jXjXkXkXkXlXfXkXlXjXfXfX:XsXPXPXPXiXY Y Y f.l.N S H.C O w t 9 4 p.M.N S q.U I I U U F.wXuXrXsXaXnXIXKXzX:XtXfXfXjXdXdXkXkXjXjXjX",
"jXjXkXkXkXlXlXkXjXjXsX$XyXSXPXPXDX@X6 2 6 f.K.9.8.z.S - q e & 5 K.R.3.0.H.G.G.V < ; V iXZXKXPXIXPXPXNX+X>XlXfXgXzXkXkXkXkXjXjXjX",
"jXjXkXdXkXjXkXfXzXfX+XiXIXIXSXrX; l .X2X<Xp.5.5XW.c c g : : .X<X0.3.c.J.~.4X7X<Xz.s.C < l KXLXLXIXSXNX,XgXgXgXfXzXjXkXkXkXkXjXjX",
"jXjXfXkXkXkXkXlXsX:XaXJXKXKXqX.X: z M.A.S.b.x.4X<Xv ,.,.I S K.~.5.3.k.Y.1X6X6XI.0.0.S z J #X8X8XmXJXSXxXyXfXgXzXjXjXkXkXdXkXjXjX",
"jXjXkXkXkXjXlXfX0X0XKXIXLXIXl g g x B ,.5.T.5X4XT.c s.2X2X9X^.Y.M M H.1X9X2X^.u.>.<.:.q.I 3 % 3 ].PXPXIXVXtXsXfXjXjXkXkXdXkXkXjX",
"jXkXkXjXfXlXfXsXOXeXKXKXiX3X6 k a.g.l.<.M T.1X~.Y.n j.Q.6X9X(.!.:.S I.1X7X<XG.i.r.y.y.q.S   8 R '.#XZXIXLXZXyXfXzXjXjXkXkXkXjXjX",
"kXfXfXlXgXsXeXyX:XMXKXZXL O , p.7X9X7Xa.v z.T.Y.J.v 0.I.~.4X~.R.9.5.2X4X1Xk.M w.H.E.K.Z < @ E cX#.o pXLXLXIXhXtXzXlXjXjXkXkXjXjX",
"kXlXkXlXgX+XaXKXKXIXKXSXI = f.M.1X1X4Xl.M I.T.g.u.y.m.R.V.u.~.4XW.W.l.l.L.m.j.I.^.^.J.h 3  .$.-.$.@.#._.AXKXjXuXlXjXjXjXkXdXjXjX",
"jXjXlXsX0X0XIXIXJXGXNXmXT f <X<XR.T.~.l.5.T.<X<.8.U.L.V.0.1.4X5X7X4X3.6.c.m.U.~.4X!.G.z * o.+.=.=.-Xa 5 zXKXjXyXjXjXjXjXkXkXdXjX",
"jXjXfX#XyXGXIXIXqXY Y U f.M.<XZ.8.e.H.T.R.j.9.g.x.V.c.y.w.u.s.k.R.T.G.k.8.c.Y.!.~.e.q.6.K i ..*...a OXqXZXKXlXuXjXjXjXcXkXkXjXjX",
"jXfX#XpXGXPXPXJX#XX o ; M.2XS.B.M 4.m.Q.4X9.,.A.b.B.g.3.w.H.5.4.z.I.T.c.A j.Y.~.Y.8.6.k.D < d -.d o tXPXPXKXsXyXjXjXjXjXjXjXjXjX",
"fX$XtXKXKXPXiXK P ;XK O z B A.Z.x.y.M 2.7.x.A.4X<X,.j.m.~.6XI.m.3.3.L.U.L.j.3.1.3.e.k.G.G.j 3 * %   tXKXIXIXaXuXlXhXjXjXjXjXjXjX",
"dXOXFXLXHXeXOXp  .-XR p 6 j j.v.m.j.3.3.9.A.S.W.E.1.G.Y.Q.~.m.k.M M m.R.E.G.4.4.4.j.j.j.k.1.V 6 1 1 @XpXPXLXmXyXgXjXjXjXjXjXjXjX",
"yX XGXLXyX* i O.*.*.;.=Xp O c 7.S.C.V.Z.b.7X7X,.8.!.!.!.s.Z c c v ,.L.I.!.!.^.E.H.3.M n 2.E.T.K.G.6.k l nXIXMXrXjXhXjXjXjXjXjXjX",
"yX{.GXKXgXE R X.o.*.$.@.K C c 7.V.V.V.U.R.2X7XS 6.(.^.^.H.0.n n 3.8.I.Y.!.^.(.H.c.w.8.8.y.E.Y.k.u.3.h 6 MXIXNXrXhXjXjXdXlXjXjXjX",
"yX'.NXLXLXFX8X8 i *.i * d.Y.n 2.H.m.M.Y.T.5X6X3.0.6X4X4XQ.I.n M j.H.Q.~.!.!.!.i.4.H.Z.Z.L.H.u.A :.c - 3 lXIXBX0XjXjXjXhXjXjXjXjX",
"fXOX|.VXKXPXmX[.@. .i z m.Y.>.4.m.k.s.G.J.~.1Xj.k.m.R.W.!.Y.8.w.m.J.k.k.i.G.i.i.c.Q.Q.P.m.s.q.0.M x - 3 jXKXBX0XhXjXjXjXjXjXjXjX",
"zX>X_.'.lXLXKXKX+Xo D d.Y.E.2.4.k.0.A e.k.Y.Y.T.m.M 0.I.L.P.L.U.T.Y.4.A v n Z k.E.4X(.S.v.M 6.b.7.j - 3 MXIXBX0XhXjXjXjXjXjXjXjX",
"fXfX0X{.{.FXIXKX#XO S c.i.i.c.j.D q.k.s.8.m.m.I.m.c 8.m.L.Y.Y.Y.j.w.e.s.a.3.v e.E.E.L.8.8.g.v.U.i.S > 6 MXIXZX0XdXjXjXjXjXjXjXjX",
"kXkXfX>X_.@XIXIX3XO S e.q.2.P.G.D e.Y.e.1.j.m.P.V.m 8.v.J.!.!.^.8.4.k.c.k.8.v j.P.P.n.1.N l.V./.N.9.g 3 lXKXBX0XjXjXjXjXjXjXjXjX",
"kXkXdXdX X+XIXIX3XO j A G.G.8.e.G.L.!.L.H.8.3.R.R.x.0.A k.!.(.(.J.l.3.0.m.6.M u.V.V.v.B m b.Z.C.x.a.g 6 mXIXNX>XjXdXjXjXjXjXjXjX",
"kXkXkXfX+X+XIXIX#XO h Z G.Y.A e.Y.!.~.Q.Y.3.>.E.R.m.y.n G.^.(.(.Y.m.3.4.k.6.A a.v.V.b.M b C.C.C.h.p.g 6 MXIXNXwXjXhXdXjXjXjXjXjX",
"jXjXkXdX+X XIXIX8XO C d.H.I.A 2.G.H.J.Y.Y.2.A E.E.U.y.n i.^.Y.G.4.3.c n M 0.v.9.3.v.v.7.>.h.x.n.y.9.h 6 nXIXNX,XjXdXjXdXkXkXjXjX",
"jXjXzXjX*XoXPXIXpXY U p.G.J.q.q.s.k.k.k.H.q.q.E.T.L.0.n k.!.G.i.7.7.3.1.n 9.B.t.,.j.v.t.r.y.y.g.5.z Y f.BXIXlXtXdXxXjXcXkXkXjXjX",
"jXjXfXfX>X_.IXPXIXLXf.< d.^.!.J.n v c n 1.Y.!.Y.Y.c.w.M c.E.A 1.v.V.R.B.:.t.B.r.m a.b.Z.N.<.,.,.k = iXKXKXHXsXlXdXjXkXkXkXkXkXjX",
"jXjXjXfXwX#.*XGXIXIXT < f.J.^.J.4.A c 4.e.J.!.J.G.e.w.0.u.c.0.9.b.Z.R.V.8.t.t.,.k N 5.v.N.9.,.B h + tXKXIXAXeXfXjXdXkXkXkXkXjXkX",
"jXjXkXjXsX+X).rXLXLXT - D G.Y.Y.G.q.v m.J.J.J.G.k.4.u.U.u.:.x.b.Z.W.R.U.b.t.:.x g : , a.x.n.<.x :   eXIXLX+XrXjXjXjXdXkXkXjXjXjX",
"jXjXjXfXjXaXoX0XLXLX8X$XU V H.L.P.b.a.s.s.q.q.q.e.c.L.U.y.M x.V.Z.S.A.B.8.9.9.k , '.].C N 9.B f f.#XAXJXFX#XsXdXxXjXkXjXkXkXjXjX",
"jXjXfXkXzXdX$XoXLXLXIXHXY = l.V./.D.A.,.B b b b 8.Q.E.P.9.c b.Z.V.V.n.g.1.8.8.6 * ;X=X5 ; N h - _.JXIXIXbXwXfXjXjXkXjXjXjXjXjXjX",
"jXjXdXkXzXfXeX_.#XFXIXJXY = p.b.D.D.S.B.b.g.g.b ,.U.P.Z.y.b x.n.9.<.7.9.a.S 1 E =X=X-X;X|.< - O `.LXKXMX0XyXkXkXjXjXjXjXjXjXkXjX",
"jXjXkXkXfXgXgX+XE qXIXHXT 6 I l.S.S.D.S.A.n.h.b ,.V.V.V.g.,.h.h.>.,.B ,.a.V * @.-X-.-X-X=X5 o o ].JXIX$X,XjXkXjXjXjXjXjXjXjXjXjX",
"jXjXkXkXfXfXgXyXOX3XKXLXDXnXl z a.N.S.D.C.<.<.c c ,.g.Z.B.n.<.7.g.x.g.5.3 d o.+.=.;.;.-X-X;X#.  `.LXJXeXdXkXjXjXjXjXjXjXjXjXjXjX",
"jXjXkXgXkXkXkXsX#X XAXIXIXIXI I I h.A.A.b.7.,.b b b t.Z.V.V.,.<.h.x.h.5.= d -.+.*.=.;.=.;.cX@.r @XLXJXwXsXjXjXjXjXjXjXjXjXjXjXjX",
"jXjXkXkXkXkXlXjXwX'. XmXPXIXPXqX: f g x c h.A.V.n.b 9.b.Z.W.V.B.<.:.m b b g @ ..*.+.=.=.o.o `.KXIXIXAXeXdXjXjXjXjXjXjXjXjXjXjXjX",
"jXjXkXkXkXfXkXjXjX:X'.'.DXLXPXnX`.Y : > g a.v.B.N.<.r.y.n.Z.B.C.t.r.9.<.B c j a ..O.+... ._.0XIXLXPXaXrXdXjXjXjXjXjXjXjXjXkXjXjX",
"jXjXjXgXgXzXkXjXjXdX0X`.].DXPXPXKX#X+ O : 5.h.B.N.N.9.m g.V.B.B.N.N.B.y.t.<.>.> * o.O.* C JXLXIXPX3X#XsXjXjXjXjXjXjXjXjXjXjXjXjX",
"jXjXkXkXkXjXjXjXjXjXdX,X'.oXZXKXIXMXoXXXXXI z B 5.y.r.7.7.t.9.t.h.y.g.r.N k g = * o.o.* J HXIXLXaX#XuXlXzXjXjXjXjXjXkXjXjXjXjXjX",
"jXjXjXjXjXjXjXjXjXjXdXjX:X'.'.xXJXKXPXLXPXK + > h p.9.3.B x x c 9.t.a.B h + + + * $.$.* V KXJXnX+XtXxXdXdXjXjXjXkXjXdXjXkXjXjXjX",
"jXjXjXjXjXjXjXjXjXjXdXhXuXsX'.+XGXJXKXIXJXBXGXDXiX, f , = = ; ; , 6 ; f.VXZXZXDXkXd a ,XJXIXJXyXrXjXjXhXjXjXjXjXjXjXjXjXjXjXjXjX",
"jXjXjXjXjXjXjXjXjXjXjXjXjXsX,X[.[.[.#XIXJXKXKXKXmXV l V 7 F l J J J l `.IXPXPXPXAXP P nXPXIXKX0XsXlXjXjXjXjXjXjXjXjXjXjXjXjXjXjX",
"jXjXjXjXjXjXkXjXkXkXkXfXjXlXfXtX:XOX`.#XgXCXKXIXKXmXlXbXmXmXmXmXmXmXmXDXIXLXIXIXIXMXMXPXKXAXwX,XsXjXlXjXkXjXjXjXkXdXjXjXjXjXjXjX",
"jXjXjXjXjXjXjXjXkXkXkXzXlXjXjXlXhXuX$X X).).#XKXIXKXIXIXIXLXIXIXIXIXIXLXLXBXoXGXIXIXLXKXSX:X+XjXlXlXlXjXkXjXjXjXkXjXjXjXjXjXkXjX",
"jXjXjXjXjXjXjXjXkXkXgXkXkXkXjXjXfXjXfXyX0XoX_.8XyXmXzXgXbXMXMXmXmXmXbXbXpX+X).@XrXpXpXyX,X,XsXdXfXlXkXkXkXkXjXjXjXjXjXjXjXjXjXjX",
"jXjXjXjXjXjXjXjXjXjXfXzXgXkXfXlXjXjXfXzXfXfX$X{.[.'.].[.[.[.].[.].[.{. X@X,X$XOXoX|. X+X0XhXzXfXkXkXgXkXzXkXjXjXjXjXjXjXjXjXjXjX"
};
