/* XPM */
static char *_57968d950a14ba0b2006dfc535144c8qazJNzw6eUSznjIU[] = {
/* columns rows colors chars-per-pixel */
"32 32 220 2 ",
"   c gray18",
".  c #44391D",
"X  c #346D14",
"o  c #3B751C",
"O  c #3D7A1E",
"+  c #367219",
"@  c #274E23",
"#  c #30532B",
"$  c #366429",
"%  c #3A7722",
"&  c #3D7B23",
"*  c #3E7A2C",
"=  c #37742F",
"-  c #376938",
";  c #42791E",
":  c #416F2E",
">  c #437D24",
",  c #497D24",
"<  c #437D29",
"1  c #467929",
"2  c #446A39",
"3  c #4D7E31",
"4  c #49733B",
"5  c #477B35",
"6  c #505535",
"7  c #372D58",
"8  c #383153",
"9  c #3D3269",
"0  c #453D48",
"q  c #463866",
"w  c #442F73",
"e  c #503771",
"r  c #344945",
"t  c #484745",
"y  c #465757",
"u  c #4C4F53",
"i  c #675C5A",
"p  c #466946",
"a  c #4B7543",
"s  c #4D764A",
"d  c #537A4C",
"f  c #57615F",
"g  c #536954",
"h  c #73735C",
"j  c #474569",
"k  c #56596A",
"l  c #584B7A",
"z  c #595779",
"x  c #544270",
"c  c #635271",
"v  c #5A6B66",
"b  c #5E7660",
"n  c #6A6B6B",
"m  c #756160",
"M  c #637A65",
"N  c #686378",
"B  c #877E75",
"V  c #458225",
"C  c #4A8326",
"Z  c #45832B",
"A  c #4B842B",
"S  c #4C892D",
"D  c #518629",
"F  c #528C2D",
"G  c #4C8532",
"H  c #4D8B33",
"J  c #4E823D",
"K  c #4F8D39",
"L  c #478031",
"P  c #538333",
"I  c #538C33",
"U  c #588E35",
"Y  c #54843B",
"T  c #548C3A",
"R  c #5C8D3B",
"E  c #59853A",
"W  c #549135",
"Q  c #5A9435",
"!  c #55933A",
"~  c #5B943C",
"^  c #5A993B",
"/  c #62963D",
"(  c #61993D",
")  c #4E8545",
"_  c #528341",
"`  c #5B8443",
"'  c #5D8D43",
"]  c #578849",
"[  c #5C9441",
"{  c #5D9A42",
"}  c #5E944C",
"|  c #549547",
" . c #588356",
".. c #5C9352",
"X. c #5F9758",
"o. c #648A46",
"O. c #639C43",
"+. c #62964A",
"@. c #679749",
"#. c #72924F",
"$. c #658A55",
"%. c #649951",
"&. c #6B955B",
"*. c #6C9B5B",
"=. c #679856",
"-. c #759659",
";. c #769C58",
":. c #5EA046",
">. c #6AA447",
",. c #67A548",
"<. c #78B25A",
"1. c #73AB5B",
"2. c #688868",
"3. c #6B9763",
"4. c #759D64",
"5. c #7B9A66",
"6. c #759664",
"7. c #6F9271",
"8. c #7A9870",
"9. c #768D70",
"0. c #75A163",
"q. c #7CA263",
"w. c #79A965",
"e. c #77B466",
"r. c #878E56",
"t. c #81B05F",
"y. c #948B66",
"u. c #95966D",
"i. c #809471",
"p. c #969278",
"a. c #879E68",
"s. c #84AB6A",
"d. c #8CAB72",
"f. c #89AB78",
"g. c #96A676",
"h. c #8BB276",
"j. c #492F8C",
"k. c #472984",
"l. c #583B8B",
"z. c #4C3897",
"x. c #55359B",
"c. c #5C3B9D",
"v. c #583797",
"b. c #4C2D8B",
"n. c #603E8A",
"m. c #613B99",
"M. c #593CA2",
"N. c #603DA1",
"B. c #4C4080",
"V. c #564587",
"C. c #574295",
"Z. c #5D5095",
"A. c #64468C",
"S. c #6A598F",
"D. c #6B4794",
"F. c #634A9B",
"G. c #685A94",
"H. c #785D94",
"J. c #5E6182",
"K. c #696689",
"L. c #5D48A9",
"P. c #6A44A4",
"I. c #664BA3",
"U. c #6B4AAA",
"Y. c #6847A8",
"T. c #754DAD",
"R. c #714AA5",
"E. c #6D51AE",
"W. c #7452AD",
"Q. c #765AA9",
"!. c #6B51B3",
"~. c #7452B0",
"^. c #7A54B3",
"/. c #7B5BBC",
"(. c #7857B8",
"). c #6F4EB2",
"_. c #7365A3",
"`. c #7B65B6",
"'. c #7C72B1",
"]. c #785AC2",
"[. c #857E9F",
"{. c #835BBB",
"}. c #8455BB",
"|. c #8662BE",
" X c #836DAD",
".X c #845EC3",
"XX c #8764C2",
"oX c #9268CA",
"OX c #9478D3",
"+X c #9977CE",
"@X c #908E9C",
"#X c #8C9E90",
"$X c #9C9A8B",
"%X c #9AB789",
"&X c #B6B684",
"*X c #A4BA98",
"=X c #AEAE90",
"-X c #958CA1",
";X c #A093B1",
":X c #A9BCA0",
">X c #9EC18B",
",X c #A0C28F",
"<X c #BCC596",
"1X c #B0D1A2",
"2X c #BECAB6",
"3X c #B3C5A4",
"4X c #C8D9B5",
"5X c #E4DEAC",
"6X c #CBE1BA",
"7X c #D6CE90",
"8X c #9C83C7",
"9X c #BBBBCB",
"0X c #C2CECA",
"qX c #C8D4CA",
"wX c #CFD3D7",
"eX c #D2E2C6",
"rX c #D7E4D7",
"tX c #E1EFDE",
"yX c #DCD9E2",
"uX c #E1E3E2",
/* pixels */
"H V U , F ( I > S C I A A I T Z , I Z S Q S % < C F S S Q C A S ",
"& S C C F I Z H V I > + ( I ~ < < I O S I I H A ~ A X ~ A ~ A W ",
"{ Z Z I >.Q S Z I > U > <.C [ 1 < L > >.{ % H Z > A o O.A { + V ",
"Z H ! & F I + G I 1 ' ' @.t.@.+.w.} P ( ~ G * K > Z T A G Z > I ",
"I S % ! A Z A 3 ..X.) $ *.0.s.h.w.=.1.R ' =.] Y Y 3 I W Z { I o ",
"C C < & ~ A G T *.= ] ) ..h.%Xd.q.q.=.s.&.4 4 : _ +.~ I Z ~ Z > ",
"Z A A U G R ~ @...= 1.e.} 0.,X%Xd.s.q.&. .s # a d J Z S o Z S S ",
"A V W A O.A , T } | | e.e.} f.1X>Xh.3.3.2.7.p @ s 5 H S ~ I O.F ",
"< V S > I O.D C G } * 5 %.*. .&.*.*.$.s - s p @ a ) < ! S ~ A C ",
"! S C V W C C C < [ T 5 _ a d p  . . .2.2.s 2 $ a J X ! < O.o A ",
"I > ^ ! ! ,.> Z A > O.3 4.9.v r s g r v #X2.2 $ ] %.> Q U G % A ",
"H ! O & I H & Z O.< 1 4.b k k 8 r y j x N n 9.8.4.@./ Q C [ H < ",
"& Z Z ! > A Z % < _ $.y J._.Q.w V.G.G.8X Xx f i.-.o., A V Z < < ",
"! Z Z o O.F W ~ %.s g z Z./.~.W.OX`.Q.+XR.A.0 h a.o.R U Z I I Z ",
"& H C Q I U G J 4 b K.'.`.E.E.W.W.XX{.W.|.H.u =Xg.#.P S % ! ~ F ",
"I < W C S U Y -.$.t S.C.Y.E.~.I.{.T.~.U.T.D.x i g f.3 S ,.! Q F ",
"C U U > S C ;.r.&Xh q U.U.XX(.|.~.b.P.|.T.l.n.l u 2.$ ! S ^ V A ",
"/ o A T >./ -.g.u.m e P./.OX^.oX^.v.^.{.^.^.T.F.7 y : ,.V W X C ",
"S S I % U [ $.eXn x A.P.U.(.U.P.oX}.P.v.m.{.Y.I.q f ` A S Z > A ",
"S S O ~ A ' 6.rXN e D.^.|.P.).c.{.oXm.c.v.).x.W.j v 4 I > ! H & ",
"Z Z > ; ( P 6.rX-Xl D.R.T.U..Xx.(.U.j.j.v.M.M.C.j M ' U S ! A % ",
"Z H A I F R 5.2XyXH.Q.m.k.^.(.Y.N.U./.C.w e V.9 y 2.Y F o A T G ",
"I > ~ < U A o.*XuX;XS.Q.I.M.M.].x.!.L.B.t B i   9.4.G C O.I O.~ ",
"< > U A H ~ P d.2XwXK._.`.z.j.!.M.z.z.x p.5X=X6 5.*.& W S >.D C ",
"W I C O W V C o.%XrX9Xz 9 V.j.M.].L.k.7 y.7X&Xu.d.' + ! > O.+ A ",
"H V W S ^ ( ; 3 5.*XrX9Xz l V.b.l.C.l.8 . r.y.<X;.} % :.> I > S ",
"! W > Z F >.< T ;.5.:XqXyX9X[.q 7 9 l @X$Xp.=X3X` +.H H S H ! + ",
"& Z < I A V H * 1 ' 5.*X3XqXrXqX0X0XqXtXeX4X6Xf.Y T V C V Z Z Z ",
"W A C ; / S H K ~ < 3 ` &.$.0.*.$.$.] q.` R E ' Y < S F > Q I > ",
"V S Q D U O.H H V W I [ +.G U ~ U A T I ~ I Q C I > ^ F > ( Q W ",
"H Z G A S S C C F C I S Z U U O.; ~ S A I O.S ! A { A C >.~ O.I ",
"Z H T > I V V C A O.C X W > ~ C S I > C A H S Z I A X I C ( Z G "
};
