/* XPM */
static char *result[] = {
/* columns rows colors chars-per-pixel */
"64 64 152 2 ",
"   c #000000",
".  c #0C0B0B",
"X  c #140C09",
"o  c #1D0E0D",
"O  c #19150B",
"+  c #151514",
"@  c #181818",
"#  c #290807",
"$  c #310E0D",
"%  c #390C0A",
"&  c #211C0F",
"*  c #221010",
"=  c #2B1514",
"-  c #2C1B12",
";  c #311A19",
":  c #391B1A",
">  c #2D2513",
",  c #27201D",
"<  c #322915",
"1  c #091B36",
"2  c #322E2A",
"3  c #3D2D2A",
"4  c #35302D",
"5  c #353535",
"6  c #6F1F1D",
"7  c #7E1D1A",
"8  c #7B201D",
"9  c #4B3F20",
"0  c #553130",
"q  c #613F25",
"w  c #624226",
"e  c #634828",
"r  c #63522A",
"t  c #655734",
"y  c #102951",
"u  c #4B4946",
"i  c #5A4241",
"p  c #524B45",
"a  c #5A4C42",
"s  c #57504A",
"d  c #59524C",
"f  c #515151",
"g  c #5A5A5A",
"h  c #70544B",
"j  c #6A5E56",
"k  c #74694D",
"l  c #6A625C",
"z  c #606060",
"x  c #6C6C6C",
"c  c #726C68",
"v  c #7B736D",
"b  c #7F7770",
"n  c #881E1B",
"m  c #84201D",
"M  c #94201D",
"N  c #AF241F",
"B  c #9D2320",
"V  c #972825",
"C  c #9A2926",
"Z  c #90372C",
"A  c #A32D2A",
"S  c #A92C28",
"D  c #BB2622",
"F  c #B32D2A",
"G  c #C42923",
"H  c #CC2D27",
"J  c #D22B25",
"K  c #DB2C27",
"L  c #CF302A",
"P  c #DD3A2C",
"I  c #E52E28",
"U  c #E5342D",
"Y  c #E63D2E",
"T  c #976D56",
"R  c #8C7566",
"E  c #977869",
"W  c #877B73",
"Q  c #DB6F52",
"!  c #A78B48",
"~  c #9A8070",
"^  c #9A897D",
"/  c #EF8C4F",
"(  c #EE9B5A",
")  c #C3A255",
"_  c #EFA45D",
"`  c #D59C6F",
"'  c #E48473",
"]  c #DDB860",
"[  c #D8A277",
"{  c #F1AE60",
"}  c #E8BC62",
"|  c #F1B362",
" . c #F3BB63",
".. c #F4C568",
"X. c #F5CC6A",
"o. c #F6D875",
"O. c #164284",
"+. c #1A4487",
"@. c #1D4F9E",
"#. c #6D7D9E",
"$. c #2663C6",
"%. c gray53",
"&. c #8D8D8D",
"*. c #99938E",
"=. c #959595",
"-. c #9A9A9A",
";. c #A69487",
":. c #BD9B88",
">. c #A6A6A6",
",. c #A9A9A9",
"<. c #B3B3B3",
"1. c #BDBDBD",
"2. c #D78F81",
"3. c #C19F8B",
"4. c #D39386",
"5. c #ED9386",
"6. c #DEAE89",
"7. c #C2A998",
"8. c #DDB091",
"9. c #DAB69F",
"0. c #E1B48F",
"q. c #E0B390",
"w. c #C5B2A4",
"e. c #E1BCA4",
"r. c #F7E782",
"t. c #F7ED87",
"y. c #D6C0B0",
"u. c #DBC4B3",
"i. c #DDC8B8",
"p. c #E5C2AB",
"a. c #EBCCB5",
"s. c #E9CCB7",
"d. c #EFD2BD",
"f. c #C4C4C4",
"g. c #CDCDCD",
"h. c #D4CCC6",
"j. c #D3D3D3",
"k. c gainsboro",
"l. c #ECD4C3",
"z. c #EED9CB",
"x. c #F3D9C6",
"c. c #F3DECF",
"v. c #ECDED5",
"b. c #F5E2D4",
"n. c #F8EADF",
"m. c #E2E2E2",
"M. c #EFE8E3",
"N. c #EFEFEF",
"B. c #F0EFF0",
"V. c #F3F3F3",
"C. c #FBF5F0",
"Z. c #FEFEFE",
/* pixels */
"Z.N.V.N.Z.Z.Z.N.N.Z.Z.Z.V.V.V.Z.Z.V.V.N.Z.Z.Z.%.g z z z j g g z z z g g z z z g N.Z.Z.Z.V.V.V.Z.Z.Z.N.N.Z.Z.Z.N.V.V.Z.Z.V.V.N.Z.",
"Z.V.N.V.Z.Z.Z.N.N.Z.Z.Z.N.N.Z.Z.Z.V.V.V.Z.Z.Z.f                                 V.Z.Z.Z.N.N.V.Z.Z.Z.N.N.Z.Z.Z.V.V.V.Z.Z.V.V.V.Z.",
"V.Z.Z.Z.V.N.V.Z.Z.N.N.N.Z.Z.V.V.N.-.=.=.&.&.&.k r r r e q e r r q w t r w w r r =.&.N.N.Z.Z.Z.V.V.V.Z.Z.N.N.V.Z.Z.V.V.N.Z.Z.Z.V.",
"N.Z.Z.Z.V.V.V.Z.Z.V.N.N.Z.Z.Z.N.V.@           ! X.X.X.| ( { X...( _ X.X.( ( X.X.    N.N.Z.Z.Z.V.V.V.Z.Z.N.N.N.Z.Z.Z.N.V.Z.Z.Z.N.",
"Z.V.V.V.Z.Z.V.V.V.Z.Z.Z.V.V.V.-.=.t r r r r r ) X.X.X. .{  .X...{ | X.X.{ { X.X.r r =.-.=.=.V.Z.Z.V.V.V.Z.Z.Z.V.V.Z.Z.Z.V.V.V.Z.",
"Z.N.N.N.Z.Z.Z.V.N.Z.Z.Z.N.N.V.    ] X.X.X.X.X.X.X.X.X.X.X.X.X.X.X.X.X.X.X.X.X.X.X.X.        N.Z.Z.Z.V.N.Z.Z.Z.N.N.V.Z.Z.V.V.V.Z.",
"Z.N.N.V.Z.Z.Z.N.V.Z.Z.Z.V.,.,.9 9 } X.X.X.X.X.X.X.X.X.X.X.X.X.X.X.X.X.X.X.X.X.X.X.X.9 9 9 9 >.<.Z.Z.N.V.Z.Z.Z.N.N.V.Z.Z.V.N.V.Z.",
"V.Z.Z.Z.V.N.V.Z.Z.V.V.V.Z.    X.X.X.X.X.X.X.X.X.X.X.X.X.X.X.X.X.X.X.X.X.X.X.X.X.X.X.X.X.X.X.    V.V.Z.Z.V.N.V.Z.Z.Z.N.N.Z.Z.Z.V.",
"V.Z.Z.Z.N.V.V.Z.Z.N.V.1.g.< < X.X.X.X.X.X.X.X.X.X.X.X.X.X.X.X.X.X.X.X.X.X.X.X.X.X.X.X.X.X.X.< < 1.f.Z.Z.N.V.V.Z.Z.V.N.N.Z.Z.Z.N.",
"N.Z.Z.Z.N.V.V.Z.Z.N.V.    X.X.X.X.X.X.X.X.X.X.X.X.X.X.X.X.X.X.X.X.X.X.X.X.X.X.X.X.X.X.X.X.X.X.X.    Z.Z.N.N.V.Z.Z.Z.N.V.Z.Z.Z.N.",
"Z.V.N.N.Z.Z.Z.N.N.Z.Z.    X.X.X.X. . . . . . . . . . . . . . . . . . . . . . . . . . . .X.X.X.X.O O j.k.Z.Z.Z.V.N.V.Z.Z.V.N.V.Z.",
"Z.N.V.V.Z.Z.Z.V.N.Z.Z.    X.X.X.X.Y I I I I I I I I I I I I I I I I I I I I I I I I I I X.X.X.X.X.X.    Z.Z.Z.N.V.V.Z.Z.V.N.V.Z.",
"Z.V.V.V.Z.V.V.V.V.m.m.O O  . . . .P K K K K K K K K K K K K K K I K K K K K K K K K K K  . . . .X.X.    Z.V.Z.V.V.Z.Z.V.V.V.V.Z.",
"N.Z.Z.Z.N.N.V.Z.Z.    X.X.I I I I n 7 7 7 7 7 7 7 7 7 7 7 7 7 7 7 7 7 7 7 7 7 7 7 7 7 7 I I I I X.X..   N.N.N.Z.Z.V.V.N.Z.Z.Z.V.",
"V.Z.Z.Z.V.N.V.Z.Z.    X.X.I I I I n 7 7 7 7 7 7 7 7 7 7 7 7 7 7 7 7 7 7 7 7 7 7 7 7 7 7 I I I I X.X.    N.N.V.Z.Z.Z.V.V.Z.Z.Z.B.",
"Z.V.N.V.Z.Z.Z.N.V.    I I 7 7 7 7 } X.X.X.X.X.X.X.X.X.X.X.X.X.X.X.X.X.X.X.X.X.X.X.X.X.X.7 7 7 7 I I I I     k.N.N.V.Z.Z.V.N.V.Z.",
"Z.V.V.N.Z.Z.Z.N.N.    I I 7 7 7 7 } X.X.X.X.X.X.X.X.X.X.X.X.X.X.X.X.X.X.X.X.X.X.X.X.X.X.7 7 7 7 I I I I     k.N.V.V.Z.Z.V.V.N.Z.",
"Z.N.V.V.Z.Z.Z.N.V.    7 7 X.X.X.X.X.X.X.X.X.X.X.X.X.X.X.X.X.X.X.X.X.X.X.X.X.X.X.X.X.X.X.X.X.X.X.n 7 7 7     k.N.V.V.Z.Z.V.V.V.Z.",
"N.Z.Z.Z.V.N.V.Z.Z.    7 7 X.X.X.X.X.X.X.X.X.X.X.X.X.X.X.X.X.X.X.X.X.X.X.X.X.X.X.X.X.X.X.X.X.X.X.7 7 7 7     g.Z.Z.V.V.N.Z.Z.Z.V.",
"N.Z.Z.Z.N.V.V.    X.X.X.X.X.X.( ( X                                                     ( ( X.X.X.X.X.X.    g.Z.Z.Z.N.N.Z.Z.Z.N.",
"Z.V.V.V.V.Z.Z.    X.X.X.X.X.X.( ( X                                                     ( ( X.X.X.X.X.X.    j.Z.V.Z.V.Z.V.V.V.Z.",
"Z.V.V.N.Z.    X.X.X.X.( (         p d d d +   ~ e.a   4 d d d d d d d d     e.e.    d d     ( ( X.X.X.X.X.X.&   f.V.Z.Z.V.V.V.Z.",
"Z.N.N.V.Z.    X.X.X.X.( (         p d d s +   ~ e.a   2 d d d d d d d d     e.e.    d d     ( ( X.X.X.X.X.X.&   f.V.Z.Z.V.V.N.Z.",
"N.Z.Z.Z.V.    X.X.( (     d d d d v v v W @   o = X   u b b b b b b b b     = =     b b d d         ( ( X.X.X.X.<   <.N.Z.Z.Z.V.",
"N.Z.Z.Z.N.    X.X.( (     d d d d v b b b @   o = X   u b b b b b b b b     = =     b b d d         ( ( X.X.X.X.>   1.V.Z.Z.Z.V.",
"V.Z.Z.Z.N.    ( ( ( (         b b b b .       ~ e.e.e.a   2 b b b l     e.e.e.e.e.e.    b b d d d d     ( ( ..X.>   <.V.Z.Z.Z.N.",
"Z.N.V.V.Z.    ( ( ( (         W b b b .       E e.e.e.a   2 v W b l     e.e.e.e.e.e.    b b d d d d     ( ( X.X.>   f.Z.V.N.N.Z.",
"Z.N.N.N.Z.Z.Z.    ( (     e.e.            * = = = = = E e.R       , e.e.= = = = = =         b b         ( ( ( ( -   g.Z.V.N.V.Z.",
"Z.V.V.V.Z.Z.Z.    ( (     p.e.            * = = = = = E e.R       , e.e.= = = = = =         b b         ( ( ( ( -   f.Z.V.V.V.Z.",
"V.Z.Z.Z.V.N.V.V.Z.        e.e.        1.g.x s s d 3 = = ; h 9.9.9.:.; ; = = s s s s g.g.      . 9.9.    ( ( ( ( -   1.V.Z.Z.Z.N.",
"V.Z.Z.Z.N.V.V.Z.Z.        e.e.        y.j.c d d d 3 = = = h e.e.e.3.= = = = d d d d j.j.        e.e.    ( ( ( ( -   <.V.Z.Z.Z.N.",
"Z.V.N.N.Z.Z.Z.N.N.Z.Z.            u.x.Z.Z.*.W b b w.x.x.c.x.x.x.x.x.x.x.x.x.b b b W Z.Z.x.x.                    f.C.Z.Z.V.N.V.Z.",
"Z.N.V.V.Z.Z.Z.N.V.Z.Z.            u.x.Z.Z.*.v W b w.x.x.x.x.x.x.x.x.x.x.x.x.W b b b Z.Z.x.x.                    f.V.Z.Z.V.V.N.Z.",
"Z.N.N.V.Z.Z.Z.N.V.Z.Z.1.<.<.<.    u.x.b.b.i.y.h.j.M.C.C.C.C.C.C.C.C.C.C.C.C.y.e.y.y.b.b.x.x.    f.1.<.<.1.1.f.<.m.V.Z.Z.V.V.V.Z.",
"N.Z.Z.Z.V.N.V.Z.Z.N.N.N.Z.Z.V.    u.x.x.x.x.x.C.Z.Z.Z.Z.Z.Z.Z.Z.Z.Z.Z.Z.Z.Z.z.z.x.x.x.x.x.x.    V.V.Z.Z.N.N.V.Z.Z.V.V.N.Z.Z.Z.V.",
"V.Z.Z.Z.N.N.V.Z.Z.N.V.V.Z.Z.Z.-.-.d p s.x.x.x.l.l.M.V.Z.Z.Z.Z.Z.Z.Z.Z.Z.l.l.x.x.x.x.x.x.p p >.-.V.V.Z.Z.N.V.N.Z.Z.Z.V.N.Z.Z.Z.N.",
"V.Z.Z.Z.V.V.Z.Z.Z.V.V.V.Z.Z.V.V.V.@   u.x.x.x.p.e.v.V.Z.Z.Z.Z.Z.Z.Z.Z.Z.e.e.x.x.x.x.x.x.    Z.V.V.V.Z.Z.N.V.V.Z.Z.Z.V.V.Z.Z.Z.N.",
"Z.N.N.N.Z.Z.Z.N.N.Z.Z.Z.V.N.V.Z.Z.=.%.l j j j 7.a.c.n.z.z.z.z.z.z.z.z.z.s.s.x.x.j j j j %.%.N.Z.Z.Z.V.V.Z.Z.Z.N.N.V.Z.Z.V.N.N.Z.",
"Z.V.N.N.Z.Z.Z.V.V.Z.Z.Z.V.V.V.Z.Z.V.V.@       ;.x.x.x.s.e.e.e.e.e.e.e.e.x.x.x.x.        N.N.N.Z.Z.Z.V.V.Z.Z.Z.V.N.V.Z.Z.N.N.N.Z.",
"V.V.Z.V.V.V.V.V.Z.V.Z.V.V.Z.Z.V.V.V.C.x g g g W ^ ^ ^ :.8.8.8.8.8.8.8.8.^ ^ ^ ^ g g g g V.Z.Z.V.V.V.Z.V.V.V.V.Z.V.Z.Z.V.V.Z.Z.V.",
"V.Z.Z.Z.V.N.V.Z.Z.V.V.N.Z.Z.V.V.V.Z.Z.Z.V.V.V.f       T ` ` ` ` ` ` ` `         Z.V.V.N.Z.Z.Z.N.V.V.Z.Z.N.V.V.Z.Z.Z.N.N.Z.Z.Z.N.",
"V.Z.Z.Z.N.N.V.Z.Z.N.N.V.Z.Z.Z.V.N.Z.Z.Z.N.<.>.i $ $ $ T 6.6.6.6.6.6.6.6.$ $ $ $ <.,.N.N.Z.Z.Z.V.N.V.Z.Z.N.N.V.Z.Z.V.V.V.Z.Z.Z.N.",
"Z.V.N.N.Z.Z.Z.N.N.Z.Z.Z.V.N.V.Z.Z.V.V.V.Z.5   6 A A A 4.d.x.x.x.x.x.x.x.A A A A     Z.Z.V.N.V.Z.Z.Z.N.N.Z.Z.Z.V.V.V.Z.Z.V.N.V.Z.",
"Z.V.V.N.Z.Z.Z.N.V.Z.Z.Z.V.V.V.Z.Z.V.V.<.f.0 % 8 C S F 2.s.l.x.x.x.x.d.d.F F C C % % f.1.N.V.N.Z.Z.Z.N.V.Z.Z.Z.N.V.V.Z.Z.V.V.N.Z.",
"Z.V.N.V.Z.Z.Z.N.N.Z.Z.Z.N.N.V.Z.Z.V.N.@   N I N 8 D I ' e.a.x.x.x.l.e.e.I I 7 7 I I     B.N.V.Z.Z.Z.N.N.Z.Z.Z.N.N.V.Z.Z.V.N.V.Z.",
"N.Z.Z.Z.V.V.V.Z.Z.N.V.N.Z.Z.Z.V.V.j.g.: # N J B m D I ' p.a.d.d.d.d.p.p.I I m m J J # # j.j.Z.V.N.V.Z.Z.N.N.N.Z.Z.Z.V.N.Z.Z.Z.V.",
"V.Z.Z.Z.N.N.V.Z.Z.N.N.N.Z.Z.V.V.V.@   J I M 7 V A H I 5.x.a.e.e.e.p.x.x.I I A A 7 7 I I     Z.N.V.V.Z.Z.N.N.V.Z.Z.Z.N.N.Z.Z.Z.N.",
"Z.V.V.V.Z.Z.Z.V.V.Z.Z.Z.V.V.V.Z.Z.@   J I n 7 V A H I 5.x.a.e.e.e.p.x.x.I I A A 7 7 I I     V.Z.Z.Z.V.V.Z.Z.Z.V.V.V.Z.Z.V.V.V.Z.",
"Z.N.V.N.Z.Z.Z.V.N.Z.Z.Z.V.N.V.    J I I I M 7 G I I I Q ` q.x.x.x.a.` ` I I I I 7 7 I I I U     Z.Z.B.N.Z.Z.Z.N.N.V.Z.Z.V.V.N.Z.",
"Z.N.N.V.Z.Z.Z.N.V.Z.Z.Z.N.N.V.    L U U U M 7 G I I I Q ` 0.x.x.x.a.` ` I I I I 7 7 U U U U     Z.Z.N.V.Z.Z.Z.V.V.V.Z.Z.V.N.V.Z.",
"V.Z.Z.Z.N.N.V.Z.Z.V.N.N.Z.Z.Z.    u.x.[ ` Z 7 G I I I / X.o.t.t.t.r.X.X.I I I I 7 7 ` ` x.x.    V.V.Z.Z.V.N.V.Z.Z.Z.N.N.Z.Z.Z.V.",
"N.Z.Z.Z.N.V.V.Z.Z.N.V.N.Z.Z.Z.    u.x.[ ` Z 7 G I I I / X.o.t.t.t.r.X.X.I I I I 7 7 ` ` x.x.    N.V.Z.Z.N.V.N.Z.Z.Z.N.N.Z.Z.Z.N.",
"N.Z.Z.Z.N.V.V.Z.Z.V.V.V.Z.Z.Z.    u.x.x.x.2   +.$.@.O.O.O.O.O.O.+.O.O.O.O.O.$.$.    x.x.x.x.    N.V.Z.Z.N.N.V.Z.Z.Z.V.V.Z.Z.Z.N.",
"Z.V.N.N.Z.Z.Z.N.N.Z.Z.Z.V.N.V.    u.x.x.x.2   +.$.@.O.O.O.O.O.O.+.O.O.O.O.O.$.$.    x.x.x.x.    Z.Z.N.N.Z.Z.Z.V.N.V.Z.Z.V.N.N.Z.",
"Z.N.N.N.Z.Z.Z.N.V.Z.Z.Z.N.V.V.Z.Z.@           +.$.$.$.y                 $.$.$.$.            V.Z.Z.Z.N.N.Z.Z.Z.N.V.V.Z.Z.V.V.N.Z.",
"Z.V.V.Z.Z.V.V.Z.Z.V.V.Z.V.Z.V.Z.Z.@           +.$.$.$.y                 $.$.$.$.            V.V.Z.V.V.Z.Z.V.Z.V.V.Z.V.Z.V.V.V.Z.",
"V.Z.Z.Z.N.V.V.Z.Z.N.V.N.Z.Z.Z.V.N.Z.Z.Z.V.5   +.$.@.O.1   z Z.B.N.g.    O.O.$.$.    V.N.Z.Z.Z.V.V.V.Z.Z.N.N.V.Z.Z.Z.V.N.Z.Z.Z.N.",
"V.Z.Z.Z.N.V.V.Z.Z.N.N.V.Z.Z.V.N.V.Z.Z.Z.N.5   +.$.@.O.1   g Z.V.V.g.    O.O.$.$.    N.V.Z.Z.Z.V.N.V.Z.Z.N.N.N.Z.Z.V.V.V.Z.Z.Z.N.",
"Z.V.N.N.Z.Z.V.V.N.Z.Z.Z.N.N.V.Z.Z.V.N.N.Z.5   ;.x.#.O.1   g V.Z.Z.g.    O.O.x.x.    Z.Z.V.N.V.Z.Z.Z.N.N.Z.Z.Z.V.V.V.Z.Z.V.N.N.Z.",
"Z.N.V.V.Z.Z.Z.N.N.Z.Z.Z.N.N.Z.Z.Z.V.V.N.Z.5   ;.x.#.O.1   g V.Z.Z.g.    O.O.x.x.    Z.Z.N.V.N.Z.Z.Z.N.V.Z.Z.Z.N.N.V.Z.Z.V.V.V.Z.",
"Z.N.N.V.Z.Z.Z.V.V.Z.Z.Z.N.N.V.Z.Z.V.N.@ . ! X.X.X.{ ( w   g V.Z.Z.g.    ( ( X.X.X.X.    N.V.V.Z.Z.Z.N.N.Z.Z.Z.N.N.V.Z.Z.V.N.V.Z.",
"V.Z.Z.Z.V.N.V.Z.Z.V.N.N.Z.Z.Z.V.N.Z.Z.@   ) X.X.X.{ ( q   z Z.V.N.g.    ( ( X.X.X.X.    Z.Z.Z.V.N.V.Z.Z.N.N.V.Z.Z.Z.N.N.Z.Z.Z.V.",
"N.Z.Z.Z.N.V.V.Z.Z.N.N.N.Z.Z.V.N.V.Z.Z.Z.V.V.V.Z.Z.V.B.B.Z.Z.Z.N.V.Z.Z.Z.N.N.N.Z.Z.V.N.V.Z.Z.Z.V.V.V.Z.Z.N.N.V.Z.Z.Z.N.N.Z.Z.Z.N.",
"Z.V.Z.V.V.Z.Z.V.V.Z.Z.Z.V.V.V.Z.V.Z.V.V.Z.C.Z.V.V.Z.V.Z.V.V.V.V.Z.V.Z.V.V.Z.Z.V.V.V.Z.Z.V.V.V.V.Z.V.Z.V.Z.V.Z.V.V.V.Z.Z.V.V.V.Z."
};
