/* XPM */
static char *ada029e8be494cd6b48bec380a9b71c6MZYBurxSGOHXtjt2[] = {
/* columns rows colors chars-per-pixel */
"64 64 249 2 ",
"   c #1B070A",
".  c #1C040B",
"X  c #1F0F10",
"o  c #23040B",
"O  c #2B060E",
"+  c #240C0E",
"@  c #2A0C0E",
"#  c #2A110E",
"$  c #250D11",
"%  c #2B0D12",
"&  c #320E14",
"*  c #2C1213",
"=  c #291418",
"-  c #331515",
";  c #341916",
":  c #371818",
">  c #3C1C1A",
",  c #3B2219",
"<  c #381D20",
"1  c #411D1B",
"2  c #491B1A",
"3  c #44231C",
"4  c #4A221E",
"5  c #4A281F",
"6  c #57261F",
"7  c #421E23",
"8  c #492823",
"9  c #532B23",
"0  c #592C27",
"q  c #4E332D",
"w  c #5B362C",
"e  c #593833",
"r  c #602E22",
"t  c #66372A",
"y  c #643A2D",
"u  c #643D34",
"i  c #6C3D32",
"p  c #663F38",
"a  c #574439",
"s  c #70432D",
"d  c #664536",
"f  c #6C4234",
"g  c #6C443A",
"h  c #724435",
"j  c #774839",
"k  c #744B3C",
"l  c #7C4C3B",
"z  c #7B513C",
"x  c #5C4942",
"c  c #674A44",
"v  c #784D41",
"b  c #665447",
"n  c #6C5C4E",
"m  c #775547",
"M  c #7D5343",
"N  c #6D5B51",
"B  c #785C53",
"V  c #6F6152",
"C  c #746556",
"Z  c #5C5C60",
"A  c #814D39",
"S  c #82533D",
"D  c #8C573C",
"F  c #92593E",
"G  c #92603F",
"H  c #825442",
"J  c #855647",
"K  c #835A43",
"L  c #8C5B45",
"P  c #845B4C",
"I  c #8B5D4A",
"U  c #935D43",
"Y  c #915F49",
"T  c #865D52",
"R  c #8B6347",
"E  c #8D624C",
"W  c #946244",
"Q  c #9A6545",
"!  c #93644B",
"~  c #9A654B",
"^  c #956A4C",
"/  c #9C6B4D",
"(  c #9D724E",
")  c #8C6452",
"_  c #866855",
"`  c #916552",
"'  c #946A53",
"]  c #9C6D52",
"[  c #936D59",
"{  c #8D7357",
"}  c #9D7254",
"|  c #9E7459",
" . c #9F785C",
".. c #A26C4C",
"X. c #A6734E",
"o. c #A26E52",
"O. c #A47354",
"+. c #AA7554",
"@. c #A47856",
"#. c #AC7A55",
"$. c #A37559",
"%. c #AA7659",
"&. c #A47A5B",
"*. c #AC7C5A",
"=. c #B27C55",
"-. c #B27D59",
";. c #B97F5A",
":. c #847666",
">. c #977F68",
",. c #A97E63",
"<. c #A68157",
"1. c #AD815D",
"2. c #B48156",
"3. c #B4835C",
"4. c #BA845C",
"5. c #B6895C",
"6. c #BC8A5E",
"7. c #B8965A",
"8. c #96836B",
"9. c #998A79",
"0. c #9E927D",
"q. c #AC8463",
"w. c #AA8667",
"e. c #B48562",
"r. c #B88661",
"t. c #B68B64",
"y. c #BB8C63",
"u. c #B38D6A",
"i. c #BB8E6A",
"p. c #BD9265",
"a. c #B9956C",
"s. c #BC946C",
"d. c #AC9174",
"f. c #BB9571",
"g. c #B79877",
"h. c #BD9973",
"j. c #BEA178",
"k. c #C28C5D",
"l. c #C1925F",
"z. c #C18D62",
"x. c #C39365",
"c. c #C3946A",
"v. c #C59A6C",
"b. c #C99868",
"n. c #CA9C6D",
"m. c #D09D6C",
"M. c #C49B73",
"N. c #C39B76",
"B. c #CA9E72",
"V. c #C6A06D",
"C. c #CDA16E",
"Z. c #D1A36E",
"A. c #D3AA6E",
"S. c #C6A172",
"D. c #CDA373",
"F. c #CFA975",
"G. c #C5A27A",
"H. c #CCA57B",
"J. c #CEA97B",
"K. c #D1A574",
"L. c #D3AA75",
"P. c #D9AD76",
"I. c #D4A678",
"U. c #D4AC7B",
"Y. c #D9AE7A",
"T. c #D6B17C",
"R. c #DAB37A",
"E. c #DBB37D",
"W. c #E1B57F",
"Q. c #A89984",
"!. c #A8A087",
"~. c #AEA38D",
"^. c #B4A38C",
"/. c #B4A894",
"(. c #BBB29D",
"). c #BEB4A2",
"_. c #C7A682",
"`. c #CCAC83",
"'. c #C9AF8D",
"]. c #D2AD81",
"[. c #D9AF83",
"{. c #D6B382",
"}. c #DBB582",
"|. c #DDBA84",
" X c #D7B58A",
".X c #DDBC8B",
"XX c #C8B698",
"oX c #D8BD96",
"OX c #E0B781",
"+X c #E2BC85",
"@X c #E2BE8A",
"#X c #E2BF91",
"$X c #C9BDA0",
"%X c #DEC18A",
"&X c #DCC199",
"*X c #E4C187",
"=X c #E4C28C",
"-X c #E9C58D",
";X c #E7C98F",
":X c #E4C492",
">X c #E8C692",
",X c #E6CA95",
"<X c #EECF91",
"1X c #EACB94",
"2X c #E4C69A",
"3X c #E5CC9C",
"4X c #EACC9A",
"5X c #ECD097",
"6X c #EDD19C",
"7X c #F1D39C",
"8X c #F5D99D",
"9X c #CDC5A7",
"0X c #CDC5AC",
"qX c #D7CAA7",
"wX c #D4CBB2",
"eX c #DBD4B7",
"rX c #E6CAA3",
"tX c #E5CEA3",
"yX c #EDD4A2",
"uX c #EAD5A8",
"iX c #EDDAAC",
"pX c #F1D6A2",
"aX c #F3DBA4",
"sX c #F8DCA2",
"dX c #F3DCAC",
"fX c #E6D8B5",
"gX c #E2DBBD",
"hX c #F1DEB2",
"jX c #F6E1AD",
"kX c #F9E4AB",
"lX c #EFE4B8",
"zX c #F6E4B4",
"xX c #FAE6B3",
"cX c #FBE9B6",
"vX c #F7E9BA",
"bX c #DED6C2",
"nX c #E4DCC4",
"mX c #EFE9CE",
"MX c #FAEDC2",
"NX c #F5EBC9",
"BX c #FBF3C5",
"VX c #FBF5CC",
"CX c #FCF6D4",
"ZX c #FDF9D5",
"AX c #FCF7D8",
"SX c #FDF9DB",
"DX c #FDFBE4",
"FX c #FCF8E8",
"GX c #FCFAF5",
/* pixels */
"GX.X X.X.X.X.X.X.X=X:X,X2X>X1X4X4X4X3X3X3XuXqXnXtXtX3XtXtX2X,X,X6X4X1X1X4XyXyX`.% u.tX2X:X#X.X.X.X.X.X.X.X.X.X.X.X.X X X|.}.zXo ",
"iX,X7X7XpXdXdXdXjXjXaXaX7X8XsXjXxXxXcXcXcXcXcXxXcXcXxXxXkXkXaX8X7X<X-X=X+Xp.W |.% A.Q D E.W.W.+X+X@X+X|.}.E.R.L.U.U.I.L.L.H.x.o ",
"2Xn.K.L.P.P.P.P.R.}.@X@X|.|.}.|.@X+X+X+X=X*X=X-X-X=X=X@X+X|.|.T.L.V.c.r.#.X.U r % 8 8 9 0 y h z L ~ O.3.x.#.D S S L W / O.o.U o ",
"y h l S D D U ....@.c.v.v.F. X4X6XyXpXpXaXaX7X>X-Xv.( ( 3.J.yXcXvXBXBXVXCXVXlXs.% p.<X-X|.E.E.}.}.}.}.@X}.T.T.E.{.T.h.D.C.Z.v.o ",
"zX{.@X+X+XE.E.P.P.L.P.P.L.L.L.L.L.{.}.}.*X>X1X1X4X4X>X*X*X*X,X5X7X7X,X*X=X, /.k & 5.e b P.L.R.R.E.E.OXE.R.P.P.P.L.8 nX1 k M d o ",
"pXc.*.b.n.Z.Z.Z.n.x.b.x.x.n.B.I.]. X}.+XW.E.E.E.@X=X-X-X-X*X*XOX+X@X1X,X1X,X&XBX& 7.g.>.P.P.E.P.L.A.A.Z.A.2.%.y.B.OXw.K.n.b.H.o ",
"s.e.e.y.y.z.6.z.x.z.x.s Q 6.x.K.K.D.D.K.I.E.P.L.K.K.K.J.U.].U.U.I.I.n.b.B.K.K.x.% j K.U.D.D.H.G.h.f.s.t.3.4.3.*.r.3.6.6.4.+.i.o ",
"q g g f k M M M k k k 9 A F U L L Y Y I L I I E ! ! R E I L L L L K M M K K K i & j S z S L K S l l l h h h f k l l k j j j u o ",
"0XmXnXgXgXgXeXeXgXgXeX0X$XXXXXXX9X9X$X9XgXwXXX9X9XwXwXeXgXeXwXwX0X0X0X0X9X0XeXnXnXeXnXgX9X9XwXmXNX+ + bXnXeXwX0X0XwXwXqX9X9X'.o ",
"AXI.U.T.{.}.}.T.}.}.@X=X:X:X.X|.@X:X:X:X=X=X:X2X2X:X:X=X=X=X:X,X:X|.6X4X4X4X3X,X,X3X6X4X4X:X}.H.H.`.% 2X@X}.U.{. X X}.U.L.C.h.o ",
"^.P.}.}.@X@X@X=X,X,X1X1X,X,X-X-X1X,X1XyXpX6X5X4X,X1X:X:X=X:X1X5X6X:X6X6X4X,X,X,X=X|.}.,X=X=XoXlXtX@.c.@.t.@X=X=X=X@X|.T.E.D.H.o ",
"; q g v K } *.1.1.} &.&.w.~ W ~ @.t..XyXkXkXkXAXjX6X5X5X5X4X4X4X1X1XpX6X5X1X1X7X7X1X=X|.K.VXiXq.v.SX-.aXzXvXBXvXxXaX6X4X4X,X`.o ",
"* e l H ^ &.f..XyXMXVXvXxXBX6X:X@X*X*X*X*X-X-X=X1X=XyX1X4X,X|.5X6X1X1X1X1X;X=X>X,X,X;X=X}.SXf fXt @.|.D.E.E.U.U.L.V.y.4.#.Q 0 + ",
"fXE.E.U.U.R.P.E.W.OX+X*X@X*X@X*X=X*X=X=X=X=X-X=X=X=X=X,X,X,X1X6X5X6X1X4X1X4X,X,X,X|.U.F._.cXw { u y z z ^ G.pX7X5X@X|.T.F.F.].O ",
"uXU.T.E.E.E.}.|.OXOX+X+X+X+X@X*X+X*X=X=X=X=X*X*X*X}.Y.P.I.U.Y.I.@X4X7X7X7X7X4X4X4X1X,X,X@.W.e.t z MXOXv.c.c.v.v.p.x.y.p.p.t.E + ",
"tX}.@X=X=X@X@X@X:X=X@X{.B.3.%.%.+.+...~ ^ / o.*.3.r.c.c.c.i.t.y.c.p.6.6.6.p.v.p.s.p.p.6.5.l 4XVXvXz.z.x.b.n.m.m.z.X.....O./ I O ",
"&Xs.M.v.v.%XL b.v.D.P.P.E.R.E.+X=X1X,X1X4X4X1X4X4X4X4X6XaXaXaXdXjXjXzXzXxXxXcXcXxXjXjXjXjXaXw.y G ..=.#./ X.6.c.k s.Y.E.R.K.t.O ",
"w.*.e.s.M.M.w.H.B.M.M.B.B.D.H.H.D.I.I.H.J.J.U.U.{.{.U.{.}.{.{.{.{.}.}..X|.|.@X|.{.D.p.i.i.*.l 9 '.oX&X&XoX&XrX&X&XoX&XoX X Xq.o ",
"K M K ! ! ~ ~ ! O.o.^ ! L } } / ^ R &.*.*.@.@.O.} } &.&.&.&.&.&.&.&.&.| $.~ R R E z 3.t.e.r.n.& f.e.3.*.*.%.O.~ ! ~ ~ ~ L A S . ",
"  ; - - : ; - - ; ; : ; ; > 1 1 1 : 3 5 8 8 5 8 3 3 3 , 3 8 8 8 8 3 8 3 8 3 3 3 > - 1 3 8 9 4 - - > 1 3 4 4 3 3 3 > > : - & o . ",
"NXVXCXCXZXCXVXVXCXZXVXVXZXAXAXCXBX  GXFXAXCXZXSXSXDXSXSXSXSXSXZXCXVXZXSXDXSXSXZXZXSXSXSXSXSXZXZXZXZXSXSXSXSXSXSXSXSXSXZXCXBXvX  ",
"fXU.}.8Xw s.}.=X1X=X>X1X4X,X>X=X|.}.OXOXE.P.E.R.OX|..X*X=X=X}.+X+X+X|.}.|.|.|.}.{.{.R.R.R.P.P.P.P.U.U.U.U.I.I.I.H.H.D.c.c.t.'.o ",
"e j B.( 1 9 W c.v.c.y.1.*.r.x.z.z.x.b.B.D.D.n.c.C.C.D.D.D.H.v.c.p.p.c.p.v.L.U.U.E.U.P.P.L.P.C.R.4Xy.x.I.y.6.6.2.O./ L S H H f.o ",
"lXS..X> FXQ.0 y  X=X=X@X=X>X.X}.{.T.U.}.}.}.U.}.}.,X|.uX=X=X1X=X=XzX%X}.E.|.|.|.E.E.E.E.E.E.t.K.U.I.L.K.C.Z.D.n.c.B.C.v.z.o.0 o ",
"iXh.].q w i r ,Xn.C.D.U.U.P.U.U.T.T.R.R.R.R.R.T.L.L.L.Y.P.P.OX*X*X+X|.|.E.E.E.E.E.E.R.P.E.E.U.L.D.D.n.x.6.6.2.#.-.+.+.=.=.+.-.O ",
"  8 d.g.8 9 tXb.b.n.D.F.K.D.K.L.K.D.D.D.n.c.c.c.b.D.|.+X|.|.|.}.E.P.T.T.|.E.E.E.E.c.n.+X*X*X|.E.E.E.U.L.T.U.L.D.K.C.C.n.z.y.3.O ",
"- f S / X.S.L ~ W ~ o.@.3.c.P.E.R.R.P.U.U.U.U.{.}.}.E.R.L.K.P.+X+XOXD.n.n.b.x.x.v.C.L.U.D.n.B.n.n.n.b.v.b.y.3.%./ W ! ^ ^ ! S o ",
"tXc.c.b.v.v.v.*.n.n.B.n.n.y.6.4.2.=.#.#.=.4.c.4.4.4.6.z.z.6.6.}.I.P.U.L.R.R.L.P.P.P.P.K.W K.K.K.=X=X+.v.v.1.> P _.`.].`.G.a.t.& ",
"qX-.O.v.x.x.x.v.v.v.v.v.b.-.z.b.x.x.Y.I.L.L.{.K.K.L.L.R.U.T.U.U.U.U.P.T.R.Y.Z.P.P.P.L.K.L.K.D.D.n.t x.z.x.=.n.b.z.4.3.-.-.=.3.& ",
"XX+.X.y.@.*.%.-.*.e.x.b.y.4.c.b.n.n.b.b.x.x.b.n.K.K.f v.L.L.D.n.v.v.v.v.n.v.t b.x.l.6.3.+.O.~ ~ / O.*.4.4.4.-.+.=.-.-.-.=.-.t.& ",
"c M v ` ! ~ / ] ^ O.@.4 / @.%.*.*.1.q.q.*.*.q.1.*.*.+.-.4.r.3.#.*.%.@.| ` I E E L K R ! o.@.@.O.] ^ ~ I M y y y i l I I P M e o ",
"u j u u u u d p p u e % h h j j l l k k g k M M M l l l M H M S H H H H l l l j j j j h h f f f h h j j h S l l j j g i f g v o ",
"_ 0.Q.Q.d._ + 9.Q.Q.Q.~.(.(./.Q.Q.~.~.~.~./.(.~.~././.(.).(./.~.~.~.~.~.Q.0.9.9.9.8.Q.^.d.g.8.g.z 8 ~.~.!.Q.9.8.8.9.0.Q.Q.0.Q.o ",
"m H ( p.J.U.- fX}.U.J.].].{.T.{.{.{.}.T.{.|.|.U.U.}.|. X.X:X:X=X=X=X%X.X=X%X.X}.H.J.vX$.l i %XxXm.k.p.L.F.L.L.Z.D.J.S.v.S.v.j.o ",
"lXE.E.E.U.U.u 4 6 l t.+X}.}.}.}.}.|.@X+X@X=X%X{.=X=X=X:X:X:X:X+X=X=X%XuX+X=X*X1X@XMXh.t d.g 0 8X|.}.}.E.D.x.3.t.I.E.Y.K.6.y.h.& ",
"tXs.v.c.p.p.x.n.U.T.U.U.{.}.}.}.|.@X+X+X@X=X=X%X:X=X=X=X=X=X=X=X:X:X:X=X*X*X|.p.^ m g 0  X} 4 ,.! d.oXaXxX*XE.}.E.U.U.I.U.D.h.O ",
"{ s.s.oXuXiXiXdXdXdXpX6X1X4X5X1X*X=X=X@X@X=X1X4X1X:X@X@X}.I.n.v.B.N.M.G.`.%XiXvXvXqXVXy h h K MX{.}.}.}.E.E.E.E.D.u.] K z i 2 O ",
"tXc.B.n.n.n.^ K.F.L.L.L.L.U.T.E.}.M.D E.=.n.+X5X<.aXyXyX6X=X|.%X*X*X@Xl.*X+X+Xv.Q H. XMXuXvXcX#.-.3.3.%.t.].uXzXzXhXuX3X2X:X}.& ",
"3Xv.v.n.v.D.D.H.D.H.H.L.H.L.U.T.E.M.i +X=X@X@X*X=X@X|.|.|.*X=X*X.X|.}.|.+X+XD.t.y.3.K W $. .,.H.jXpX,X|.K.K.D.D.D.v.M.M.b.y.u.o ",
"j S L ! ~ / @.*.1.1.*.e.3.z.c.c.B.I.E.P.U.U.U.U.F.{.E.T.}.|.@X{.U.U.U.p.v.:X,XyX4X4X'.5XaXuX@XP.P.P.U.L.K.D.H.n.D.C.n.B.c.c.&Xo ",
"N.s.M.B.B.t.t.i.e.e.e.t.B.D.I.I.Y.U.U.U.I.I.].].U.].U.T.U.c.b.+X=X=X@X|.}.E.E.R.E.E.E.E.E.E.L.P.R.E.U.L.D.D.D.v.D.H.D.B.e.! w o ",
"`. X.X:X:X>X4X,X4X4X,X,X4X1X1X=X@X|.}.|.|.|.*X@X@X=X:X:X2X7X>X|.@X@X.X{.h.w.q.&.h f E ~ ] $.@.@.@.O.$.$.O.] ^ I Y I P P ) [ w o ",
"M S L L L W l %.%.*.#.*.&.| &.&.$.o.o.O.] ] ] O.O.+.+.%.%.%.#.@.} } } } ] ] @.i.1.9 *.*.@.$.| } ] ! ! ' ] } } ] ] } ] ] [ ) M o ",
"  + + + $ $ $ * * $ * $ $ $ % % * % * * * * * % # - - - ; : : & @ - * # + * - - - * - * # + + + $ + % % + % @ @ + + + o o o o o ",
"NXCXCXZXZXCXZXSXSXZXZXSXSXSXSXSXSXSXSXZXZXSXSXSXDXDXDXDXDXDXDX9.* FXDXDXDXDXDXDXDXDXDXDXDXDXDXSXSXSXSXSXSXSXZXZXSXZXZXZXZXBXG.o ",
"- - d ^ *.r.i.y.y.s.c.p.I.L.K.D.Z.K.U.P.U.Y.U.Y.U.U.U.U.U.U.U.U.I.I.I.T. X X{.E.T.}.}.U.I.P.P.L.K.I.B.D.D.D.D.v.b.; $ c.x.6.@.o ",
"3X=X>X-X-X-X=X:X>X:X,X:X1X=X@X+X}.T.I.I.I.I.P.D.Y.U.I.U.U.U.U.U.U.U.U.{.{.{.T.T.T.U.U.U.U.I.I.L.D.D.K.K.K.H.B.B.n.; * 6.6.4.*.o ",
"+ E 3.6.6.x.v.D.D.K.I.D.J.J.H.D.D.D.n.5.#.O./ ! ! } } O.*.t.s.H.].T.U.U.].{.K.U.}.=X@XE.+X@X|.}.E.{.{.{.}.}.L.i.e.O./ U J l u o ",
"iXz.z.x.b.c.c.x.b.b.v.s.p.x.x.z.k.6.=.3.M.B.H.].U.U.].U.U.H.D.D.D.D.D.K.K.L.L.U.L.v.x.p.y.5.#.@.O.$.| &.w.f._.oX2XyXiXiXhXiX`.% ",
"a 3.4.3.r.y.c.c.b.b.v.b.b.v.n.n.n.C.@.D.D.D.D.D.5.D.D.H.H.C.B.B.D.D.D.D.L.F.D.D.D.2.2.E.7X1X}.U.H.n.n.J.3.x.x.x.x.x.x.y.3./ w   ",
"o + - : - * * = * * - - 1 8 9 f R 3.U.D.K.D.D.D.D.C.B.D.} C.n.v.J.D.C.C.D.D./ -.I.F.D.) D.v.v.v.v.v.x.t.y.y.x.x.z.z.y.x.y.-.O.o ",
"XXG.U.}.I.K.n.D.I.U.I.I.U.].U.I.v.v.n.D.D.D.B.n.n.n.v.D.B.v.v.v.v.D.v.y.v.}.K.K.K.K.x.b.b.v.v.b.t.O.x.y.x.x.y.p.y.1.k e.5.+.*.O ",
"XX*.6.*.>.* k.+Xv.c.y.y.y.r.r.e.*.! H z g u w u f f i i y ] e.B.K.I.L.n.b.v.D.D.D.C.D.c.c.x.x.c.x.z.y.y.y.y.y.6.%.x gX$ e.O.$.o ",
"XX*.*.*.< 8 4.3.r.z.c.{..X&X=X.XN.G.tXhXlXvXMXMXzXzXdX2X{.J.B.B.n.v.r.*.@.} ] / ^ / ] ~ / %.3.r.y.y.y.r.r.r.r.3.^ > e - 2...) o ",
"B M J J I I L I I I I I I P g   5.#...+.*.*.*.*.@.} O.$.@.%.%.O.O.O.$.$.| &. .1.) | | | } | &.*.L L I J H ! W U U v w L H v >.. ",
"x B B T T T I P P J T T ) T @ c k M P P I E ) ' [ [ ) E P [ ` ) ` [ ` ) ` ' ` P ) ) ) ) _ _ ) P P I P P m M J P P c m m c c = o ",
"a V n n b N V b b n n n V X X :.C n n b n n x a e o o a n C C C C C V N n n N C C C N N N n b b b x b a x c b c c b n b q q - . ",
" Xq.u.u.u.f.h.s.f.f.u.a.h.lX^.u.a.s.h.M.M.N.N.f.a.w.. `.q.q.a.f.M.M.N.N.N.s.s.h.h.h.N.h.u.h.u.q.1.@.@.&.&.&.$.} ^ ' ' E E E m . ",
"_.O.%.%.O.@.%.%.%.%.*.q.e.3.-.3.1.e.j *.e.e.t.&.q.| . f.I.v.p.r.r.r.r.r.y.y.r.6.5.3.e.6.6.b.Z.K.Z.I.R.L.K.P.I.K.K.I.I.I.D.v.q.o ",
"_.%.*.*.*.=.=.*.-.#.%.+...U U Q / o.~ ~ O.@./ wX$ % . |.} &.e.e.3.3.3.3.3.3.3.-.-.-.#.+.3.c.4.4.4.3.3.3.3.3.-.=.-.=.#.+.X...E o ",
"v L Y o.%.%.+.%.%.*.*.%.#.-.=.2.4.4.4.4.r.r.t.f.`.] . } p.c.v.n.H.D.n.b.b.c.t.r.t.*.D [.K.y.r.3.1.e.e.3.*.*.@.O.@.@.$.] ` ! M . ",
"u.@.*.*.*.3.e.3.*.@.O.O.@.! U Q ~ ~ ~ o.] ! ` P g 3   K 1.$.} ] ] } O.] ! L L L J S -.Q.0 3.=.=.=.#.#.%.@.O.O.O.O./ ~ U L l j . ",
"d.%.%.*.=.-.;.6.z.c.b.B.K.I.v.M.B.].[. X}.|.:XtXoX_   4.=X{.T.Y.{.}.Y.I.m.b.z.6.x.} } e q E P J I ) I M g u f k H I ! ] %.@.B . ",
"Z l l H L L Y ~ ~ ~ ! ! ~ ~ ~ ~ ....o.O.+.%.O.J v 7   l.8 8 @.O.O.O.O.%.*.*.*.@.h @.@.e.e.] o...~ ! ! $.@.%.o.] / / / ~ ! Y N . "
};
