/* XPM */
static char *b94094688f4042ffebc8aabebfc1b237V882kB9rvXtmS0aK[] = {
/* columns rows colors chars-per-pixel */
"64 64 256 2 ",
"   c #0D190E",
".  c #2A1E12",
"X  c #1A391C",
"o  c #0E2A10",
"O  c #2D3119",
"+  c #160F30",
"@  c #241A39",
"#  c #241629",
"$  c #1B2E26",
"%  c #2B2D2D",
"&  c #4A3B27",
"*  c #184918",
"=  c #265E07",
"-  c #2C5C14",
";  c #25640A",
":  c #2A650C",
">  c #2C6A0D",
",  c #266306",
"<  c #326C0E",
"1  c #2D6B13",
"2  c #2A6813",
"3  c #326C14",
"4  c #346E1A",
"5  c #386819",
"6  c #347215",
"7  c #3A7416",
"8  c #35731A",
"9  c #3A751C",
"0  c #3D7A1C",
"q  c #397917",
"w  c #2F7213",
"e  c #264826",
"r  c #2A582B",
"t  c #305234",
"y  c #3B7521",
"u  c #3E7A23",
"i  c #3A7625",
"p  c #386838",
"a  c #31682C",
"s  c #174C24",
"d  c #417B1D",
"f  c #41761C",
"g  c #427C23",
"h  c #447D29",
"j  c #48792B",
"k  c #4A7C33",
"l  c #537D3C",
"z  c #446C30",
"x  c #5F5A34",
"c  c #1A0D47",
"v  c #26174A",
"b  c #2D1954",
"n  c #2B2643",
"m  c #382A57",
"M  c #342D4F",
"N  c #391777",
"B  c #2D126E",
"V  c #3A2C6E",
"C  c #463452",
"Z  c #441B7C",
"A  c #462877",
"S  c #483672",
"D  c #3B7543",
"F  c #3D574D",
"G  c #514F51",
"H  c #675553",
"J  c #456945",
"K  c #4A7847",
"L  c #5A7759",
"P  c #577749",
"I  c #6C6E54",
"U  c #544971",
"Y  c #696D6D",
"T  c #665672",
"R  c #807449",
"E  c #3D812D",
"W  c #43821D",
"Q  c #458225",
"!  c #4A8426",
"~  c #4C8925",
"^  c #45832A",
"/  c #4B852C",
"(  c #4D8A2C",
")  c #47882A",
"_  c #528B2D",
"`  c #52892A",
"'  c #4C8531",
"]  c #4D8A32",
"[  c #498635",
"{  c #528535",
"}  c #528C33",
"|  c #54843B",
" . c #538C39",
".. c #59893A",
"X. c #549234",
"o. c #55923A",
"O. c #5B943A",
"+. c #5C9A3C",
"@. c #5A9436",
"#. c #50912F",
"$. c #629B3D",
"%. c #62A13C",
"&. c #598745",
"*. c #4D964B",
"=. c #5E9842",
"-. c #528A54",
";. c #648B4A",
":. c #629E43",
">. c #649748",
",. c #6A8958",
"<. c #6C9456",
"1. c #719559",
"2. c #64A345",
"3. c #6BA54B",
"4. c #6DAA4D",
"5. c #68A548",
"6. c #72AA4D",
"7. c #6EA952",
"8. c #73AD52",
"9. c #77A75B",
"0. c #7BB55A",
"q. c #78B556",
"w. c #76B34E",
"e. c #7A9768",
"r. c #6E916A",
"t. c #5AA264",
"y. c #76AF6D",
"u. c #5C9F5B",
"i. c #77C972",
"p. c #7FC05C",
"a. c #3F8956",
"s. c #968D3A",
"d. c #8B8551",
"f. c #82BD5C",
"g. c #839C76",
"h. c #928E71",
"j. c #84BA66",
"k. c #8AA479",
"l. c #8DB876",
"z. c #B3AC70",
"x. c #ADA154",
"c. c #C5BC64",
"v. c #8BC46C",
"b. c #89C668",
"n. c #93C874",
"m. c #8FCD71",
"M. c #D1CB75",
"N. c #E1D778",
"B. c #E6DC65",
"V. c #381C83",
"C. c #3D2787",
"Z. c #3F308A",
"A. c #4A2988",
"S. c #532A8B",
"D. c #493488",
"F. c #462B93",
"G. c #4D3895",
"H. c #593797",
"J. c #53328D",
"K. c #633999",
"L. c #62398C",
"P. c #543BA4",
"I. c #4B34A0",
"U. c #663EA3",
"Y. c #491E83",
"T. c #59459B",
"R. c #574989",
"E. c #684699",
"W. c #704F91",
"Q. c #77728B",
"!. c #5A44A7",
"~. c #5F52AA",
"^. c #6B43A3",
"/. c #6748A7",
"(. c #774BAA",
"). c #6A54A9",
"_. c #7756AC",
"`. c #664CB4",
"'. c #734DB1",
"]. c #6B56B8",
"[. c #7856B6",
"{. c #7664B1",
"}. c #775BC4",
"|. c #6F59C5",
" X c #7A64CB",
".X c #7A68D2",
"XX c #845ABB",
"oX c #8663BA",
"OX c #8A70B6",
"+X c #81788B",
"@X c #875CC4",
"#X c #8866C7",
"$X c #956AC9",
"%X c #9773CC",
"&X c #9A75D5",
"*X c #8B6DD1",
"=X c #A478D9",
"-X c #A06FCB",
";X c #9B7DE2",
":X c #A97FE3",
">X c #7F9383",
",X c #7BCF81",
"<X c #889887",
"1X c #8D8C91",
"2X c #94A889",
"3X c #9AB68A",
"4X c #99A798",
"5X c #90B18B",
"6X c #A5B898",
"7X c #ABAC91",
"8X c #9995A9",
"9X c #A29BA8",
"0X c #9DAAA1",
"qX c #ABB6A9",
"wX c #A9A6B2",
"eX c #B7BAB6",
"rX c #AFAEAA",
"tX c #A49D95",
"yX c #94CE82",
"uX c #A8C597",
"iX c #B0C29C",
"pX c #8DEC87",
"aX c #B6C7A9",
"sX c #BAC8B7",
"dX c #B8CEAD",
"fX c #C4D5B7",
"gX c #CACEB5",
"hX c #E0DC99",
"jX c #9A86D0",
"kX c #B8B8C5",
"lX c #A787E1",
"zX c #B192EC",
"xX c #A58AE4",
"cX c #C9CAC7",
"vX c #CAD7C6",
"bX c #D6D8CC",
"nX c #D8D8D4",
"mX c #CCCBD4",
"MX c #E3DDD4",
"NX c #E3DCCE",
"BX c #D8E5C8",
"VX c #DBE5D6",
"CX c #CEE6C4",
"ZX c #E5E5D7",
"AX c #E8F5DD",
"SX c #E2E1CE",
"DX c #E8E9E6",
"FX c #ECF4E7",
"GX c #F5F9EB",
"HX c #F5FBF3",
"JX c #FAFCF4",
"KX c #FCFCFB",
"LX c #F6F7F7",
"PX c #EDEFF3",
"IX c #E1DCE4",
"UX c #C8B9A5",
/* pixels */
"6 7.8 ' } 8.( ! @.( / } 3 o.} g @.> } } 8.d ( ( } ' ] 8 } { ' ( : _ ( %.7 ] } _ ` $.d ` / ] ( > @.7 ( 7 ] ]  .( j.! _ _ _ ` 9 :.",
"Q ) 2.^ > _ ) 6 ~ W / n.: b.g 8 _  .) 3 / ( 9 ( h / n.> 8.7 < } } ( 6 @.] ) ) g ( 0.7 $.3 3 ^ ( X.d 2.( ^ ' g / @.g _ < < @.h o.",
"8 / O., :.> ) ^ 0 q.( 5.! +.} g / } < $.7 Q Q w b./ 3.! 2.( _ ! / 1 :.' h ' 1 m.) 2.( 4._ ( / ^ q 8.2.0 ' 1 0.~ ` #.w.~ ( @.( ^ ",
"( Q 0 :._ 0 ' u 8 ( ^ 0 ( 7 X.g / g $._ 9 ] 8 ; } / q ( q %.7 ( 9 :.] y  .1 ; ) ] 0 Q u 2.7 } j 3.) 8 ] 4 : _ ` d W W %.6 ( / 4.",
"Q 5.8 } 6 ( 3 ^ / q.u ( Q _ O.6 :.9 } 9 ' 8 6 Q 0.d ( u ( 8.; o.8 #.u &.g : Q f.0 } 3 } 0.> } 4 ] h X.^ : Q w.7 / ; ( q.1 u g ^ ",
"Q 8.Q 9 } ^ v./ / b.v.o.X.Q o.9 &.| 5 l &.y.y { yXn...l k <.- &.| 5 k l ;.- { n.l.1.z 5 9.2 ..{ g 9 ^ ] ; Q b.O.0.: 6 4.; ) ) / ",
"( _ ( : ) v.^ h ( 0 ] v.] : k &.,.3XiXAXGXFX2X3XGXGXAXfXBXBXBXBXBXVXBXBXBXBXBXfXdXaXaXiX3X3Xk.k.<.z k 8 6 ( 6 ^ &.k  .3 ] 9 / / ",
") 8 v.Q 1 } : ) 4.} h u 3 2 1.3XfXVXDXLXJXVXL Y FXJXLXbXnXSXSXSXMXMXZXZXNXMXbXbXVXAXFXFXAXAXZXAXBXiX<.| Q m.^ :.[ k { } 1 ^ =./ ",
"( =.} ^ ) 1 : =.9  .u y o.>.5XdXGXHXLXHXVXt t t G DXJXbXbXSXSXSXSXbXMXMXMXbXeXDXKXLXLXLXLXJXHXGXHXGXdXe.n.g ] 3./ h n.( o.2.8 3 ",
"] ^ ' ] ] : n.3 g / >.9 5 <.aXFXHXDXqX4Xk.r a r $ DXKXbXbXSXSXNXSXSXNXNXnXcXDXKXLXrX4X4X4X4X4X4XnXHXFXdX1.- / X.u ] 5.d ( u u y ",
"1 ] g g i  .] 7 O.< ' k | <.fXHXFXsXF X * *.*.p $ IXKXDXbXNXMXZXMXZXZXbXcXDXJXGXvXL e * * X X X 4XFXHXFXfX;.j ( 8 ] 0 / h h  .y ",
"8 7.=.u ^ y 6 0 6.0.O.k k ,.vXJXqX% r D *.pX,X-.X DXKXJXZXMXMXMXMXbXbXeXDXLXLXqXt ,.y.,Xy.5Xr.p e L FXHXAXdXj.9 8.1 ( b.g +.{ 5 ",
") =.) 7 ' ^ ^ ^ / O./ ' j l.BXKX4Xo r *.i.pXpXi.p <XvXHXJXZXnXMXZXbXgXFXKXPX4Xr.-.-.K J J J K t.K K <XZXGX6X{ X.( ; u 3 } 3.} g ",
"^ 3 / o.^ ^ Q 0.' 9 n.3 } ;.fXKXqXt r *.i.pXpXi.u.r e.vXHXLXDXbXbXcXZXHXPXsXJ D y.-.p t     e y.t.K O cXHXfXz 5.Q : 3.3 / 3 8.< ",
"7 / f } ^ ] X./ 8./ / ] } j dXHXFXqXe a *.i.pXpXm.*.p J GXJXKXZXZXFXKXKXvXJ -.y.y.r g.sX$   o X -.-.O cXHXfX&.g / d 5.} m.Q W 4.",
"6 4.7 }  .8.) Q $._ ( ( > >.g.VXJXFXvXL * E t.i.pXpXl.e.L sXHXHXHXKXPX1XL r.y.-.r 6X2XL r.e.L o p -.% cXKXdX&.( b.X.' _ X.#.6 +.",
"g ] +.u u / / g g ! ~ b.7 9.;.e.FXHXHX4XJ t K t.i.i.i.y.r g.vXbXmXnXDXG s y.y.D o 2Xr.e ,.r.L o p -.% cXHXfXk ( X.! 6.7 0 o.Q  .",
"g Q X., 0.1  .9 f w.#.@.8 o...;.g.bXKXPXnXt X e p p *.y.e.J X $ $ Y vXJ r i.-.t $ X t K * o o o K ,.$ vXJXaX9.( ( _ 6._ ( ^ } g ",
"Q } 6 v.O.( / 9 9 ( ) 8 / 9 :.j 1.k.bXHXLXsXeX<XX o X e e t J ,.-.-.L -.t.t.r L 0Xt t -.&.a * ,.-.J $ cXLXaX&.( / ! ~ 0.> ( g :.",
"/ 4.3 / 3 X.1 ^ } j.h ../ } O.4 ;.P <XFXLXLXKXVX1X1X<X<X>X,.J ,.t.u.-.t.t.-.r.sXFX0XL z 9.K r r.J J <XDXGX6Xj.8 ( , _ w.1 6 u ( ",
"Q 8./ 3 } Q b.Q / j.j.} ..h o.8 o.;.,.4XeXnXPXLXKXKXPXFXVX<X    a t.,XD t % eXDXDXPX<Xt J J p t e L FXKXFX3Xl.+.p.; 3 3.> ^ ( g ",
"Q } } : ] m.u Q X.g  .v.{ 1 ^ ^ 6 { z 6X0XeXPXKXKXKXwXG G Y T o p *.a.s $ @ M G G nXDXsXt o o o e.VXHXFXaX1.9 Q X.^  .4 ^ 7 ( ( ",
"/ 0 j./ 4 ] > ) 5./ f ( 1 4 o.u 0 v.,.6XbXPXKXDX8X9XQ.U b U T   t D t F U b A C C 1X9X9X1X<X>X<XcXHXAXaX;.n.^ +.} h _ / > ( X.h ",
"/ :.] ' ' 3 ; 4.0 ( 2.g ] } h { 9.1.3XfXGXLXKXkXn n R.{.D.R.U + % e % Q.{.A E._.W.m @ C nXPXLXLXLXHXaXk.9.9 _ 5.( 7 j.} X.5.9 3 ",
"/ Q ( )  .: m.9 9 ^ X.0 h  .g ..<.6XsXHXHXZXG M 8XjX{.D.lX).b v + C 8XR.A.[.%XlXzXOXW.S @ +XPXLXKXFXaX,.&.= h  .6 } 7.y  .y / / ",
": ( g g h }  .8 3.: Q / { j j P 6XfXFXKXDX1XM b R.)._.#XlX).A ).).OXjXS S.oXlXzXlX/.A.A C T 1X1XcXHXAXaXe.| j h 8 ( 9 [ i h ' 3 ",
"> 8.=.g h 8 9 y 8.f.} Q j | k.3XqXnXJXDXkXn m D.G.C.[.lX=X/.J.&XzXzX%XA.A $XzXlXXXH.A.J.U M % G tXMXHXFXfXuXj.d 0.1 X.v.9 o.] 1 ",
"} +.( 3 } / ' h g @.} ' k uXaXfXgXFXLXQ.@ m OXzXxXD.T.*X$X^.J.#X&XlX$XH.H.lXlX[.Y.'.#XoXm # x hXI I ZXJXAXuX.._ ^ ; Q > _ 5.] h ",
"! > ) O.] ^ u 0.} 7 v.5 1.3XvXLXKXKXLXQ.+ {.%XlX=XH.).%XH.K.'.#X[.[.lX&X*X/.[.XX'.#X%XOXn H x.N.M.h.h.ZXGXfX5 4.^ 1 3.3 ( 7 8.> ",
"7 _ 9 } h :.^ ! 5.^ { 1.6XfXDXKXDXeXeXQ.S jXoX[.$X[.[.{.H./.#X'.H.^.*XlX&XH.U.(.$X=X$XW.C H c.N.c.z.I nXGXfX..0 ^ u 3._ m.~ q 8.",
"f 3.3  .} +.#.9 +...l 3XfXFXKXLXrX% % Q.jX#XG.J.@X&X[.G.].]./.J.U./.H.[.#XXXH.^.$X%X^.L.W.C x UXR I nXFXHXdX{ / 0.8.! ` _ 4.0 :.",
"0 } } 8 ( ( ( ^ g k e.fXGXJXZXI h.h.% n S {.`.H.A.J.!.].xX].H.'.&X&X[.J.H.#X@X(.S.S.K.(._.S % & . H DXKXLXdXk ( @.` f.W / O.! _ ",
"^ h } , v.: ] 8 u 9.g.ZXJXNX7Xx x.M.I % v E.[.'.A.J.].*X*X'.^.#X$X#X/.N A.@X$X@XK.K.K.K.E.L.S C n U kXPXLXdX9._ / ` 5.#.( 9 } ! ",
"^ ) u v.} ] ^ u 8 | e.ZXGXtXx z.M.N.UXY v N ^.[.[.#X;XzXA._.-X%X^.N B B S.@X-X=X=X@XK.Y.Z ^.$XOXW.m @ mXKXdX..( ^ _ ~ w.w ] f O.",
"^ 4.3 / 6 ( 3 Q ( j.e.BXJXMXrXx s.c.H T W.N ^.XXoX*XlXzXA._.zX:X#XH.N H.'.$X=X$X&X^.K.'.[.[._.J.A v # vXHXfXj.7  .= ~ q.2 4 g o.",
"Q 4.^ > ] Q b.Q ~ j.yXk.ZXJXZXh.d.R C W.oXZ ^._./.oX%XjX/._.#X&X&X'.H.[.oX[.'.'.'./.#X&X@X'.^.J.B c # cXHXfXl.$.j.: 7 :.2 ^ ] q ",
"0 X.] 6 } j.0 Q #.! ;.k.2XVXJXJXtX% W.oX#XS.E.L.A.^.XX#X#XE.A.XX@X$X#X$X_.A Z N N [.;X;X[.H.F.'.A.b @ cXHXfXz  ./ h } g ' 8 =.Q ",
"! X.5.^ 0 / : / 2.( k l.,.4XGXKX9X@ E.K.K.XXK.K._.H.^.XX#XH.A.'.#X$X-X^.K.^.^.J.N '.#X}.A.H.].#X!.V n mXHXCXk } o.) j ' : 5./ 8 ",
"! O. .' } 3 = 0.^ ] v.k <.k.VXKX9X# A K.^.^.^.(.$X(.K.J.*X].P.J.XX=X=X(.K.K.'.H.N ).}.'.N J.}. X/.A @ mXHXiX| 5.} 3 0.} ] 5.8 3 ",
"Q Q [ [  .: v.9 9 ' ' k &.k.VXKX9X+ m (.XXS.XX$X&X&XU.N *X#XU.V.(.=X=X$X'.A.^.H.A./.[.].N G.|.}.!.S @ mXHX3Xj } 3 ] 3.3 ] 8 ] ( ",
", ' y ^ / '  .8 7.1 ^ h ;.g.BXKXwX@ U _.XXY.^.XXXX$XU.Z &X$X'.N '.$XXXJ.Z B N J.).J.T.`.F.F.`.!.R.V n mXGX3Xj Q 8 ) 9 { / u ) 6 ",
": 8.=.^ j 4 4 u 7.j./ ^ l e.vXKXnX1XS W.#X(.K.S.J.K.(.(.$XoX^.N (.XXH.H.^.H.C.G.`.D.G.).!.I.I.G.V U wXDXAXuXj.0 0.3 } v.g o.) 1 ",
"X.o.' 8 ] } ) g h X._ } k l.aXPXKXmXC W.OX$XK.Z B A.(.-X$XXXK.J././.J.`.#X#XP.I.P.C.V T.].!.C.V v U DXKXCX9.} ~ Q : _ , } 3.} g ",
"0 8 ) 7.) u h 8._ d v.q | <.g.cXLXcXC U _.$XXXH.N _.#X$X(.K.H.[.P.F.`. X*X*X|.P.V.B c c R.).G.b + G PXHX3X&.q 2.! 8 6.d Q d 2.0 ",
"0 X.4 ' h 0.y } $.~ ` / h &.e.aXJXDXcXQ.S [.@X}.U.H.H.J.H.^.#X#XP.F.|.*X X].P.G.S v Y 9XC m V + +XmXLXVXe.{ +.0 d 7 3./ m.~ 0 8.",
"Q 7.=  .( @.} 3 +.! < } 7 | &.k.VXJXKX+Xc ).#X*X XP.A.V.N /.*X#XG.F.].`.!.!.G.S C G 7XgXI C @ + 9XKXHXdX1.{ h f q.v.^ ! ~ q.d 3.",
"9 } X.3 } ( / } 0 Q } q._ { ;.e.2XDXLXQ.n R.{..X.X}.].!.B H.}.}.P.F.`.F.C.V U C O z.hXhXhXh..   0XHXBX2X&.h / _ O.( v._ ( @.! / ",
") u o.= v.: o.8 g 8.^ _ 3 $.{ ;.<XvXKXDXkXm R.)..X.X!.F.B N P.}.].P.F.!./.L.m H z.N.N.hXhXhXh.. 4XFXaX;.k 3 3.} Q _ 3.} / 0 / ! ",
"( ( 7 v.} ( g g 8 } / > / 6 +.j e.qXGXKXDXT U R.{.~.T.Z.V.B C.]. X`.F.P./.H.b H M.N.B.B.B.hX7XH gXGXuX;.4 , X.! / / ! q.3 / Q O.",
"Q 4.8 h 9 ( 3 ^ ( 0./ } / ( +.y ;.e.qXFXKXPXQ.M c c D.].|.P.C.!. X.X|.F.V.B b # . s.B.B.c.s.d.AXHXAX3X&.: ] 0.q  .= _ 8.: 9 g } ",
"/ 4./ : } h :.^ Q f.f.3.} 9 } 3 >.<.,.6XDXLXIXwX+ + V T.`.!.P.F.`.|.|.`.!.!.D.S % & s.c.x h.NXJXGXaXl...8 ) j.O.7.7 f X.1 h ) h ",
"6 } ( / ] 8.8 ^ _ X.! @.^ : ( g 9 o.;.e.aXFXKXIX1X1XW.V D.G.G.C.F.G.G.!.!.T.Z.b @ . d.c.O h.JXLXvXg.&./ : ] Q :.7 Q } ^ ' y 7.9 ",
"/ 2.) ) ^ ^ ; ( +.} f v.; } 0.6 b.} | <.r.6XFXLXKXKX9XM m S S S b v v V S S m M n % d.z.& 1XKXVX2Xl { } 6 q.Q / =.h u Q ; 0.u 3 ",
"/ :.] ) ] 1 ; 0.h / v.^ ) } ^ ] 4./  .&.&.g.aXvXZXKXLXLXPX8Xv v @ @ v n M U mXPXLXFXh.I bXGXHXfX,.k ..v.X.< / 4.=.4 8.] ] 5.u 1 ",
"/ g } ) ] 3 m.8 g ^ } ^ 0 X.h ' 8 o.' ' j j.e.g.4XbXFXJXKXnXwXwX9XwXwXwXwXwXDXKXKXHXgXeXFXHXVX5X&.../ Q / 3 0 } 1  .5.4 ] 8 ' ] ",
"= } 8 h ^ ) Q 3 8.3 / g } g y 9 ) u h ' { { ..e.e.k.g.aXHXHXHXJXHXHXLXKXHXKXKXDXeXGXJXGXHXZX6X&.i  .4._ _ _ g ^ y [ 8 } } h ^ 1 ",
"8 7.o./ ) 8 u u 2.q.( ^ g O.3.3 5.} Q h 9 j 5 9.j.>.1.r.iXfXvXvXbXbXbXbXBXbXvXqXh.6XdXfXfX3X9.X.g o.q _ , 0.q.0 0.:  .8.f $./ 7 ",
"] } X.9 ^ } ' 9 / } / ^ h 3.o.} +.} 0 / ' ' 9 X.} { | P g.,.,.e.r.r.e.r.r.r.g.g.e.,.P e.P ;.$._ 0 2.> ! f } / ( y ; 3.q } @.( 7 ",
"8 ) 9 b.) 8 ) :._ / m.h ' ] ) u ' h v.Q u 9 q._ _ n.g { ;...j { k n.j k 5 l.| { l.k k 3./ Q ] Q 4.Q ] = b.( ( O.] ^ 5./ f Q _ _ ",
"9 } 8 ] h v.> O.+./ _ / Q } / 5.o.: ( 0 b.7 X.( } }  .g @._ b._ ; Q 0 4.f @.^ ( _ ! 7 2.( b.] ; O.< ] h } / X.0 y 4 7.` m.X.6 8.",
"( 2.1 } ) X.X.> O.} 6 ( < _ 9 } j.= ' ) @.( 9 } ' 7 _ f ` d X.b.3 ^ / 2.} h ] ' 7 $.5.! ^ ] v.8 @._ 0.) / ) / Q 0.b.! ! ! f.0 2.",
"6 } } 3 } ] ( X.0 g } q._ ( } h  ./ 8 } / ( ] h h ] w.( 5.( / ] ' 9 ^ +.] } h ^ ! 5.~ b.( ] ] } f 8 5.] ] ^ / Q O.( v._ _ _ } / ",
"Q Q O., v.> } 3 q 8.Q / 8 :.) ) g  ., b.6 X.8 3 q.' ) 7 %.! / u ] 3 0.0 X.h 1 0. .Q Q 5./ / 7 / f +.^ ] ^ > +.X.Q _ 2.` ! d ! ( ",
"( X.0 j.) ( u h 0 _ Q 8 ^ 9 +.8 =.9 f.~ ] h 8 : ] ^ 8 Q W w.: :.y 0.! ! Q > >  .} u g ~ 0.> :.9 :._ h ' 1 ; X.W / Q ! w.< +./ ) "
};
