/* XPM */
static char *bf6e9386fa1445f8fb46bae838320e18WFt6JvyEIAygdRVg[] = {
/* columns rows colors chars-per-pixel */
"64 64 250 2 ",
"   c #131519",
".  c #0E0B17",
"X  c #1A2519",
"o  c #1D3E13",
"O  c #243C1C",
"+  c #1A0827",
"@  c #1A1428",
"#  c #1E1331",
"$  c #21142C",
"%  c #260E3A",
"&  c #29163A",
"*  c #27342A",
"=  c #2D2F34",
"-  c #201F1B",
";  c #1E4515",
":  c #25481A",
">  c #2E551B",
",  c #2D6B15",
"<  c #2E6B19",
"1  c #326D18",
"2  c #35731C",
"3  c #3A741E",
"4  c #3C7A1D",
"5  c #377317",
"6  c #2A6D15",
"7  c #2A4822",
"8  c #334B27",
"9  c #35562A",
"0  c #3C5735",
"q  c #354B32",
"w  c #367421",
"e  c #3C7623",
"r  c #3D7A24",
"t  c #3E7C2A",
"y  c #3D762A",
"u  c #3C6A30",
"i  c #41791E",
"p  c #42573B",
"a  c #444F3F",
"s  c #427C25",
"d  c #437D2A",
"f  c #467A29",
"g  c #45663A",
"h  c #497A35",
"j  c #51783A",
"k  c #2D1745",
"l  c #331B4C",
"z  c #341A49",
"x  c #3C1D54",
"c  c #391A58",
"v  c #3B244D",
"b  c #3A284C",
"n  c #3C2254",
"m  c #3C2658",
"M  c #363147",
"N  c #3F1B60",
"B  c #1D0A41",
"V  c #43235B",
"C  c #442A5C",
"Z  c #432955",
"A  c #49365B",
"S  c #43334C",
"D  c #431E61",
"F  c #432463",
"G  c #452A63",
"H  c #4A2B65",
"J  c #4B2C6B",
"K  c #492567",
"L  c #4E336B",
"P  c #4B3564",
"I  c #53356C",
"U  c #543969",
"Y  c #4F2D71",
"T  c #522E75",
"R  c #532E7A",
"E  c #582E7A",
"W  c #533373",
"Q  c #5C3C7B",
"!  c #583877",
"~  c #532E6B",
"^  c #613C7C",
"/  c #401D5D",
"(  c #3B4940",
")  c #454849",
"_  c #4A5946",
"`  c #515356",
"'  c #496744",
"]  c #4B7945",
"[  c #567948",
"{  c #576F4D",
"}  c #617C52",
"|  c #554669",
" . c #5B4274",
".. c #5D437B",
"X. c #5C4B74",
"o. c #524B65",
"O. c #64487B",
"+. c #63567A",
"@. c #5D7168",
"#. c #3E8123",
"$. c #458225",
"%. c #498326",
"&. c #45822B",
"*. c #4A852C",
"=. c #4D8A2C",
"-. c #4C8A27",
";. c #518C2D",
":. c #51882A",
">. c #54922E",
",. c #5A952D",
"<. c #468331",
"1. c #4B8532",
"2. c #4D8A32",
"3. c #4D853B",
"4. c #528434",
"5. c #538C32",
"6. c #53843B",
"7. c #548C3A",
"8. c #5A8A39",
"9. c #559233",
"0. c #5A9435",
"q. c #5D9A36",
"w. c #56933B",
"e. c #5B943A",
"r. c #5D9A3A",
"t. c #579834",
"y. c #4F9130",
"u. c #629C3C",
"i. c #619B36",
"p. c #65A13D",
"a. c #6AA53D",
"s. c #4C8245",
"d. c #598547",
"f. c #5C9642",
"g. c #5E8854",
"h. c #63894D",
"j. c #669A47",
"k. c #678855",
"l. c #709854",
"z. c #64A243",
"x. c #6AA544",
"c. c #6DAA4B",
"v. c #6BA846",
"b. c #72AC4A",
"n. c #74B14B",
"m. c #77B449",
"M. c #7AB553",
"N. c #7AB854",
"B. c #74A854",
"V. c #759868",
"C. c #719267",
"Z. c #7AA372",
"A. c #81BD59",
"S. c #80BB4D",
"D. c #84AA77",
"F. c #86C45B",
"G. c #8CC663",
"H. c #582D84",
"J. c #5A3484",
"K. c #633D85",
"L. c #634582",
"P. c #664B82",
"I. c #694B83",
"U. c #6A448B",
"Y. c #6B4C8C",
"T. c #684689",
"R. c #714E8D",
"E. c #6D5387",
"W. c #73578C",
"Q. c #6C4B92",
"!. c #6E4693",
"~. c #724D94",
"^. c #734D9A",
"/. c #6E5195",
"(. c #735393",
"). c #74539A",
"_. c #7B549C",
"`. c #7B5B9B",
"'. c #785996",
"]. c #7E6699",
"[. c #7B54A2",
"{. c #7E5BA3",
"}. c #7E5BA9",
"|. c #774BA2",
" X c #6D5195",
".X c #85669C",
"XX c #825CA4",
"oX c #845CAB",
"OX c #855AAA",
"+X c #8B5DB4",
"@X c #875CB5",
"#X c #905EBC",
"$X c #8363A5",
"%X c #8562AB",
"&X c #8A63AC",
"*X c #8B6AAA",
"=X c #8C64B4",
"-X c #8D6CB3",
";X c #8D63BA",
":X c #8B68B7",
">X c #946BBB",
",X c #9468B8",
"<X c #9775B9",
"1X c #8F73AF",
"2X c #966CC4",
"3X c #9A6CC5",
"4X c #9A6CCC",
"5X c #9668C6",
"6X c #9C73C3",
"7X c #9E73CB",
"8X c #9A77C4",
"9X c #9D71D2",
"0X c #A174CD",
"qX c #A47ACC",
"wX c #A478C8",
"eX c #A46ED4",
"rX c #A474D3",
"tX c #AA7BD5",
"yX c #AC7ADC",
"uX c #A776D9",
"iX c #B27DDD",
"pX c #A16DC9",
"aX c #AD7BE4",
"sX c #AD77E7",
"dX c #B27CE4",
"fX c #B37AEB",
"gX c #B577EB",
"hX c #B379F1",
"jX c #8DA290",
"kX c #A5CC9C",
"lX c #A1CB98",
"zX c #A884CA",
"xX c #AC84D6",
"cX c #B487DA",
"vX c #BA95DB",
"bX c #B290CF",
"nX c #BC8DE5",
"mX c #B786E7",
"MX c #BD93E4",
"NX c #BE8CF0",
"BX c #AF86E1",
"VX c #C098DB",
"CX c #C18BEB",
"ZX c #C394EC",
"AX c #C599E9",
"SX c #C798F3",
"DX c #C78FF5",
"FX c #C8A2EC",
"GX c #CCA3F2",
"HX c #D3A8F7",
/* pixels */
"e *.r s *.w.v.$.*.&.*.7.%.&.w.e 2.e &.f 2 w 2.M.=.2.&.&.q.0., 2.4 5.&.&.1.e , $.M.=.2.s r 0.v.< *.s %.&.&.5.&., e x.5.$.r 1 5.n.",
"<.<.c.q.%.r.F.M.,.5.*.;.*.d 7.*.5 %.*.r.5.e 0.F.N.i.=.&.5.5.< 2.%.4 d &.5.&., 2.F.N.z.=.e *.u., 2.*.t w r =.%., %.n.z.x.9.< f a.",
"=.c.f.1.&.=.>.u.M.w.y s %.$.$.=., &.v.r.s r =.-.r.M.f.&.s $.t e *.1 e ;.2.3 2 =.=.q.x.9.d &.&.t e &.s 2 s s 2 < &.*.=.9.5.t *.$.",
"4 u.t d 7.0.%.1.f.d < r *.e i v.r d t.=.r 5.v.$.*.f.1.e e &.w 5 c.d r =.2.t &.c.$.1.5.*.&.*.f e 1 j.7.r s &.$.$.c.*.=.5.1.&.=.s ",
"y s , s 9.9.;.d y d r f &.1.9.v.*.d t e =.j.u.5.&.y d =.5.&.&.;.c.2.d t *.w.v.z.h.k.[ g g g d.h =.a.5.d t &.9.z.v.;.e.0.<.=.a.4.",
"*.2 &.=.$.s =.*.e &.2.f &.9.q.;.=.*.3 t e.e.4 ;.5.r &.e.0.&.5.q.=.2.=.s d j.d.: 0 g.k.d.s.s.s.0 6.=.s $.*.&.7.b.s *.e.5.f 9.N.*.",
"1.2 c.w.e s *.0.e 2 *.$.d 1.&.1.8.d.e 9.w.r 3 &.0.r e *.5.f &.$.<.4.6.d.: g C.V.V.' 9 g d.[ 7 s.] u f *.;.;.$.%.< d 5.%.$.t.e.d ",
"r 2.2.e &.=.e *.<.<.*.&.s y &.s.7 o 1.2.&.$.%.5 *.<.1.&.*.3.t <.d.g 7 [ V.V.[ g j 6.3.&.&.&.f.g.' g h t t.z.=.*.%.$.%.s t &.$.7.",
"&.e 2 e 9.n.c.5.<.h <.e.2.h j.: d.9 y d 3 5.G.A.9.&.d h l.B.} * ' D.D.V.g ] h G.F.t.9.&.h j.M.j ' ] u d =.=.*.3 F.A.9.r.w.4 t.A.",
"*.&.&.&.&.;.0.2.<.d c.m.u.0.9 s.3.; h.6.d *.0.0.f.l.] : 8 k.jXlXlXZ.g h h <.f 0.0.e.2.3.O _ 0 d.C.' : 9.;.3 1.f 0.;.2.;.t < s d ",
"*.&.&.r.u.*.=.b.s &.0.5.1.1.9 g s.s.9 7 0 g g 9 8 ' C.V.V.D.kXkXD.9 6.*.s s =.=.s b.7.' ' [ C.d.{ ' > 5.9.r 2 *.=.4 0.0.e 5 0.w ",
"&.1.*.9.u.0.*.u.f 3.f h 2.7.6.g.; h h s.s.] s.] ] 9 : k.C.7 kXkXg d.*.*.&.$.-.=.s q.4.8 7 j.7.D.7 0 4.*.&.*.$.=.5.=.=.=.d $.p.%.",
"=.q.;.*.e.i.2.*.*.s &.=.5.9.;.2 5.j 9 : : : > f j 6.h 6.h.C.Z.Z.8 h.h.V.' _ k.8.:.*.7.[ p > [ O 0 : ;.&.$.=.%.=.;.9.*.>.q.5.0.;.",
"=.r.9.&.*.;.=.=.q.3 9.9.&.%.>.e *.1.q.9.3.4.:.8.h.k._ = & = ' [ = Z . I.=X-XW._ [ 8.i.j.g 8 0 0 9 s =.&.%.7.%.=.=.=.5.p.z.5.9.*.",
"%.&.=.s s $.=.9.n.$.q.t.$.d =.:.e &.&.;.*.6.C.= $ O.<XtXaXtX= ' -XpX(.4XuXyXxXI.<X) l.w.9.l.j 6.4.2.*.&.>.0.=.&.&.*.=.;.;.;.x.s ",
"b.e &.d y ;.a.>.t.s =.>.=.&.f =.3 z.&.f C.  P <X<XY.L K.7XdXM ' <X,XY.rX~.XX$XD aX=X- k.0.p.>.2.s &.s 9.p.5.&.&.1 u.0.=.;.0.x.9.",
"e.=.*.t e #.9.=.e &.s =.*.t =.i M.u.h.= V wX6XY I *XzX<XV 8XM ' -XaXF Y.oXXX&X7X;XL.X.$ S ` k.w =.e r.i.&.s 1.2 , =.2.1.*.*.>.n.",
"e 2.e s *.e.c.%.2.*.*.9.%.#.d.' } { $ &XiX{.C (.1X.XcXAX'.'.= ' W.BX8Xl k m P C c ^.Y./.rXdX1Xp s 2 =.*.f 1.&., s v.2.&.d 2 9.m.",
"&.&.z.0.*.q.N.b.>.;.*.5.%.h S bXzX% zXaX=XL _.%Xx $X/ FX$X .( ] = x U.-X,X;X/.n *XzXV 2XcXT.n b } &.r e s ;.%., &.m.p.u.9., s a.",
"=.c.p.2.1.9.u.z.c.0.r $.=.@.8XZXAXW.>XiXc [.7Xc <X=X`.AXE.$X= p A >X5X5X2XyXsX>XY.P P.tX-X_.tXzX.X{ t 2 e s e 6 *.,.5.e.w.e $.*.",
"s v.&.t 5.9.*.=.x.1.2 s 6.= ! /.FX<X^.uXH 2XiXl xXnXAXzXG qXH $X7XXXK ~.~.K 3XsX2Xv Y.nXI.;X-XJ '.].d.e y s r 4 z.*.&.;.2.1.1.s ",
"e d , s 0.0.;.1.1.y 2 &.}  .6XY.VX<XK.uXG 3XgXH `.<X`.c 4X&XXXuX).Q 6XnXMXzXH qXyXE.I nX.X}.J.,X'.1Xa f &.=.e.w.b.7.w.0.1.*.e.=.",
"*.1 5 9.5.f 5.e.h &.5.6.S 3XOXI AX<X!.aXG 2XsXuX^.O.XXuXyXV 4X>XU 9XNXZXHXHX<XY cX&Xl xXvXC :XK -X| +.[ *.9.z.p.r &.u.9.d ;.m.=.",
"2.1 v.9.e s &.=.d t 1.} `.uX^.zXMXL.3XdX2XU.rXgXfXfXgXfX&X^.uXV -XxXU.=XmXHXwXx BX>X& .XSX%X! 1X{.W..XX h.8.&.&., d *.d d 9.i.y ",
"d &.w.s =.9.2 &.1.1.1.q 8XCXSXMX-XF dXfXBXT >XsXhXfXfXsXE 2XqXL qXI -X|.BXSX6Xx NX6Xm m 7XMXzX! Q.cXW.$ M ` d.;.$.%.&.t t *.s =.",
"&.e e e 5.b.v.5.1.<.d.. <XnXnX$X+ W rXsXCXwXU.uXfXhXfXdXH 3X2XR.qXc =XaXdXyX_.Q mX2XA I.! =XnXSXZX0Xm v >XxX) f n.M.7.0.w.e 9.M.",
"1.&.d d &.9.u.=.1.h _ W.K T.A v `.&XT 0XDXmXY rXfXgXfXfXT 3X2XY.tX>XK Y._.! J.mXiX&Xx yX|.G (.-X-XL.P G 4XmXzX[ r.u.5.;.&.1 *.&.",
"=.=.f e.e.&.=.z.4._ + yXyX`.U ;XsXaXoX~.NXmXJ rXaXrXpXtX~.2XrXV 6XBXBX>X%X7XdXiX6XR.!.aXuXO.% l Z Z X.m ,X,X1Xp ;.s w.9.e 3 9.1 ",
"*.5.&.q.p.5.&.x.) U ..fXyXc =X,XD rX+X).ZXcXC Y.G W..XQ m ! uXT.E.8XcXCXCXnXiXpX_.m yXrXF 6XyXaXrX5X(.+ `.0XE.q 5.s ;.;.y s p.s ",
"*.i.;.*.9.i.1.} $X% 7XgX=XO.0XG >X2XW tXSX=X% <XvXAXAXMX<Xk -XrX! U XX-X-X*X'.W K rX4XK 7XfXfXdXfXsX3XY.G rX%X= 4.;.%.=.5.5.0.5.",
"=.q.9.$.*.9.=.) qXB iXfX^.`.xXQ C V :XSXtXC .XAXAXGXGXHXAX].% oX9X;XL.W ~ W !.>X7X_.J 7XdXyXrXrXsXfXdX2XJ =XaX| 4.=.1.u.n.p.5.*.",
"=.=.;.*.&.$.6.o.=XG aXfX[._.mXCXMXMXSXxXY.Z cXAX'.C .XGXGX<XP Q U.=X3XrXrXrX2X[.D _.6X!.N L T.T.F =XNXiXXXJ uX+.6.&.=.9.;.q.m.=.",
"A.3 $.f e 2.B.X...(.hXfXuXx -XcXZXcX6XP.m Y.NXbX).<X$XzXSX1XR dXyX^.c c N c Q 2XaXXXJ :X6XqXtXcXzXQ cXZX6Xk {.o.y r.0.%.=.t.x.>.",
"u.=.&.s y $.d.o.v ,XhXdXyXW.l P.(.Y.V !.>X(.NXzX{.K.W qXnXXXoXfXgXfXdXiXdXaXfXsX9XW >XcXAXZXnXnXFXwX(.GXwXz Z * , =.5.1.1.=.>.b.",
"s 2.e e &.t.v.) $ wXaX_.F Y.I.z + O.qXdXyXI xXnXT wXdXaX6XK xXhXfXhXhXfXaXdXgXyXH %XtXSXqXK.R 2XSXbXL HXwXZ W.* s v.2.&.f 3 9.m.",
"&.*.0.5.*.u.S.l.. zXU.XX4XyXdXwX{.c 4XsXaXK %XBX>XF '.Q.x qXgXgXaX+XT K K U.0X2XW ;XNXmXT.&X<Xc SXbXO.FX>Xz (.X &.M.r.r.5., $.a.",
"=.q.p.5.*.w.x.B.$ qXJ 4XfXmXCXDXZX-XG 0XfX0XV $XuXqXoX&XyXeX2XE Y.7XcXnXZXcX).A XX5XnXmXK 3XyX~.vXP.vXVXW.b n X 1.f.i.p.9.w f >.",
"*.v.&.d =.5.=.7.* <X!.uXfXgXfXfXZXZXXX! dX-X .+ O.}.%XXX!.K ^.iXiXmXmXZXSXGXMX! `.5XdXZX,XQ >X<X~.W.FX1Xv L ).E.g &.=.5.*.1.1.f ",
"t &., s 0.0.;.3.= 1X^.uXfXaX{.! xXSX7Xb J U I $XH z E ^.7XiXfX7XT E T Y.ZXGXSX>XC =X5XcXMX<XL.R.wXbX1X| l _.|.).o.7.5.9.2.&.1.1.",
"1.2 , t.r.*.0.B.p *XR yXfXtX!.>X_.SX0X% `.C rXsXaXH yXaXfXdX+X(.cXMXmX6X^ FXHXxX& J oX-XwXbXbXzX<X'.U Z .._.R.~.P.4.r.e.d $.b.1.",
";.1 z.9.4 t *.5.' W.J rXfX4X_.dXdXZX&X% ,XL.7XK rX_.oXfXfXpX~.ZXAX&X|.dX~ AXHXxXz '.n P P.W.(.E. .l T.R...(.v H E.h =.$.s 5.u.e ",
"&.&.9.$.*.5.2 &.[ Z <XT.aXyXF 6XcX0Xm k 6XW rX$X+X_.(.fXsXK.BXSXzX-XBXfXK GXGX6Xl oX'.v z m & C ~.%X@X[.G  . .(.E.h &.s t 1.s 1.",
"d y e e 7.x.u.=.3.@ iX!.=XdX0Xc K k `.C -XR K c qXI 6XdXaXW nXSXvXU.qX&X$XGXMX.Xl O.I %X;X;X%Xm XX@XOX'.l Z E.^.X.b.5.w.9.e ;.n.",
"&.s s d *.q.p.2.3.* wXdX!._.yXyX3X;X+XoXl &X,X>XO.% G V K...tXZXSXvX<XzXFXvX>XO.X.W =X2X;X;X#X{.^ OXXX(.z Z I.).) z.;.9.=.3 5.9.",
"*.*.1.7.5.1.7.z.*.{ ..fXdX+XI }.2X;X#X#XoXL v % Q ;X4X,X_.l ..zXvXAXAXAXbX-XY.z C oX;X'.J XX+X`.^ oX_.Q.k b A o.j =.5.=.e 3 9.1 ",
"*.5.d w.i.5.;.b.&.d.@ yXdXmXuX>Xk U.;X=X#X@X..Q.5XuXeXeXeX=Xz O.-X<X8X<X.XE.l $Xc +X=XZ '.^ @XI (.[.~...b + ) k.5.%.9.2.f $.p.$.",
"&.v.*.&.t.0.*.*.2.&.p  .T K.Q T 6X6XT.W oXoXV +XeX>XY ! 3XeX).Z H n P A n Q XXoXc +X+XV '.`.! I [.~.U.m M . ' ;.1.9.$.f &.;.u.5.",
"1.>.;.s &.9.*.3 ;.4 h.A yXfXNXxXT.%XaX=XF E.Q 4X6XV {.{.G 7X'.U =X=X$X@X&XoX+XOXl XX@X{.W L R._.~.Y.L.k   j 1.*.=.=.f q.M.m.;.&.",
"=.5.5.*.&.s &.;.v.9.h..XdXfXmXmXMX^ 0XtX_.k Y.pX&X! (.O.V 2X! `.#X#X+X@X+XoXoXOXO.O.).[.[._.~.Y.T.L.% = g j.;.=.&.&.*.>.t.u.N.5.",
"N.4 &.f e 2.u.=.y.4 h.W.aXmXaXK.>XqXJ.fX5X& Y.4X&XI &XK.=XXXm oX+XoX&X^ V C ! Q C +  .Q.Y.U.U.P.O.k P * e.5.=.&.2 e.9.=.=.0.x.=.",
"j.%.&.s e &.0.%.5 e d ) 0XsXdXE >X>XJ.dX9XZ  .4X5Xx (.%X_.x {.@XXXI V ).oXOXOXXX[.I.+ b ..L. .m l L   d.=.d *.w , ;.;.1.&.2.t.a.",
"&.=.e r $.2.j.*.s *.%.k.O.rXfXtXU.K.tX0XoX& Z ;X3X@XH n I $XoXL.G {.oX}.OX`._._.[.~.U Z V x G R T & j 2.d &.1.< 4 i.;.&.$.e 5.m.",
"d &.&.&.*.q.m.p.q.2.-.5.} | 5XeXuXeX5XoX..v l R.=X>X=X;X@XoXG O.[.OX[.I.z v l ..^.^.Y.k R H.H.H.& 9 r e s 9.*.2 *.m.0.5.*.2 =.a.",
"=.;.5.2.&.0.m.b.p.=.3 &.&.d.M | Y.~.Y. .k R R % L.^._.XX).l W.[.[._.^ P ).).Q.n Y.Q.Y.k H.H.W & 9 :.r w *.e.*.2 *.x.z.q.5.e &.;.",
";.v.s r 1.9.5.*.w.&.2 $.=.r 1.h._ . & m E H.H.W x k & % & | Y.).).(.n R.Q v Q O.O.Y.P.& E T # 0 d ;.$.d 1.1.$.1 =.$.9.=.e d 3.1.",
"f &., s 0.0.=.=.A.4 $.z.e.5.M.y.3.} . G H.H.H.H.T m C E.E.& U % P. . .Y.% O.Y.C P.Y.O.l H   ' 1 N.9.t w d 2.=.4 n.;.&.9.5.d d d ",
"1.w 6 t.q.%.e.N.;.&.5.2.1.0.v.5.=.1.] * $ W H.H.L C Y...Y.O.I Y.v | P Y.U k k U Y.Y.b @ 8 j.2.=.v.5.d d 1.j.N.;.4 *.u.q.&.f c.5.",
"2.1 z.t.$.d 2.e.*.d 5.=.*.*.*.2.2.1.w f.h.- & G n L.Q.P m v O.).I.z k O.Y.I.Y.!.Q.X.* j 5.,.e =.s *.1.2.=.;.5.=.2 y 5.&.r 5.u.e ",
"1.s 9.&.*.5.r &.&.*.&.s s d &.&.<.1.*.2.=.&.h.X . A U.~.Q.~.R.).P.x R % U P.Y.T.+.q f <.1.f &.2.d &.d 1.0.q.=.=.&.e *.t r =.f &.",
"&.d d r 5.p.5.&.&.&.2.;.f d t.&.&.&.f f s %.z.e.6.' S I.Y.Y.I.+.$ @ @   X a ) _ h.6.=.&.&.5.e.f 5.2.d *.9.=.=.s i.q.*.2.;.r &.u.",
"&.f s y 1.u.u.*.<.h e.u.5.=.u.5.f &.s d y &.v.x.=.1.[ _ ) ( 0 [ d.[ d.4.h d e x.x.5.2.d &.q.9.&.0.9.d =.=.4 &.3 i.p.5.9.2.3 r.e.",
"*.&.1.&.&.;.9.e.<.f e.e.5.;.9.=.5.*.*.d &.=.;.5.q.*.d w.e.h 5.9.=.9.5.&.r f 5.5.=.0.*.e =.q.e 1.t.=.1.9.=.2 s 5.;.=.2.&.e s p.s ",
"*.f d w.0.;.0.M.*.2.=.=.*.&.&.%.M.=.&.s w.v.;.9.N.=.1.9.>.:.=.*.&.n.9.&.s *.n.;.5.n.9.&.>.i.=.=.2.&.r.9.&.&.3 n.9.5.9.5.*.=.p.;.",
"&.M.=.&.9.0.=.5.=.f 2.1.7.q.=.1 =.f c.9.&.5.=.5.5.2.f 5.9.u.M.9.< $.s w.9.&.7.=.;.5.1.d =.i.9.N.0.2 -.%.s ;.&.5.=.5.&.s e %.p.5."
};
