/* XPM */
static char *result[] = {
/* columns rows colors chars-per-pixel */
"64 64 241 2 ",
"   c #080707",
".  c #120D0F",
"X  c #161618",
"o  c #24180C",
"O  c #271A16",
"+  c #391A1C",
"@  c #2D291D",
"#  c #36271B",
"$  c #151722",
"%  c #1A1D21",
"&  c #221F22",
"*  c #1E2125",
"=  c #1D262C",
"-  c #1B2B36",
";  c #242221",
":  c #2B2522",
">  c #27282A",
",  c #3C2324",
"<  c #322923",
"1  c #3A2C23",
"2  c #3A3128",
"3  c #2C2E32",
"4  c #272D39",
"5  c #2D3132",
"6  c #24333D",
"7  c #2A383E",
"8  c #383837",
"9  c #501717",
"0  c #691D1F",
"q  c #452B1B",
"w  c #44301F",
"e  c #6E2D17",
"r  c #50292A",
"t  c #493727",
"y  c #553A29",
"u  c #453B37",
"i  c #543230",
"p  c #5A3730",
"a  c #762C2B",
"s  c #6A342A",
"d  c #683631",
"f  c #384E37",
"g  c #3C612C",
"h  c #59412C",
"j  c #43423C",
"k  c #4D4439",
"l  c #5B4433",
"z  c #66492C",
"x  c #714F2D",
"c  c #664A33",
"v  c #6B5437",
"b  c #755436",
"n  c #795239",
"m  c #795839",
"M  c #416C2C",
"N  c #77672A",
"B  c #2A3942",
"V  c #2D3B43",
"C  c #3A3D42",
"Z  c #403C41",
"A  c #3D4344",
"S  c #3F4058",
"D  c #3B5C6A",
"F  c #434444",
"G  c #4B4A45",
"H  c #4A4B4B",
"J  c #50524F",
"K  c #5A554A",
"L  c #4C4E53",
"P  c #535454",
"I  c #5A5B5A",
"U  c #784645",
"Y  c #655A4B",
"T  c #765C44",
"R  c #6C5856",
"E  c #566E4D",
"W  c #78684B",
"Q  c #6A6556",
"!  c #62615D",
"~  c #776E58",
"^  c #585B69",
"/  c #555776",
"(  c #52646B",
")  c #646463",
"_  c #696866",
"`  c #6B6C6C",
"'  c #73726D",
"]  c #6B6E73",
"[  c #757573",
"{  c #7A7978",
"}  c #8A360B",
"|  c #9E3D19",
" . c #A93F17",
".. c #892928",
"X. c #972B2B",
"o. c #883432",
"O. c #993536",
"+. c #A12F2A",
"@. c #A7312A",
"#. c #B0332F",
"$. c #AB3435",
"%. c #A63834",
"&. c #B63839",
"*. c #B83B39",
"=. c #C62C2B",
"-. c #C43D34",
";. c #C03D3E",
":. c #D83E33",
">. c #8D5029",
",. c #865C38",
"<. c #A94833",
"1. c #867929",
"2. c #997727",
"3. c #85673C",
"4. c #996B3D",
"5. c #8D753B",
"6. c #CC5A1F",
"7. c #C84536",
"8. c #D64036",
"9. c #EC4337",
"0. c #E74539",
"q. c #C56424",
"w. c #EC7828",
"e. c #B63F40",
"r. c #844844",
"t. c #865642",
"y. c #AE4D4E",
"u. c #866B45",
"i. c #946D42",
"p. c #9A6E46",
"a. c #987546",
"s. c #94734F",
"d. c #8E7859",
"f. c #977550",
"g. c #9D7951",
"h. c #A27748",
"j. c #A97949",
"k. c #B6744E",
"l. c #8B736D",
"z. c #B97172",
"x. c #C04446",
"c. c #CE5249",
"v. c #CE644D",
"b. c #F46A57",
"n. c #F77360",
"m. c #FF7460",
"M. c #66B63B",
"N. c #6CC23C",
"B. c #5F8052",
"V. c #AC9A2F",
"C. c #AD9130",
"Z. c #CC9832",
"A. c #FE822B",
"S. c #C5AE34",
"D. c #F6B336",
"F. c #E4CF3A",
"G. c #F2DD3C",
"H. c #FCE73E",
"J. c #8F8455",
"K. c #AD824E",
"L. c #AC9446",
"P. c #AB8455",
"I. c #B38955",
"U. c #B48E59",
"Y. c #BD9158",
"T. c #82817C",
"R. c #938D70",
"E. c #AAA06D",
"W. c #C49556",
"Q. c #C2955A",
"!. c #CF9F5C",
"~. c #C8A854",
"^. c #D3A260",
"/. c #C1A27D",
"(. c #D0CB73",
"). c #F7D568",
"_. c #FEEA7D",
"`. c #4D7381",
"'. c #73798C",
"]. c #5C8D9E",
"[. c #7B8291",
"{. c #858585",
"}. c #8B8A85",
"|. c #8C8C8B",
" X c #8F8F8D",
".X c #96948C",
"XX c #8B8D92",
"oX c #848A9B",
"OX c #949494",
"+X c #9B9993",
"@X c #959798",
"#X c #9C9D9A",
"$X c #A39E9A",
"%X c #A3A39D",
"&X c #B2AD90",
"*X c #9397A4",
"=X c #9FA3AA",
"-X c #A4A4A2",
";X c #A7A2A4",
":X c #AAAAA3",
">X c #ADACAB",
",X c #B1AFA9",
"<X c #AEB0A8",
"1X c #B6B4AD",
"2X c #AAACB7",
"3X c #ACB1BD",
"4X c #BBBBB3",
"5X c #B9B8B7",
"6X c #C68D8E",
"7X c #CAB689",
"8X c #C8B5B3",
"9X c #BFC0B7",
"0X c #E1DC9D",
"qX c #FFF88A",
"wX c #DDCEA9",
"eX c #C0C0B7",
"rX c #C5C3BD",
"tX c #E6DFAD",
"yX c #EAE4B3",
"uX c #BBBFC7",
"iX c #B6BDC8",
"pX c #BFC1C8",
"aX c #CCCCC3",
"sX c #C7C7C8",
"dX c #D6D6CC",
"fX c #CFD2D6",
"gX c #DCDCD1",
"hX c #D9D9DA",
"jX c #FAF2C7",
"kX c #E4E3D6",
"lX c #E4E4D9",
"zX c #E9E9DE",
"xX c #DFDFE3",
"cX c #E6E5E6",
"vX c #EEEEE2",
"bX c #ECEBEC",
"nX c #F2F2E6",
"mX c #EAECF0",
"MX c #F0EFF0",
"NX c gray95",
"BX c #FEFEFE",
/* pixels */
"% % % % % % % % % % % % % % % % % % % % % % % % % % % % % % % % % % % % % % % % % % % X % % % % % % % % % % % % % % % % % % % % ",
"% % % % % % % % % % % % % % % % % % % % % % % % % % % % % % % % % % % % % % % % % X   x % % % % % % % % * X % % % % % % % % 5 % ",
"3 % % % % % % % % % % % % % % % % % % % % % % % % % % % % $ % % % % % % X % % % %   R.x % % % % % % % ; 1 t % % % % % % % % % % ",
"3 % % % % % % % % % % % % % % % % % % % % % % % % % % % % % % % % % % % * % % % % X . h % % % % : h h l Y % % % % % % % % % % % ",
"3 % % % % % % % % % % % % % % % % % % % % % % % % % % % % % % % % % % % * % % % % % I 8XJ % w # y OX[ 1X% % % % % % % % % % % % ",
"3 % % % % % % % % % % % % % % % % % % % % % % % % % % % % % % % % % % % % % % % % X  Xk o y l.gXnXzXnXnX% % % % % % % % % % % % ",
"3 % % % % % % % % % % % % % % % % % % % . X o % % % % % % % % % % % % % % % % % % t m y K %X4X:XaXvXaXaX% % % % % % % % % % % % ",
"3 % % % % % % % % % % % % % % % % % % %   [ O % % % % % % % % % % % % % % % % ; ,.q +XzXnXnXnXaX<X}.%XaX% % % % % % % % % % % % ",
"3 % % % % % % % % % % % % % % % % % % % % X O % % % % % * X % % % % % % % # ,.t ' nX%X%X1XdXnXnXnX}.$XaX% % % % % % X * * % % % ",
"3 % % % % % % % % % % % % % % % % % % % % * , + % % % % * * # m % % % % O w .XzX.XeXnXzXrX:XnXnXaX}.nXgX% % % % % % X # % % % % ",
"3 % % % % % % % % % % % % % % % % % % % ~.(.s ).j.+ % % ; 4.@ T.% % % @ :XgXeXnXnXkXnXnXnX%XnXnX,XvXnXnX% % % % O @.i % % % % % ",
"3 % % % % % % % % % % % % % % % % % % % A R.D E.- % ; i.! <XzX% % % % H +XgXrXkX+X4XnXnXnX%XnXnXaXnXnXnX{ % q c *.%.. % % % % % ",
"3 % % % % % % % % % % % % % % % % % % % <X[ ] { ^ h v zXnXlX` % % % % nXzX#XgXaXvXeXgXnXnX%XnXnXlXnXdXrXzXz 9.i 9.i % % % % % % ",
"3 % % % % % % % % % % % % % % % % % % 8 sX'.I z y nXgXgX9X9X% % % % ` rX:XkXnXnXnXeXkXnXnXdXnXaXnXnX4XnXnXc.8.p 9.i % % % % % % ",
"3 % % % % % % % % % % % % % % % % % * X % t R.zX%XrXvXzXvXaX% % % % dXnXzXnXnXnXnXeXgXkXvXT.vXaX}.}.nXnX.XnX%.d 9.i % % % % % % ",
"3 % % % % % % % % % % % % % % % % % % ; x Q nX%XhXnXnXnX4XP % % % % nXrXzX#X_ nXgXeXrXrX&XaX#XaXnXvX%X4X.XlXnXd 9.i % % % % % % ",
"3 % % % % % % % % % % % % % % % % % z q vX:XeXBXBXBX|.4XaX% % % * * %XrX|.#XOX1X1X X1X1X1X1X1X1X+X1X+X1X%X1X:XnX0.i $ * % % % % ",
"3 % % % % % % % % % % % % % % % : p.P aXnXnX1XBXBXB.nXzXnX% % % % ; %XrX}.l.1X1X1X1X1X_ ^ $ 1 ..q , +.! ) Q 1X1X1XR * X % % % % ",
"3 % % % % % % % % % % % % % % # z |.dXdX1X:XfXzXnXnXkXnX1X% % % % * { rX[ T.1X1X{ > $ $ $ :.i 9.i p 9.i 9.9.y 3.c z : * % % % % ",
"3 % % % % % % % % % % % % % z v nX7XR.dX4X>X9X%X9X9XgXnX%X% % % % * %X+X1X1XH % % % < X #.9.i 9.i 9.%.b m o.i 9.9.i . * % % % % ",
"3 % % % % % % % % % % % % % ) vXC.D.D.W {.kXjXnXnXrX:X#X%X% % % % * .X#X1X% % % % % > :.<.-.i y p.y 9.i 9.9.i 9.9.i w % % % % % ",
"3 % % % % % % % % % % % % % BXE. .=.>.D.2..XnXnXnXzX:X#X%X% % % % % T.1X% % % % % % T Y u.i.i 9.i 9.9.i 9.9.i d 9.o.i % % % % % ",
"3 % % % % % % % % % % % % sX5X+.C.Z.vX%XnXgXrXlXnXnXnX#X#X% % % % % <XG % % % % : u.m R.r i i 9.i 9.9.i 9.9.i i 9.9.i . % % % % ",
"3 % % % % % % % % % % % % :X2.a.MX  BX:XnXnXrXdXnXnXnX+X<X% % % % % ` * % & y 5.t % T 0 9.i i 9.i :.9.i d 9.$.i :.9.i t % % % % ",
"3 % % % % % % % % % % % :XZ.cXBX    BXaXzXnX9X%XnXnXnX#XnX% % % % % % % i.h % % % % 0 ,.X &.i 9.i p 9.i p 9.9.i i 0.*.i X % % % ",
"3 % % % % % % % % % % % aX<X. BX    @XaXzXnXnX%XnXnXnXnXnX% % % % % : < * % % % % % T u.+ -.i 9.i i 9.<.r a +.a r ;.9.p i X % % ",
"3 % % % % % % % % % % % aX<X. BX5XBXnX4XcXnXnX%XnXnXnXnXnX% % % % % % % % % % % % % b -.+ -.i 9.&.# X.+., , +.+., , +.:.i . % % ",
"3 % % % % % % % % % % I vX:XBXI BX[ $X4XzXnXnX%XnXnX:XnXnXJ % % % % % % % % % % % % 9 3.X 9.i +.+., , +..., a X.+., r 9 h z y % ",
"3 X % % % % % % % % % ! nXnX%X>X-X[ cX5XzX8XnXsX+XnX<XnXnXrX% % % % % % % % % % % % T s 9.9.q a +., , +.+.O X + 2 z y < ; G % % ",
"3 * % % % % % % % % % ! nXnXBX-XOXBXzXcXBXaXrX8XgX' gXnXaXnX% % % % % % % % % % % % p s % :., , +.... X X > l z 2 % % % 5 X % % ",
"3 % % % % % % % % % % ! nXnXBX-XBXBXdX$XB.uXBXBXBXrXgX! 9XnX_ % % % % % % % % % % % 0 u.9 X.. X % % % c ,.: % % % % % > % % % % ",
"3 % % % % % % % % % % % dX>X[ {.=XiXOX1XfX$XiXiXpX XgXvX<XnXnX* % % % % % % % % % * T 0.0 % % * h ,.: ; % % % % * % % % % % % % ",
"5 % % % % % * e * X X * aX5X8X=XiXiX{.rXrX{ 3XiX%X8XrX' kX<X4X% % % % % % % % % % = = > = ; c y % O % F J J H C S % % % % % % % ",
"5 % % % % % % w.* * * $ 4XBX` }.iXiX,XrX' rXsX[ rXsXrXrXrX>XrXOX% % % % % % % % % , : q q ; % % % y...y.).v.x./ B r a $ % % % % ",
"5 % % % * % w w.; X * ` H mX}.rXsXrX1X|.4XrXOX8XaX8X-XrX:XrX8XaX% % % % % % % % % % 7 $ & % % % % o.c.x.).K 4 / L x.).& % % % % ",
"5 % % % % q.q.q.>.3 [.mX` pXuX4XT. XrX#XG 4 = $ H I %X8X%XrX XrX' % % % % % % % & X p.x g M % % % G ) V ! Q B ! R B r W.% % % % ",
"5 * X * ; A.q.q.>.,XP cXbX{ rX}.rX! X % % h.p.n * H 5 ` % ! rXrXrX% % % % % % % $ % p.n N.M.% % % > yX].wXjX].wXyX`.` F % % % $ ",
"5 X $ * N q.A.A.2.[ N 2XoX5 <X%X& % % % F OXMXMXMX> I 4 % % % ) rX,X% % % 5 [.L L L ~ K g f g T._ {.Z J Z ~ R ! C u u Z % % % % ",
"5 % f _._.q. . .e N sXN b l.<X1X% % % -XoXMXfXNXcX-XI ` % % % % % $X5 % & d <.<.m.m.m.m.b.<.7.7.%.l.sXxXhXNXNXbX5XsX) ) % % % % ",
"3 % _.5X3XV.} A.} R.K 1.>.qXqX~ MXC C -X=XmX5XNX{ -X! _ % % % % % % H % ; jXjXyX,.m.m.m.m.b.7.7.7.7.4 '.'.'.iX'.'.'.5X3 % % % % ",
"8 jX0X&XsXL.A.| # [.H.G.V.(.qXE.MXZ 5XfX2X) bXMXbXC 3 > C % % % % % % % & x g.>.,.k.4.m.5.m.3.x x m , % xXhX3X3 % % % % % % % % ",
"I jX0X_._.V. . .<XN S.G.l J.).J.OX2X&.;.;.;.r.MXH % H H Z % % % % % % % ) ;X1XXXoXXX|.n.m m.3.z z 3., $ * MXoX% % % % % % % % % ",
"5 yXtX_.qXC. .t.) S.F.H.Y 2XP ..OX3X*.*.y.x.r.MX> % ) ^ I % % % * oXiX'.iXbXr.;.;.;.[ U m n v u k v u 3 5 MX'.% % % % % % % % % ",
"5 X ; ~.~.e A.n ; C.V.G.7.;.y.` cX2X&.MX; y.U MX{ % ! ` L % % % % [.*Xa 2XMX$.;.;.;.[ a ..o......._ ) ` NXoXZ a.a.h.% % % % % % ",
"3 % % % >.| } 6.2.V.C.C.y.<.;.;.sX8 *.y.NX;.$.NXMX> 3 > C % % % 8 ) ] I ] mX&.;.;.;.uX/ ^ / ^ ^ ( ( ^ / 3Xm j.c j.j.j.% % % % % ",
"3 % % %  .| |  . .C.H.O.C.H.X.;.MXsX*.;.;.;.&.{.MX8 3 ! P 3 % % oX] E B.BXB.;.;.;.*.uX( T.7Xc /.R.( 8X2Xz j.m 1 h.j.j.y % % % % ",
"3 % % % % { B.t 1.F.F.;.-.1.;.;.xXMX&.*.MXNX$.O.hXMX3 8 L F ! ! ) ) ! #XNX;.6XMX*.$.sXD J.l # l R.( t h.j.p j.i.1 j.j.h.% % % % ",
"3 % % % % hXd.1.H.V.N $.;.*.;.$XXXF O.;.xXF 6Xe.{ aXMXP Q A A A Q K -XMXr.;.bXk y.r.K 7X7Xh O p 7X7Xh n j.j.j.i.1 j.j.j.% % % % ",
"3 % % % 3 '.J.C.V.H.o.5X{ &.;.MXd.^.#X;.;.$.;.&.;.l.fX- V B 6 V V V hXr.;.&.;.$.x.5XG G W H O I ~ ! y P h.j.j.4.# n n n % % % % ",
"3 % % % NXV.sXC.F.>.;.*.;.mXF sX^.^.5X$.;.;.MXR y.$.V - !.!.!.!.W.V V $.NXY MX;.+.5 5 5 5 5 5 5 5 5 5 5 4.h b c # n n n % % % % ",
"3 % % #XbX[ ;XxXC.X.S.H.O.*.mXd.Q.Y.Q.cX$.;.8XrXe.B A Y.Y.Y.a I.Q.p.B B z.sX8X%.cX@X%XXXXXOXXXXX@X|. X Xy n l y c n n : % % % % ",
"3 % % L oX}.'.oXd Y C.F.<.y.hXV P.P.P.P.mX%.;.;.+.V I.!.!.0 X.W.!.!.> V ..;.O.XXu.U.7XI.I.K C d.U.I.B * * n c h n n n % % % % % ",
"3 % % % % % % % $ ;XX.;.*.MXu V V f.f.f.s.xX] ;.3 V !.!.!.!.X.W.!.!.3.V 4 O.>Xj.Q.wX  xXW.V NXrXQ.- T !.% t l b n n % % % % % % ",
"3 % % % % % % % % ..bXO.;X;XP.!.V V ^.^.^.^.U.mXB B g.g.g.g.X.f.g.g.c V 6 aXa.!.!.!.nX6XV V W.Q.!.V f.~.s.% * * % % % % % % % % ",
"3 % % % % % % % % % X.>XMXv 3.I.I.V 6 ^.^.^.^.^.V V ^.!.!.!.X.W.!.K.: V W K.!.!.!.!.!.V V !.!.!.f.6 8 v 8 3.< X % % % % % % % % ",
"3 % % % % % % % % % % hX_ m h.Q.Q.Q.B V U.^.^.^.^.V F !.!.X.....!.j.B V K.!.!.!.!.K B A !.!.!.^.W m b !.s.!.< * % % % % % % % % ",
"3 % % % % % % % % % % % % c j.I.!.!.!.W V V u.^.^.7 V s.f.f.f.g.v = B G !.!.!.8 V V f !.!.!.!.K.6 m b K.s.!.< % % % % % % % % % ",
"3 % % % % % % % % % % % % % l j.K.!.!.!.!.W V V 6 G 6 V 6 Y u k - V B 6 6 V V V W U.I.I.I.!.P.a.7 i.v i.c Y.< % % % % % % % % % ",
"3 % % % % % % % % % % % % % % l h.K.g.g.g.g.g.g.j F 7 - 7 V V V B - V V B 8 Y.Q.Q.P.g.g.f.K.h.t * - v K.c !.< % % % % % % % % % ",
"3 % % % % % % % % % % % % % % % > v h.f.s.s.I.!.!.!.!.!.!.!.!.!.!.!.!.!.!.!.!.!.!.!.s.s.c p t % % - 6 K.z K.< % % % % % % % % % ",
"3 % % % % % % % % % % % % % % % % % t c m m ^.^.!.!.!.!.!.!.!.!.!.!.!.!.!.!.!.!.P.P.3.c 2 % % % % % = 6 6 - = % % % % % % % % % ",
"3 % % % % % % % % % % % % % % % % % % % 2 i i.j.W.W.Q.!.!.!.!.!.!.!.!.!.!.Y.Y.Y.K.l 1 % % % % % % % * X % % % % % % % % % % % % ",
"> % % % % % % % % % % % % % % % % % * X * * % t v b t t !.!.!.!.!.!.^.t t c v t % % % % % % % % % % % % % % % % % % % % % % % % ",
"% > 3 3 3 3 3 3 3 3 3 3 3 3 3 3 3 5 5 5 5 5 3 3 3 3 3 5 2 8 8 8 8 8 8 3 5 3 5 4 3 3 3 3 3 3 3 3 3 3 3 5 3 3 3 3 3 3 3 3 3 3 % % "
};
