/* XPM */
static char *eae9f56e59bb4e13940340d0dcd2294doB5OjRO02c4i5Wwg[] = {
/* columns rows colors chars-per-pixel */
"64 64 256 2 ",
"   c #030200",
".  c #0B0200",
"X  c #010B00",
"o  c #0B0C04",
"O  c #140100",
"+  c #160B02",
"@  c #091702",
"#  c #161603",
"$  c #010716",
"%  c #111714",
"&  c #340A01",
"*  c #291607",
"=  c #2C1712",
"-  c #2F110A",
";  c #0E2700",
":  c #1A2700",
">  c #272C03",
",  c #2B3704",
"<  c #312911",
"1  c #071026",
"2  c #382B26",
"3  c #3C3328",
"4  c #32342F",
"5  c #4F1308",
"6  c #51330F",
"7  c #6C2910",
"8  c #473327",
"9  c #752419",
"0  c #2E5312",
"q  c #256205",
"w  c #266309",
"e  c #2A650C",
"r  c #2D6A0C",
"t  c #296606",
"y  c #316C0E",
"u  c #31670F",
"i  c #2C6512",
"p  c #2E6B12",
"a  c #2F661B",
"s  c #326D14",
"d  c #336D19",
"f  c #366918",
"g  c #357115",
"h  c #3A7416",
"j  c #35721B",
"k  c #3A751C",
"l  c #3D7A1D",
"z  c #3B7A18",
"x  c #395924",
"c  c #3F403A",
"v  c #3A6D23",
"b  c #3B7521",
"n  c #3E7A22",
"m  c #3C7628",
"M  c #1E6000",
"N  c #494D19",
"B  c #427C1D",
"V  c #40741F",
"C  c #476211",
"Z  c #4F4D31",
"A  c #73522A",
"S  c #427D24",
"D  c #447D2A",
"F  c #477A2A",
"G  c #4A7636",
"H  c #577A38",
"J  c #4D6832",
"K  c #6E6E36",
"L  c #6F4919",
"P  c #0B2B50",
"I  c #313C57",
"U  c #293867",
"Y  c #163D76",
"T  c #2D4355",
"R  c #214270",
"E  c #4B4A46",
"W  c #564A44",
"Q  c #59544B",
"!  c #5B5853",
"~  c #64554B",
"^  c #735A4D",
"/  c #4D6645",
"(  c #587645",
")  c #556B4D",
"_  c #6F714E",
"`  c #736C67",
"'  c #7C7873",
"]  c #756D66",
"[  c #4F5477",
"{  c #402B4A",
"}  c #8B1B05",
"|  c #891B09",
" . c #941A15",
".. c #921F0A",
"X. c #8E2813",
"o. c #A6271C",
"O. c #913731",
"+. c #B53728",
"@. c #AD3029",
"#. c #A01915",
"$. c #CE352C",
"%. c #915937",
"&. c #B74B32",
"*. c #96793C",
"=. c #8E6834",
"-. c #AE5926",
";. c #C45429",
":. c #C44E27",
">. c #D7663D",
",. c #AD4648",
"<. c #94754A",
"1. c #8A776A",
"2. c #857B74",
"3. c #8F796B",
"4. c #B97262",
"5. c #B46E55",
"6. c #D17053",
"7. c #D07465",
"8. c #CF5D4B",
"9. c #A43E4C",
"0. c #3F8326",
"q. c #458225",
"w. c #4A8426",
"e. c #45822A",
"r. c #4A852C",
"t. c #4D8A2C",
"y. c #4A8A26",
"u. c #518C2D",
"i. c #52852D",
"p. c #4C8532",
"a. c #4E8A32",
"s. c #498733",
"d. c #528533",
"f. c #528D33",
"g. c #52833A",
"h. c #548C3A",
"j. c #5A8839",
"k. c #549134",
"l. c #56923A",
"z. c #5A953B",
"x. c #5C993C",
"c. c #599335",
"v. c #519132",
"b. c #629C3D",
"n. c #61963E",
"m. c #6B8838",
"M. c #5EA13A",
"N. c #5B8846",
"B. c #5D9743",
"V. c #5F8C51",
"C. c #638A49",
"Z. c #629D43",
"A. c #65984A",
"S. c #688856",
"D. c #75955A",
"F. c #6F9155",
"G. c #66A244",
"H. c #6BA54B",
"J. c #6DAA4C",
"K. c #69A447",
"L. c #71AC4D",
"P. c #6EAB52",
"I. c #6DA553",
"U. c #72AD53",
"Y. c #75AA5A",
"T. c #75B154",
"R. c #7BB55B",
"E. c #7BB759",
"W. c #74B24D",
"Q. c #778A65",
"!. c #779865",
"~. c #7DB761",
"^. c #7CA66A",
"/. c #9A813E",
"(. c #998245",
"). c #8E884F",
"_. c #AE934D",
"`. c #82BC5E",
"'. c #8CAD5C",
"]. c #B5A357",
"[. c #8C8875",
"{. c #92876F",
"}. c #86AB6B",
"|. c #82BD61",
" X c #86BA67",
".X c #8AAA73",
"XX c #97BC78",
"oX c #93B270",
"OX c #B09C6C",
"+X c #CD8749",
"@X c #D3864A",
"#X c #D8975D",
"$X c #D59978",
"%X c #F69C67",
"&X c #D8A966",
"*X c #CFB076",
"=X c #FFB36C",
"-X c #E6B773",
";X c #FFB373",
":X c #F8B979",
">X c #F0A96D",
",X c #E39457",
"<X c #85C165",
"1X c #8AC56C",
"2X c #8CC96C",
"3X c #89C468",
"4X c #91CA6D",
"5X c #8DC872",
"6X c #93CB74",
"7X c #97D275",
"8X c #D3C97E",
"9X c #EEC66B",
"0X c #FEC46D",
"qX c #F3CC6C",
"wX c #F8C96D",
"eX c #EDC978",
"rX c #F4C673",
"tX c #F3CB73",
"yX c #F3CB7B",
"uX c #FAC677",
"iX c #F1D176",
"pX c #31548D",
"aX c #3362AD",
"sX c #24529B",
"dX c #515D90",
"fX c #969189",
"gX c #AA9A95",
"hX c #B3A69A",
"jX c #B6B0A8",
"kX c #95B187",
"lX c #D5A787",
"zX c #D5B391",
"xX c #EFB78F",
"cX c #D9BAA8",
"vX c #D3BBAF",
"bX c #EDBBA8",
"nX c #E59683",
"mX c #A3C58C",
"MX c #D9C78C",
"NX c #E9CB84",
"BX c #F1CC8B",
"VX c #D7C5B8",
"CX c #D1C2B7",
"ZX c #F8C8B4",
"AX c #F6D6BB",
"SX c #EDC8AF",
"DX c #EFE6AB",
"FX c #D5CEC9",
"GX c #EBD8C8",
"HX c #F4D9C6",
"JX c #EEDDD4",
"KX c #EED8D0",
"LX c #F2E2D7",
"PX c #FEF4EB",
"IX c #FEFAF5",
"UX c #B0BFC6",
/* pixels */
"d P.k r.k.T.a.r.x.f.u.t.r z.f.S c.u f.f.Y.S t.y.u.y.u.g f.r.a.f.s p.y.G.j a.f.u.w.K.B t.t.t.a.p z.h k.g t.u.f.f.|.r.t.u.f.u.k b.",
"e.r.Z.q.r t.r.g r.l w.7Xt 3XS d f.f.r.p p.f.z y.B t.7Xr U.k i t.p.f.h c.a.e.t.S u.E.h b.y r e.p.f.B K.t.q.t.B t.z.S f.y u c.B c.",
"k r.z.w Z.r t.q.k R.u.K.w.z.f.e.e.f.r x.b r.D s <Xt.G.r.G.f.u.t.a.p G.t.l t.r 2Xa.x.t.L.t.k.e.p.k T.G.l t.r T.t.f.k.T.t.u.k.t.q.",
"t.w.l Z.f.l t.l k f.q.h t.k l.n a.l b.t.k p.m i f.r.l r.k Z.k t.k B.f.z t.p r r.a.q.w.z K.g f.b G.r.k a.p r k.u.S q.S Z.s t.w.J.",
"q.K.k f.g t.s q.t.T.S f.q.f.z.s B.g k.h f.j d e.E.z k.l t.T.w k.j l.k f.e.e q.E.k a.p f.E.e t.k f.D a.a.e S R.g t.w u.R.s S S q.",
"q.U.q.k f.e.1Xr.t.<X<Xf.f.e.k.k k.k.g t.r.T.k a.6X1Xh.p.F A.a h.g.v G H V.a d.4X4XZ.b j A.e z.e.n d a.f.e r.~.B.E.t g J.w r.r.r.",
"y.u.t.e p.5Xq.S t.l f.1Xa.e q.r.k r.i s.1XS g f.F F.S.( / / ) / ) / / ) ) ) G v j.Y.e.a.k t.u d.k j D d s t.g q.k.q.f.p t.k t.p.",
"y.h 2Xe.p f.e r.P.f.S S p p t.l r 2XD m h.b i.XXD.J o # + + # o # # + + + o J C.j.D l t.a.s u 4Xr.D e.f.e.6Xq.b.t.S t.a.p D B.p.",
"t.x.f.e.r.p e x.k f.n n h.h.D t.W.u.D g.v G D.J _ _ K A A A A =.A L =.A A A K K H p.q.2Xs.l.H.r.k e.e.f.1Xl f.G.e.S 5Xa.l.G.b d ",
"t.w.a.a.f.i 7Xs n r.H.d d f.n p.B f.C.C.0 , > > > (.NXBX-X&X-XNX-X-XyX-X&XNX*X> _ H d.H.D p.F r.r.a.f.n a.q t.k.l a.H.S a.D n b ",
"p t.n n n h.a.j z.s p.r.p.p.D b D H ( , K ].].].].-XtXtXrX9X9XqX9X9XrXtX9XeXeX].J , , x N.D D r.k e.U.t.t.S k r.g t.n r.S D a.k ",
"j P.B.n e.b s n U.Y.f.e.D p.A.v F.F.Q.N _.eXtXtXtXqXqXwXwXqXqXqXqXqXtXqXqXqXqXiX=.6 6 J XXF h.a.k t.r.r.r 5X<Xn T.r a.3XS B.p.p ",
"r.B.r.j a.e.r.e.S z.t.r.F 1X~.j.XX: > NXeXtXwXqX9XqXqXqXqXqXqXqXqXqXqX9XqXqXwXqXtXeXNX(.@ H Y.t.k P.r t.S f.q.f.t.t n s f.H.a.S ",
"e.s r.l.e.e.q.R.t.k 4Xh d.p.F C.J K =.yXuX0X0X0X0X0X0X0X0X0X0X0X0X0X0XuX0X0X0X0X0X0XqX].K J f z.B Z.p.w t.f.g U.q.e J.s t.g U.u ",
"j r.l t.w.t.f.r.U.e.i.q.j.b N.C.o *XiXwX=X=X=X=X;X;X;X;X=X=X;X=X=X=X;X;X;X;X;X;X;X=XwXiXNX, , H I.s t.l.p.t.l.k r.B G.u.7Xw.q.J.",
"j P.k f.f.U.r.e.n.u.u.t.u C.N.H + *XuX0X@X;.;.;.;.;.;.:.;.;.;.;.;.;.:.;.:.;.;.;.;.-.uX0XrX-XOX: F D x.k t.f.a.f.<Xk.t.t.k.k.h x.",
"m a.x.z z r.r.D q.S t.<Xk  XS._ 6 #X%X%X>.+.+.+.+.+.+.+.+.+.+.+.+.+.+.+.+.+.+.+.+.+.%X%X>XyX*X@ f D A.f.r.r.q.r.k.w.J.h l l.q.f.",
"m e.f.q E.r k.b B U.f.x.b XX@ Z xX-.-.&.o.} } } } } } } } } } | | | } } } } } } } } &.+.-.;X-X& N Y.A.F r.e P.t.t.f.J.v.t.q.f.S ",
"0.a.d 4Xx.t.e.k k u.t.d g..X+ 6 7.o.o.o.&.@X+X+X+X+X+X+X+X+X@X@X+X@X@X+X+X+X+X@X@X@XX.o.o.8.8.X.N 0 F j.s u f.f.a.e.y.E.r t.S Z.",
"q.J.f d.s k.p e.a.R.S f.G .XO 5 &...| 7 6.uXrXtXtXyXtXrXyXrXuXuXuXuXuXrXyXtXuXrXrXuX7 | | +.$.&.5 # D.F e S R.h a.q t.W.y d S d.",
"q.P.p.d f.q.3Xe.r.3X<Xj.C..X+ & 7 ;X:XBXuXrXyXeXyXeXyXeXyXyXeXyXyXyXuXyXeXyXyXyXyXyXuXuXxXX.| 7 * @ C.a.e r.|.b.|.w y K.e e.d.D ",
"q.f.a.e t.2Xn q.u.B j.XXH K A A =.:XuX-X+X<.(.(.*././.(.*.(.(.<.(.*.<.<.(.<.(.<.(./.-XrXuX-.-.=.< # H d p f.h S v.q.f.g r.j a.a.",
"r.z |.e.j a.r w.J.j.G .X0 o NXeXyXBXNX*XA O . . . . . . . . . .   . . . . . . . . O *X-XuX0XuXBXL # D.F.D 4XF n.f.e.u.t.r a.h.D ",
"r.b.t.t.s.p q J.B j.^.@ ).*XeX9X&X6 - * 8 W E 4 o ` gX2 % E E E E E E 2 . fXfX  4 Z & L &XrXuXyX-X*X> J }.S f.K.a.j  Xf.k.G.b d ",
"e.S f.t.f.w 2Xj l D !.X (.NXeX*XOX* + + 3 ! ! c o ` hX2 = Q ! ! ! ! Q 3 . gXgX  3 Q + 8 OX*X&XeXrXyX, N D.V F f.j a.I.k f.j r.p.",
"e a.D D e.a.l.j K.a F.X *.yX&X=.O Z Q Q ` 2.' ! o + = O 2 ] 2.' ' ' 2.W . * * . W 2.Q 2 O O * &X-XyXNX).; N.D q.j a.k p.n n p.d ",
"r J.A.D D j b b U. XD.o *.>X&X%.O % 2 ` ] ' 4 % + W 3.3.^ 2 W ' ' ` 2 W 1.3.3.3.W 2 ` ~ 3 8 8 6 _.&XeX_.@ .XXXl E.p c.2Xz z.h.a ",
"v.x.a.d f.r.a.D S Z.D.  =.$X$X<.. . + 2.2.' o     1.VXvX1.O 8 2.' ` . Z VXVXcXvXW   2.` Q Q W O =.#XrX_.: S.g.a.e.t q.e u.K.a.F ",
"r.i r.z.t.q.n R.f.h 6X!.Z O lX%.O hXhX. .     o * = = = ^ vX]   . = CX{.* * = = +     2 ' #   O %.%X#X*.: S.f Y.e.s K.y u.h U.u ",
"k f.k a.S Z.w.w.H.r.r.B.J N <.6 . hXhX.     E Z 3 8 2 = 8 3._ Z Z ~ 3.^ * 2 8 2 Z Q   = E E 4 O %.$X&X*.> C.N.n e.l J.u.4Xw.h U.",
"B H.s k.f.n.u.z z.t.S j.F mXX . . jXhX.     jXjX! Q W < = - ^ vXvXhX= = = Z ~ Q gXFX    o hXjX. <.$X*X<.: j.d.r.E.J.t.u.u.H.z b.",
"z u.a.j t.f.t.r.D e.u.T.a.A.C.) X # %   ] vXPXFX2.] 2.jXCXVXFXGXGXGXvXvXCX2.1.] FXIXCX2.  # # . + * * N H d.D f.c.y.`.q.w.c.w.t.",
"r.S f.q 2Xt a.k S J.f.k.p B.B.N.@ @ o   1.KXPXFXfX[.fXFXLXJXJXJXJXKXKXJXJXfX3.3.FXPXKX{.  @ @ @ @ ; ; x g.s H.t.y.y.H.u.u.k f.q.",
"e.r.l 2Xf.a.q.l k f.r.p t.s B.h.!.S.kXX 1.GXLXGXVXGXLXPXPXPXPXIXPXIXPXPXPXFXVXVXGXLXGX{.X J S.G .XC.G B.d i f.t.q.t.w.E.s u.B z.",
"w.J.s r.j a.s q.t.<Xe.k.r.f.z.k j.V S.J ] [.FXGXGXLXLXPXIXIXIXIXIXIXIXPXJXKXGXGXGXGX{.] ( x F b g.F p.D e r.|.s u.q t.E.r s S l.",
"w.L.w.r a.e.<Xr.r.<X1Xt.p.r.l.g z.f.v D.x @ VXKXGXVXVXLXPXIXIXIXIXIXIXLXvXHXGXGXGXGXo 0 ^.a f.e.k k d.f.r r.|.K.`.t g Z.e e.a.k ",
"l k.f.g t.|.n e.f.r.t.U.f.t r.e.h f.f H .XQ.! Q Q gXGXHXHXGXGXGXGXGXGXGXSXHXVXQ Q Q Q.S.G h.r f.n b D n i a.n a.r.q.a.n r.j B.e.",
"r.k.K.w.z r.e r.Z.t.S T.e S I.b G.G.D F C.F.4 < % [.vXcXcXcXcXzXcXcXcXcXcXvXjX< > 0 ( G p.w G.G.n b a.l.b <Xe.a.z.r.S r.e H.e.j ",
"r.x.f.r.a.s M ~.e.f.|.e.r.a.p.a.T.f.a.a.f N.!.Q.fX` 3 8 ^ $X$XlXlXlXlX3.8 8 Z Q..Xj.F R.f.f.U.r.n e.h.3Xk.k t.K.u.u E.t.a.H.k p ",
"w.q.r.r.f.i 1Xk k e.t.D D h.D p.n a.h.a.p Y.N.Q.gX~ - & A lXzXlXzXlXzX<.& & < {.D.F f.n.s a.d a.a.a.a.e.t.w B u.s t.K.s a.j a.a.",
"q t.k e.e.p.a.j U.e e.D f.D k j r.n D s.h.N.!.{.& 7 O.O.4.ZXAXAXHXHXAXlXO.O.9 & K ( g.j a.e.S r.k f.K.t.u.t.z w.h t.h a.r.l r.d ",
"e T.B.e.S d j n J.<Xp.D D r.H.p Z.a.e.n v C._ ^ 9 X. .@.4.bXAXHXHXHXZXnX@.o.X.9 A _ G N.1Xs r.f.z f.l t.w <X3Xk `.d f.1Xl f.r.p ",
"l.l.a.g a.f.p.D D B.r.t.r.1XH.f.I.t.g p.D.oX5 5 O.@. .+.7.bXSXAXAXZXbX$X&.#. .&.7 & Q.V.e u.T.y.k K.e r.r.f.p.f.D i j.e f.K.t.S ",
"n k r.P.r.n S U.f.S 4Xh f.p.S p.h t.A.j.N * O.@. .o.o.+.7.bXZXbXcXbXZXnX$.+.o. .o.%.* Z H i.z k.u.k.f.w H.a.n H.r.k J.B q.B G.z ",
"l f.j a.D ~.k f.Z.t.t.f.S e.f.Z.c.e C.S.A 5 +.+. .o.$.$.7.ZXZXcXSXbXZXnX$.$.@. .@.&.& 6 _ XXf.r Z.s t.S a.a.l.l S k H.t.4Xy.z W.",
"q.J.w l.p.l.f.s z.t.s f.g t.g u.`.q !.X 6 ,.&.+. .@.$.$.8.$XxXAXAXSX$X6.$.$.+. .@.&.,.7 o H 6Xr z.u.R.r.r.t.r.l E.2Xw.w.u.E.B K.",
"k a.k.s f.f.r.u.l w.t.T.k.t.f.S h.H S.X ^ lX7.8. .@.$.$.>.>XBXDXDXDX-X,X$.$.$. .&.7.lX<.X G g.a.l k G.f.t.q.w.t.c.t.3Xt.u.z.r.r.",
"r.l l.q 2Xe k.g S J.t.t.r b.r.p.b N.( X 1.AXlX4.9 O.,.,.7.xXDXDXDXDXBX$X,.,.9.9 5.$XAX{.X G d a.k B.t.r.w.r K.t.q.u.K.f.t.n a.r.",
"t.t.j 2Xf.t.S S h f.q.r t.g x.k s.v kXX 1.GXHXgX= I dX[ I I I T T T T I U dX[ . {.HXHX{.X x g.d P.a.g f.s t u.t.w.r.r.R.s r.q.z.",
"q.J.j S k t.s e.t.R.r.k.t.t.x.k a.m C.0 _ [.[.! $ U aXsXY P P P P P P Y sXaXpX$ ! [.[._ J 0 F k a.n r.t.t u.E.h f.q f.U.e k l k.",
"r.H.r.t f.S Z.e.q.`.`.H.f.k f.d z.g.f C.x ; @ @ $ U aXaXR 1 $ $ @ $ $ P aXaXpX$ % ; @ 0 A.i f.r.k j H.f.k w.<Xc.U.j n l.r S r.S ",
"g f.t.r.a.U.j e.u.k.w.k.e.e t.S S p.r.h.^.N.( ) 1 U aXsXP $ ! Q.[.Q.  1 pXsXpX$ ) S.V.V.g.p.d l.n e.a.e.e f.B G.h e.f.r.r.k P.k ",
"r.G.r.r.e.e.w t.x.f.S 2Xq f.R.g `.u.q.D a.v G !.% T dXpXP $ / mXV.F.X 1 R dX[ $ / .Xm F F w 3Xy.k b p.a.g R.q.r.B.D n e.e ~.n s ",
"r.Z.a.r.a.p w ~.S r.4Xe.r.f.e.f.J.t.a.e.d h.}.S.# fXFX[ 4 X / }.N.!.X % I UXjX@ !.A.F Y.h.f.L.w.S D l.1Xf.s f.H.l.s Y.f.a.H.n p ",
"r.S f.r.a.s 5Xk S e.f.e.l k.D r.n f.p.a.b }.J ~ <.lXSXOXZ o ( ( V.!.X 2 3.MXMX).K x C.A.f p.d a.p.a.r.q.r.p D f.s f.G.j a.j a.a.",
"M f.j D e.r.q.s U.d e.S f.n n k e.n e.p.a.F.; N 8X8XMX*XK # ( V.N.^.X N OX8X8X8XC ; A.b a.a.n e.b f.P.f.f.a.S r.k r.g f.a.D e.s ",
"j J.l.r.r.j n n G.E.t.e.D z.H.g H.t.e.e.v G F }.oXm.m.i.A.'.F I.B.g.A.H m.C '.oXj.A.b h.P.l k.k.l z.k f.w R.T.l R.e f.U.l Z.r.j ",
"a.f.k.k e.f.p.k t.f.r.e.D H.l.f.b.u.n p.p.p.k u.i.i.a.b K.B f.B.h.e.f.k D V j.t.t.e.s I.h r.M.y.z Z.p e.l f.r.t.k w J.k u.z.a.j ",
"k r.k <Xr.j r.Z.u.r.6XS p.a.r.n e.q.3Xq.k l T.u.u.2Xn l.k.t.B t.e.5Xe.q.s 3Xt.t.3XS t.Z.u.B t.e.U.r.a.q 1Xt.t.z.t.q.K.t.B q.u.f.",
"k f.j a.S 1Xr z.x.t.u.t.q.f.t.G.k.t a.n 1Xk f.u.u.a.a.n x.t.2Xu.w e.k K.n f.w.t.t.t.k H.u.3Xr.e x.y t.q.a.r.l.l z g L.t.2Xk.g U.",
"t.K.p f.r.k.k.r z.f.g t.y u.k a.E.M r.p.l.u.k f.p.j u.z t.q.u.3Xt r.i.H.p.D a.r.g b.K.w.F j.6Xg c.u.E.r.r.r.r.S E.3Xw.w.r.|.B G.",
"g f.f.s f.a.t.k.l S f.T.u.t.f.S k.r.h f.r.u.h.D e.a.J.u.H.t.u.f.f.y r.n.f.h.0.q.y.H.u.3Xi.i.t.f.l k K.t.a.e.r.e.z.t.3Xu.u.f.f.y.",
"q.q.z.q 2Xr f.s k U.q.r.j Z.r.r.S f.e 1Xg f.k s T.t.r.n Z.w.w.z a.e |.h k.S p T.l.S q.G.w.w.h w.B x.q.a.e.p Z.k.q.t.G.u.w.B q.u.",
"t.k.z |.r.t.n S l u.q.k e.k x.k Z.n  Xe.f.S j e u.y.j D q.L.r Z.k |.e.r.r.r r a.a.S q.w.E.t b.B Z.u.D p.s t k.S r.q.w.T.y x.y.t."
};
