/* XPM */
static char *a709520eb7084e19d4003b99a4673d5dYvSkm3mEU9NuRPm2[] = {
/* columns rows colors chars-per-pixel */
"64 68 242 2 ",
"   c #483E05",
".  c #563D05",
"X  c #683A09",
"o  c #783808",
"O  c #76330B",
"+  c #3A5913",
"@  c #2B650A",
"#  c #2D6A0E",
"$  c #28650C",
"%  c #2E6A12",
"&  c #296711",
"*  c #336D14",
"=  c #346E19",
"-  c #3B6A17",
";  c #2E7314",
":  c #357115",
">  c #397316",
",  c #36721A",
"<  c #3A751C",
"1  c #3D791D",
"2  c #36791A",
"3  c #316E0F",
"4  c #3B7621",
"5  c #3E7A22",
"6  c #377624",
"7  c #594609",
"8  c #59530B",
"9  c #4A5A17",
"0  c #585619",
"q  c #474D07",
"w  c #66480B",
"e  c #764309",
"r  c #624A12",
"t  c #774614",
"y  c #6A521B",
"u  c #6D5416",
"i  c #4A6618",
"p  c #57681A",
"a  c #417B1E",
"s  c #45751E",
"d  c #52721C",
"f  c #40680F",
"g  c #676716",
"h  c #6A711C",
"j  c #786B18",
"k  c #585D23",
"l  c #775223",
"z  c #4C6923",
"x  c #586924",
"c  c #437622",
"v  c #4B7423",
"b  c #427D24",
"n  c #4A7D25",
"m  c #437E29",
"M  c #4A7D2B",
"N  c #4C762A",
"B  c #577729",
"V  c #427F32",
"C  c #597B33",
"Z  c #686827",
"A  c #657728",
"S  c #696C32",
"D  c #657B35",
"F  c #737838",
"G  c #767127",
"H  c #7D7E44",
"J  c #861E00",
"K  c #8C2402",
"L  c #882908",
"P  c #922602",
"I  c #942A03",
"U  c #9A2B03",
"Y  c #942A09",
"T  c #9A2C0B",
"R  c #85360B",
"E  c #98350B",
"W  c #893914",
"Q  c #983915",
"!  c #A83509",
"~  c #B53C0B",
"^  c #A43B14",
"/  c #A9330A",
"(  c #894317",
")  c #964214",
"_  c #8D500D",
"`  c #BC420D",
"'  c #A34519",
"]  c #B94413",
"[  c #B9561A",
"{  c #857828",
"}  c #8A7033",
"|  c #A56C1B",
" . c #CB4C15",
".. c #C64A18",
"X. c #D64E13",
"o. c #CA5518",
"O. c #D55214",
"+. c #DB5414",
"@. c #DE5915",
"#. c #D5531A",
"$. c #D9581A",
"%. c #CC4B0C",
"&. c #E55C16",
"*. c #E35B18",
"=. c #E2580F",
"-. c #DF631D",
";. c #ED651A",
":. c #ED6B1B",
">. c #E96418",
",. c #F26C1C",
"<. c #F16817",
"1. c #EF771D",
"2. c #F3721D",
"3. c #F2761A",
"4. c #D96821",
"5. c #CB7129",
"6. c #EA6B23",
"7. c #EC7923",
"8. c #E77525",
"9. c #F47323",
"0. c #F57B23",
"q. c #F87C27",
"w. c #F06524",
"e. c #D95C22",
"r. c #8E7C43",
"t. c #A67E48",
"y. c #3F8229",
"u. c #458225",
"i. c #498426",
"p. c #4B8926",
"a. c #46822A",
"s. c #4A852B",
"d. c #4D892D",
"f. c #47882E",
"g. c #53842D",
"h. c #518B2D",
"j. c #5C832D",
"k. c #55912E",
"l. c #4C8631",
"z. c #4E8A32",
"x. c #4A8935",
"c. c #538432",
"v. c #528D33",
"b. c #548E39",
"n. c #5B8D3A",
"m. c #5A8834",
"M. c #559135",
"N. c #5A9435",
"B. c #569239",
"V. c #5B953B",
"C. c #5D9A3C",
"Z. c #5C9837",
"A. c #4F9130",
"S. c #678939",
"D. c #76863E",
"F. c #61943E",
"G. c #629B3D",
"H. c #6C983D",
"J. c #65812D",
"K. c #5FA13F",
"L. c #66A13F",
"P. c #5B9641",
"I. c #5E9A42",
"U. c #579540",
"Y. c #768642",
"T. c #629D43",
"R. c #659A45",
"E. c #6D9545",
"W. c #65A144",
"Q. c #6AA345",
"!. c #65A149",
"~. c #6BA54B",
"^. c #6CA94D",
"/. c #6CA844",
"(. c #72AA4D",
"). c #6EAB51",
"_. c #67A550",
"`. c #71AC53",
"'. c #76AE56",
"]. c #75B254",
"[. c #7AB45A",
"{. c #7DBA5D",
"}. c #79B356",
"|. c #75B14D",
" X c #7CBA62",
".X c #8F8532",
"XX c #A58B36",
"oX c #B68E37",
"OX c #D78C38",
"+X c #D08C35",
"@X c #EA8827",
"#X c #F58325",
"$X c #FA862A",
"%X c #F48C2A",
"&X c #FA8C2A",
"*X c #F78627",
"=X c #F5942D",
"-X c #FB942D",
";X c #FA9A2F",
":X c #F7992D",
">X c #E89637",
",X c #F59B33",
"<X c #FA9C33",
"1X c #F99833",
"2X c #E79132",
"3X c #FCA33A",
"4X c #8D8B51",
"5X c #BA9844",
"6X c #BA8754",
"7X c #B08A4B",
"8X c #87AB5A",
"9X c #8CB05C",
"0X c #B69D6A",
"qX c #A89A66",
"wX c #82BA60",
"eX c #B4AC70",
"rX c #949762",
"tX c #CD9450",
"yX c #E59D46",
"uX c #D6A64E",
"iX c #E9A749",
"pX c #FFAD43",
"aX c #FAA741",
"sX c #FFB54B",
"dX c #FFBB4E",
"fX c #FFB147",
"gX c #F0B051",
"hX c #D89B68",
"jX c #D6A56D",
"kX c #C8A673",
"lX c #CEB178",
"zX c #E8AA78",
"xX c #EDB27C",
"cX c #83C061",
"vX c #FFC254",
"bX c #BEB780",
"nX c #D5BC88",
"mX c #CBBA88",
"MX c #EBB984",
"NX c #F1B682",
"BX c #D5C491",
"VX c #E5CA97",
/* pixels */
"1 d.v.^.V.s.h.N.h.d.s., M.h.b v.* l.h.Q.v.s.l.v.d.h.u.1 z.l.g.h.# d.s.C.u.s.d.h.d.M.N.u.s.i.v.s.* B.< d.1 s.s.v.d.~.W.d.h.d.v.s.",
"C.u.< a.d.a a u.u.G.`.< {.b < d.v.s.> i.v.b a.s.u.W.(.1 !.< * h.d.d.1 v.d.s.d.u.u.T.C.u.M.: : s.b v.u.T.v.s.s.i.i.M.M.s.s.: < v.",
"N.> d.b b s.b v.W.N.T.d.P.d.b i.d.> g.m m b 5 M./.Z.G.h.T.d.s.a.z.> M.v.u.a.1 C.W.M.C.N.W.i.d.d.z.< ~.W.a.s.1 N.C.d.v.C.W.i.v.v.",
"u.v.b.m a.b < s.h.d.u.s.a.v.b d.u.v.b.m s.b 3 u.d.p.u.d.d.N.5 s.5 M.v.u.s.1 @ u.M.d.a.a.v.Z.1 s.5 V.M.b s.1 # i.M.s.s.d.h.N.< v.",
"1 v.a.b b 1 s.N.Z.u.a.a.z.B., N.5 v.a.b b > b N.C.u.d.u.h.G.% B.4 v.s.u.u., > Z.N.u.b 5 M.W., s.< M.i.s.s.* < N.v.b 1 < N.G.< u.",
"s.5 b s.T.N.u.W.{.!.v.z.z.v.< V.a.b a.l.V.u.1 ~. XW.f.u.i.T.& b.a.5 1 s.v.> < ~.{.~.z.1 d.C.* v.m b > z.z.* b ~.W.C.v.* d.C.# s.",
"d.* a.!.T.v.s.M.T.W.).z., z.b b v.* m R.G.a u.M.C.~.~.s.u.i.1 1 z.& 5 M.s., u.M.C.!.T.b s.s.< b z.4 , b b * b v.M.v.v.5 s.u.b 5 ",
"~.u.4 P.s.5 M.M.s.v.B.4 = a.a.* (.b b C.s.b N.N.s.b.b.b 1 u.2 # `.b 1 v.a.5 N.N.s.M.z.a.s.u.5 * `.5 < a.b b T.v.s.M.s.s.s.b 1 b ",
"~.d.b 5 = 5 M.v.d.1 b 5 m s.a.v.~.x.y.4 2 M.W.N.l.M b M n.s.u.v.`.s.b u.a.T.~.N.d.a.a.v.T.d.b v.~.m b u.v.T.!.M.N.B.a.B.!.u.a.B.",
"z.s.l., s.v.b u.d.u.< l.z.< b.I.z.x.f.6 a.N.s.n m.M b m.R.s.v.P.l.z.z.5 s.!.d.b v.d.b B.).d.z.B.l.b s.s.s.R.d.b M.B.s.V.^.s.v.v.",
"d.a.l.m I.B.b u.s.v.< 4 z.5 a.a.s.l.s.b V.n.s s g.g.b b z.a.a.V z.s.s.d.s.v.< 1 d.s.5 v.b.u.d.b s.5 s.I.s.s.> 1 d.u.b B.M.s.s.b ",
"s.5 b m l.5 s.M.s.s.a.l.a.z.= z.d.v B A G g h G A A d j.s.V.5 x.l.b b M.v.m v.M.s.s.s.b s.V.b s.z.b s.N.v.a.b.M.h.u.s.a.a.N.u.s.",
"Z.u.a.b 5 < z.^.W.v.m s.I.R.5 R.c.p u _ 5.+XOX+X+X| g p S.Q.u.V.z.a.s.5 s.< W.[.W.v.d.< V.W.u.B.l.< M.i.s.4 W.}.M.V.v.< N.T.s.V.",
"d.b a.a.a.z.d.s.M.v.m z. X!.s.(.A 8 _ 5.8.1.1.8.@XOX5X{ J.d h./.z.< s.u.m u.s.s.M.M.5 < b * v.!.s.b T.< m a.v.s.d.h.< , a < v.I.",
"u.d.s.a.s.T.W.i.b.`.5 v.s.c b.i 7 _ 5.8.8.0.#X@X@X@XOXtX{ p m.> s.s.h.d.* s.s.u.N.Q.< d.C.b B.* M.b N.d., b v.a M.N.< a.V.b v.m ",
"a d.s.v.z.d.C.T.s.s.s.l.m c.R.p e [ 8.7.q.*X%X%X%X@X@X>X+X.X9Xh.* v.b d.v.d.h.s.s.s.s.d.C.N.{.d.& I.< s.v.v.s.M.i.u.d.v.G.G.wXs.",
"a h.d.W.V.s.v.B.v.v.M - R.c.M g _ 4.8.#X#X%X<X3X<X=X=X@X>XXXA N.* z.s.C.s.s.d.h.h.v.Z.i.i.d.d.M.* M.a v.b i.d.h.h.Q.^.v.h.d.M.h.",
"V.u.a i.z.b 5 a.s.R.8XB 4XA x w _ 4.7.#X&X<XsXdXdXpX;X@X@XyXh j.c.a.5 M.v.d.s.s.s.G.G.h.G.1 2 f.s.d.b T.N.s.i.u.u.v.h.v.N.1 a M.",
"M.: C.u.m a.b b.Q.J.Z 7 r w X o o.9.q.$X&XaXdXdXdXdX3X=X@XyX{ p B * W.d.s.i.< I.!.M.h.k.L.g.c.4 d.< T.C.i.s.1 M.C.v.d.V.^.s.d.i.",
"5 ^.W.h.s.b < M A   . t o R E [ -.9.q.$X&X3XsXdXvXvXpX2X=X>X5XG f {.T.b d.2 # 5 z.f.u.p.N.Q.= x.< ^.b.< z.1 # u.h.s.s.d.N.W.< s.",
"< d.i.s.b 5 s.S.8 X W R Y ^ ..$.6.9.q.#X%X<XpXdXdXdXfX,X1X>XuXG f V.m l.f.; 2 W.I.l.m a C.!.% 5 = V.b u.s.* < T.B.u.1 > I.W.* < ",
"s.b b a.!.B.M Z e W L K T ..#.w.:.2.0.#X*X&X<XpXsXfX3X<X1X2XgXj d < m x.z.; 1 ^. X_.v., i.C.% f.a.5 , z.d.* 5 ).~.T.v.* s.V.& u.",
"v.* a.~.I.m.x 8 ( E Y K / ..*.&.>.:.2.0.*X%X=X,X3X3X,X,X<X2XiX| h - c b.s.* 1 A.V.!.U.a.u.s.2 1 f., < 5 5 * b v.z.B.M.5 a.u.b < ",
"~.u.5 P.a.v p y Q T K K ! #.@.>.;.,.<.3.#X*X%X=X=XfXpX3X1X,X>XuXXXq d m.M m T.N.i.v.b.a.s.i.2 2 ^.b < b a.5 !.M.s.v.s.s.s.b < s.",
"T.d.m 5 % M x l Q Y L K !  .+.&.;.<.<.3.q.&X&X%X=XpXdXpX<X,X,XaXgXoX8 i S.F.V.N.N.v.a.v.T.d.i.C.T.5 m s.I.V.I.v.B.N.s.z.!.s.s.V.",
"d.z.x.= f.F.9 l Q Y K K !  .X.&.;.<.<.2.0.q.#X&X-X<X3X<X<X;X,X,X2XiXuX{ p D.v s m.N.m v.!.s.v.b.l.b s.z.v.V.b b M.z.b B.T.s.v.z.",
"f.a.s.b I.m.9 u ) U L L U ] X.+.&.;.<.,.2.0.q.$X&X-X=X:X:X;X;X=X=X>X>XiXoXg i a m u.u.z.c.M M 4 s.a.z.B.s.v.< < s.5 b v.d.b a.5 ",
"x.m m b d.v x r ) E K K K ~  .X.+.*.;.<.,.9.0.0.&X&X-X1X:X:X;X1X=X=X%X2XyXoXh j.g.s.a.5 d.R.4 a.z.5 z.B.v.b M.T.v.a.s.b s.N.b s.",
"P.M i.a 5 c C Z ( Q I K K I ~  .#.$.>.<.,.2.9.0.&X&X&X-X=X;X1X-X;X;X1X@X2XiXoX{ S.V.a.4 B.C.5 B.z.< B.b s.1 W.].M.C.v.5 N.I.u.I.",
"c.b i.h.a.v.c.p w ) E P K K U ~ ..#.&.;.;.,.9.9.#X&X&X&X=X:X-X-X-X-X-X1X@X@XyXoXh S.b m i.: z.I.d.b W.1 b u.d.s.v.d.< < b < b.C.",
"a.M.d.s.s.R.Q.B 8 t ' T Y Y P U ! ` X.=.&.:.9.2.0.#X$X&X=X=X-X-X-X-X=X1X%X%X@XyX{ S.s s.N.u.N.> M.a v.v.> b v.1 v.N.a i.N.b B.b ",
"4 f.s.B.b.d.M.G.x . ( ^ E Y Y I I ! %.O.@.>.6.9.2.0.#X#X&X-X&X-X-X-X:X=X:X%X7.OXXXp g.h.G.N.wXh.# G.1 d.z.d.v.v.u.u.i.h.G.C.{.d.",
"< d.z.C.B.s.d.M.g.p . ( ' T T T I U U ` #.@.>.;.2.3.1.#X%X&X&X&X-X&X-X:X%X%X7.+X5Xp H.h.h.i.v.~.* N.i.T.s.s.l.d.s.G.].G.h.d.M.G.",
"v.b s.z.z.u.u.u.s.E.D.7 t ( ' Q E T T / ` O.@.:.<.2.1.1.#X$X&X&X*X&X%X&X&X#X7.5.XXA H.G./.i.i.h.d.1 b C.b.l.s.a.s.M.k.G./.i.i.N.",
"M.* ^.s.a u.1 v.~.j.B i p 7 t ( ^ ^ / / ~  .+.=.;.,.2.2.1.q.$X$X#X&X&X$X$X0.>.5.{ B g.h.L.h.d.> d.2 I.M.z.s., B.N.h.d.N.W.M.s.a ",
"2 ].W.h.s.b 2 m h.n < u.s D 7 w o Q ^ / ! ` O.X.&.:.,.,.2.0.0.q.#X$X$X#Xq.6.$.5.8 B n s.M.~., s., ^.v.< s.< @ u.h.i.s.d.C.T.< s.",
"1 d.b d.1 1 a.T.Q.s.h.s.v.F.i B q w ) ^ ! !  .O.*.>.>.:.:.:.2.2.1.1.7.6.-.o.[ _ A j.M 5 N.W.% 5 > v.b m a.< 2 W.N.i.1 1 N.T.& < ",
"s.> b u.W.C.u.W.wX(.v.s.a.v., n.N 8 o E ! / ~  .O.*.&.;.:.:.,.,.2.:.6.e.o.' _ G 9X^.b.< m C.% f.u.1 < z.z.: 1 ^.^.T.N.@ u.C.& m ",
"z.< a.W.C.s.s.M.C.T.F.s.< v.b b v.9 X Q T U U ]  .+.+.&.>.:.;.>.>.@.#.] ) e 8 A S.C.B.a.a.s.5 < z.< 5 a.b # i.d.v.N.d.b s.a.b 4 ",
"C.a.b M.5 1 M.B.s.v.!., b C.b B.G.x . ( Q U K I ]  .O.+.+.@.@.+.$.o.~ E O w D.S.M V.B.5 s.1 b B.I.b < a.s.5 I.M.s.v.d.s.a.b 4 B.",
"V.v.m b @ x.U.z.V.T.v.b c.b.s.^.V.j.0 X Q T Y K P ]  .O.#.X.#.O.` ! R O l } k m.R.R.l.m C.h.i.`.b.5 b z.~.N.v.d.N.N.a.s.P.s.s.R.",
"b.d.c.< s.V.x.a.M.U.a.s.v.s.a.B.n.g.x . ( Q L K J K ! ~ ....~ ! E o X l 0XVXrX+ n.N.m b.R.b v.v.l.l.s.v.I.B.1 1 v.d.b v.T.a.z.d.",
"b a.s.b C.v.a.a.5 f.u.s.l.5 5 5 s.g.c.9 7 ( W L K K P K I P P L o r Z k 4XmXVXH z M s.s.s.b s.1 l.a.d.C.d.d.b < i.1 b z.s.b d.< ",
"z.z.b b M c b.!.x.a.a.f.a.z.: b.s.a.b B 0 . O W L L L L L O R O 7 x C B S 4XnXBXY.v c.b h.C.b a.x.< v.N.v.b V.I.v.d.d.m v.I.u.i.",
"C.u.b m a b h.!.W.s.s.s.I.T.< T.z.5 m c z 9 0 y t W W R W o X y z N C v z z 4XBXBXY.v b N.C.5 B.z.< N.< d.< C.`.M.M.d.< V.C.i.C.",
"x.a.z.s.s.z.d.d.C.V.s.v.).I.b.B.x.a.d.c.m c.C x Z y X X X r Z D c.m b.M c N k qXmXbXD v m.* v.G.d.b I.b 1 d.v.s.v.z.5 b d.< d.M.",
"5 B.M.d.i.n.G.h.N.~.b z.s.m g.b b I.z.l.b n.V.g.S.E.x A J.B S.v b B.g.g.< b.C 9 qXnXeXF E.M C.b s.v.d.d.> N.M.i.v.b.5 z.N.i.M.i.",
"< s.u.T.v.i.v.V.s.s.d.u.s.s.R.F.& a.a.R.v.s.d.d.f.d.i.i.v.N.}.V.$ d.a Z.z.l.c.z k 0XBXmXY.S.8XN.@ C.5 z.d.d.i.v.s.b z.v.C.C.}.h.",
"< s.d.v.v.b u.v.u.b d.1 d.< h.}.# a.d.v.m.m d.s.b u.h.i.h.u.N.{.* b i.T.v.a.z.c.9 S 0XVXnXS D 8X- b.d.^.v.s.s.f.u.V.{.`.h.i.Z./.",
"v.< v.v.d.d.u.b s.N.~.d.h.v.i.h.d.* d.v.z.l.a.s.v.M.Q.M.G.h.h.v.s.5 m N.h.z.f.l.C z F kXVXVX4XD B c c R.n.g.g.s.d.d.M.G.].h.h.h.",
"M.* ).a.u.b < v.W.d.u.1 N.s.i.1 d.> }.s.a.a.< B.T.h.i.u.C.d.s.< d.& '.z.d.f.; U.R.C 9 r.kXVXVX0XF x D C N z + c.P.d.i.Z.G.h.i.u.",
"< [.T.v.u.b 1 u.s.a : u.1 V.> s.* [.V.z.s.4 * < v.< > b i.G.* d.*  Xb.b f.2 % 5 z.b z 0 r.kXMXMXlXqX4XF F F F x N s.s.s.Z.G.2 u.",
"5 s.b b 1 1 u.C.!.s.h.d.d.M.1 d.5 z.5 a.a., b ~.Q.i.d.s.M.W.& a.2 z.5 a.x.: 1 ~.!.z.N 9 0 t.jXNXMXMXlXlXlXnXlXqXD N b , C.T.% 2 ",
"s.* b s.v.v.u.C.{.(.T.d.< M.: v.s., s.s.v.l.b ~.cX].C.a.u.M.$ z.a.: 5 B.z.5 u.(.{.).P.N k y t.zXNXzXzXNXNXNXMXnXrXS.n., c.v.$ y.",
"d.a.z.T.z.b d.M.C.M.M.u.# d.1 u.z.5 z.I.b.< s.v.M.N.M.u.1 s.b 4 x.5 f.B.z., a v.V.b.z.M D 0 } 6XNXxXhXhXzXxXxXxXrXD N s.s.s.a.5 ",
"v.d.u.z.< 1 z.N.d.N.~.: d.!.1 ).v.s.a.v.b < B.C.s.N.!.< s.s.4 '.b.a.b z.s.< V.V.s.P.B.b N z   7XjXNXxXtXtXtXhX6XF C m.m s.< < W.",
"v.z.f.5 & z.V.z.C.^.M.b v.M.s.'.B.z.s.5 b v.d.d.T.~.z.b B.v.a.[.v.v.s.m C.v.s.d.R.~.z.m P.C x } 6XxXNXjXr.G F Z j.N.s.i.V.s.s.W.",
"z.z.z.< z.V.s.b B.N.u.s.z.s.s.v.z.z.z.< B.B.1 1 M.V.s.s.B.b l.l.v.l.s.u.N.M.< 5 V.N.a.b.I.N D   7XzXNXkX4XD i v m.d.a h.G.b h.s.",
"m s.s.5 V.z.s.z.5 s.a.s.s.4 b m a.a.a.s.b.d.i.a b s.a.l.s.b d.b l.a.d.v.d.v.s.4 b f.y.f.s.N C q t.tXjXkXF C C c u.u.u.z.s.s.s.5 ",
"l.a.a.b b < v.T.z.z.a.s.l.v., B.a.s.u.u.m b M.G.v.s.m s.v.v.u.v.f.a.f.s.d.b n.T.z.z.a.5 c.E.N i l t.7X.XB v n.P.f.z.s.m l.P.l.x.",
"V.b a.s.5 5 s.I.C.s.m s.I.I.b R.v.a.a.b b 5 d.W.V.s.m s.T.M.b T.z.a.z.5 s., v.Q.V.f.u.u.F.m.s.m.x A D.d n , V.R.v.b.M b R.v.d.Z.",
"z.M.d.a.s.s.s.z.V.V.s.d.I.b.s.b.v.B.d.s.b d.b.v.V.V.m z.V.i.i.N.f.I.z.m 4 v.V.h.Z.M.a i.F.b d.C.c.m.n.a 1 z.v.z.v.l.c s.T.b i.v.",
"1 W.v.d.i.d.V.v.G.~.i.s.d.d.d.d.5 ).d.v.u.V.C.h.T.!.s.z.v.d.C.i.1 `.s.z.b R.C.d.K.Z.i.h.G.v.N.d.b ~.m l.* !.Z.d.v.s.b h.Z.h.N.i.",
", s.i.~.M.a.v.M.s.s.s.m h.s.T.T.& a.b ~.v.a.v.d.z.d.s.s.N.M.].G.@ i.b R.l.l.x.f.p.p.s.h.C.N.].C.@ V.5 b.z.a.d.v.u.u.d.k.Z.N.}.N.",
"1 i.s.d.B.5 a.v.u.b z.5 d.1 v.].* s.s.v.v.a.s.d.b u.v.s.d.u.M.[.* m s.T.v.s.l.f.u.d.W.C.k.p.M.[.< v.s.`.v.z.u.d.u.N.[.].h.p.M.^.",
"v.< v.d.a.v.a.b d.N.!.s.h.d.u.d.h.* v.d.z.z.m a.d.N.!.v.W.d.d.z.v.> d.N.v.z.m f.d.M.N.N.|.p.M.s.h.a 1 I.V.z.s.u.d.v.b.T.|.h.h.v.",
"M.> ^.d.a.5 < v.C.s.5 5 G.u.s.u.d.* '.a.s.b 4 z.W.u.b a.N.p.s.1 d., /.i.s.b 4 b.T.s.s.h.Z.p.i.> s.b N.s.s.b * v.N.s.s.M.G.h.u.u.",
"1 ].N.s.a.b 4 a.d.1 b b 1 Z.< C.b [.b.d.s.2 & 5 s.i.< s.d.W.# T.b [.v.d.s.2 $ 5 d.i.5 u.M./.> T.a T.v.b z., # u.s.s.u.u.N.L.> N."
};
