/* XPM */
static char *result[] = {
/* columns rows colors chars-per-pixel */
"64 64 118 2 ",
"   c #202124",
".  c #1E6EB8",
"X  c #1D72B6",
"o  c #1E74BB",
"O  c #1E79BD",
"+  c #2277B7",
"@  c #2075BC",
"#  c #227ABD",
"$  c #297BBD",
"%  c #1F74C0",
"&  c #1F7BC3",
"*  c #2176C2",
"=  c #217BC2",
"-  c #287EC2",
";  c #217FC8",
":  c #1F81C6",
">  c #2281C6",
",  c #2B84C5",
"<  c #2E88C5",
"1  c #2284CD",
"2  c #2F86C9",
"3  c #2589CD",
"4  c #298BCD",
"5  c #338BCB",
"6  c #2C92CF",
"7  c #3390CE",
"8  c #3B91CD",
"9  c #2385D0",
"0  c #258CD3",
"q  c #2A8CD2",
"w  c #2B8FD8",
"e  c #2693D5",
"r  c #2B93D5",
"t  c #2794D8",
"y  c #2A94D9",
"u  c #2D9BDC",
"i  c #3495D5",
"p  c #3B95D2",
"a  c #3599D6",
"s  c #3B99D2",
"d  c #3496D8",
"f  c #3499DA",
"g  c #3B9DDC",
"h  c #3EA2DE",
"j  c #2E9DE2",
"k  c #319EE1",
"l  c #2FA1E2",
"z  c #31A4E5",
"x  c #33A6EB",
"c  c #35ABEC",
"v  c #39ADEE",
"b  c #36B1EE",
"n  c #38B0EF",
"m  c #37AEF0",
"M  c #39AEF1",
"N  c #37B1F1",
"B  c #39B3F3",
"V  c #37B7F8",
"C  c #3CB7F9",
"Z  c #4294C7",
"A  c #4194CB",
"S  c #439DD4",
"D  c #439ED8",
"F  c #45A2DD",
"G  c #4CA4DA",
"H  c #4CAADF",
"J  c #50A2D4",
"K  c #50A5DA",
"L  c #53AADC",
"P  c #44ACE5",
"I  c #4DACE4",
"U  c #45A9E9",
"Y  c #4EAEE8",
"T  c #54AEE4",
"R  c #5AAEE1",
"E  c #45B4EF",
"W  c #54B0E5",
"Q  c #5DB3E5",
"!  c #56B3EC",
"~  c #5BB5EA",
"^  c #5DB9EB",
"/  c #44B6F2",
"(  c #46B9F2",
")  c #4CBDF5",
"_  c #54BCF1",
"`  c #5CBEF4",
"'  c #62B4E4",
"]  c #62B9E7",
"[  c #62B7ED",
"{  c #63BAEB",
"}  c #6ABEEC",
"|  c #56C0F6",
" . c #5EC1F4",
".. c #66C1EE",
"X. c #6CC2EE",
"o. c #72C4ED",
"O. c #7AC6EC",
"+. c #78C9EF",
"@. c #66C4F3",
"#. c #6CC3F2",
"$. c #6ECAF7",
"%. c #6DCCFB",
"&. c #74C6F2",
"*. c #79C7F3",
"=. c #75CAF4",
"-. c #7CCCF4",
";. c #75CCF9",
":. c #7CCEF9",
">. c #7DD0F7",
",. c #77D1FC",
"<. c #7DD2FA",
"1. c #86D0EF",
"2. c #82CEF4",
"3. c #81CFFB",
"4. c #85D2F6",
"5. c #89D3F5",
"6. c #85D3F9",
"7. c #89D4FB",
/* pixels */
"                                                                                                                                ",
"1 1 1 1 1 1 1 1 1 6.9 1 1 1 1 1 1 9 1 1 1 1 ^ 6.6.6.B 0 1 1 1 1 1 1 1 1 1 1 j B o o o o o o o 1 W 4.6.4.6.6.+.o o 1 1 1 1 1 1 1 ",
"1 1 1 1 1 1 1 1 1 6.4.> 1 1 1 1 B M M N B 1 ^ 6.* C 9 1 1 1 1 1 1 1 1 1 1 1 ; o n o o o o : 9 2.+.:.# % % 1 6 3.9 : 9 1 1 1 1 1 ",
"1 1 1 1 1 1 ! { { 6.4...{ { { { t t t r 4 z @.6.~ C l x z z = 1 1 1 1 1 1 1 ; @ 3 l z l h ~ ^ h h g 1 o & 1 0 h { 3 9 1 1 1 1 1 ",
"1 1 1 1 1 r &.-.=.=.=.&.&.&.:.*.4 4 1 1 X x ` +.4.( M c v c = 1 1 1 1 1 1 1 & o o v v B / =.:.9 1 1 1 o : 3 1 : 6.1 1 1 1 1 1 t ",
"1 1 1 1 1 4.6.#.1 1 1 o o o B o 4.G o o o o o X 4.4.o o o o B 1 1 1 1 1 1 1 1 1 1 1 : Y 6.1 B 3 1 1 1 1 1 1 9 : 4.1 1 1 1 1 1 -.",
"2.5 1 9 4.6.d r v N 1 o o o B o o G 6.o o o o . 4.6.6.<.O.o B 1 1 1 1 4.9 1 1 1 1 1 -.I 1 1 1 B y 1 1 1 1 1 1 0 e 6.p 1 1 3.3.$ ",
"2.5.6.6.: : 9 9 9 9 C B B B o o o o o 7.o o Q 7.6.o o o $ 4.2.4.4.4.6.1 6.6.L 1 1 1 -.H 1 1 1 N y 3 1 1 1 1 1 1 9 : ..4.4.o o o ",
"5 &.;.( 9 9 : 9 1 1 > > > > o o o o O 7 } } :.7.< o o o @ 5 ( a f a f 1 a d Y ..1 X.) n x x c q 9 1 1 1 1 1 1 1 1 1 } 6.4.o o o ",
"@ o.-./ 0 : 9 9 1 1 o o @ o o o o o X X 6.6.:.&.@ o o o o o B 1 1 1 1 1 1 1 U &.4 ,.B v v v v 1 1 1 1 1 1 1 1 1 1 1 @.6.5.o o o ",
"o &.6.5.B 9 9 : 1 o o o o o o o o o o X 6.6.A o @ o o o o o B 1 1 1 1 1 1 1 1 9 4.B # @ o o o 1 1 1 1 1 1 1 1 1 1 1 @.6.2.o o o ",
"o > f 6.9 B e : 1 o o o o o o o o o o X o 6.A o o o o o o o o B B B B 1 N B N C 4.@ o o o o o o ; 1 1 9 1 1 1 1 1 1 } 6.5.o N B ",
"o : f 4.6.9 v x 1 o o o o o o o X o X X B 4.| B o o o o o o B 1 1 1 1 B 1 o o o 6.@ o X X o o o o o o 1 1 1 1 1 1 1 #.4.7.B o o ",
"o : f 6.6.9 c x 1 o o o o o o b c b N c : 5.1.,.c o o o o o B X 1 1 1 1 B m y % 4.v b v b b o o o o o o 1 1 1 1 1 -.6.;.q 1 o o ",
"o ; f 4.6.: v x 1 # o o o o # b b v b c o +.4.6.B o o o o X B o : 1 1 1 v m t & 6.v x c c c & o o o o o : 1 1 1 9 2.-.#.1 9 o o ",
"o 1 a 6.6.3 c x 1 1 o o o O n o X X X o o o ^ 6.n o o o o o B o 1 1 1 1 : 9 u C 4.@ o o X o B o o o o o 1 1 1 1 1 7.f 1 1 1 1 O ",
"o > f 2.4.9 m z 1 1 B B B n o o o o o o o o Q 6.o B C = # B X o o % 9 9 9 : : 9 4.@ o o o o o B r o o o 3 : : 1 6.6.6.:.1 1 1 1 ",
"o X 5 5.: C M B B B o o o o o o 1 1 1 o o o Q <.o o o v n O o o o X o 1 9 9 9 9 4.4.* o % o o V q o % % % ^ 6.6.6.1 } 6.4.6.1 1 ",
"o x ( 5.B 1 9 1 1 1 o o o o o 1 1 1 1 o o 4.6.6.o o o @ & B o o o o o 1 1 1 1 9 6.@ 3.6.6.6.6.6.6.6.6.6.6.6.=.1 9 1 1 1 1 6.1 B ",
"3 f P 4.u 9 1 1 9 1 * o o o & 1 1 1 1 O o 4.} ! & & & @ o u r o o o o 1 1 1 1 0 4.@ L R R R R R ^ @.R 6.R ~ W 1 1 1 1 1 1 ~ F z ",
"b = 5 4.o 1 1 9 1 1 1 @ o @ 1 1 9 : 9 : o 4.F : 1 9 1 @ o o B o o o o 1 3 : 9 : 6.o o o o o o o j m % 6.o : 1 1 1 1 1 ; 1 9 4.w ",
"C ;.4.4.o o o = 1 1 1 1 1 1 1 1 9 9 9 9 9 6.7.6.7.1 1 1 1 1 B @ o o o o 4.6.6.6.1 o o o o o o o t v o 4.o > 1 1 1 1 1 0 B B 7.r ",
"7.6.5.4.. o @ o 1 1 1 1 1 1 1 1 1 : : 9 6.7.h 1 9 6.1 1 1 1 1 B O 8 6.6.9 1 1 9 7.6.6.G . o o o o O B 6.o : 1 1 1 1 1 0 B 1 1 -.",
"o o 5 6.4.6.r 1 9 9 ; 1 1 1 1 1 1 Y 6.6.3 1 1 1 1 1 4.r 1 1 1 6.6.{ 1 3 1 1 1 1 1 o o G 3.o o @ L 4.6.B o o % 1 1 1 x c 1 1 1 -.",
"f o $ 8 A 6.[ ~ ^ ^ ^ ^ ^ ^ ^ ^ ^ K A Z & & 1 1 1 : 6.{ ^ ^ ^ S  .P 1 1 1 1 1 9 & o o G 2.' ' Q H Z Z C o o @ 1 1 1 x b : 1 1 :.",
"V > o + o 4.6.5.6.4.6.6.6.6.3.5.6.J o o o o & 9 3 9 6.7.4.4.6.1 B x 1 1 1 1 1 1 o o o G 6.6.4.4.S o @ B @ o % 1 1 1 x m 9 1 1 -.",
"N > o o 1 1 1 r 6.1 1 1 1 1 1 1 1 ; o o o o o o o 9 9 $.4.4.9 1 M x 1 1 1 1 > o o o @ G 6.6.o o X o o B o o o X 1 1 x c 1 1 1 1 ",
"o v x 1 1 1 1 9 1 6.9 1 1 1 1 1 o o o o o o o o o o o o , 4.o 1 M x 1 1 1 1 1 1 1 1 @ G 3.@ o o o o o B @ o o o o 9 x v 1 1 1 1 ",
"1 3 e N : 9 9 : 1 1 2.1 > o o o o o o o o o o o o o o o - 4.o o m x 9 9 1 1 1 1 N N 9 Y 3.o o o o # b O o o o o 1 1 1 0 m 1 1 1 ",
"1 1 9 t x x x j 1 = 4.> o @ o o o o o o o o o o o o o o - 4.o z e t 1 : x x x x e e x k g } . o q z e > o o o o 1 1 1 1 e x 1 { ",
"1 1 1 9 m N C z 1 o -.$ = o o o o o o o o o o o o o o o - 4.@ v 0 1 9 3 M m M M 1 1 m j 1 -.# = f c 1 1 o % o o 1 1 1 1 1 B 9 :.",
"9 1 3 : 9 : m B B o o -.{ o o o o o o o o o o o o o o o $ 4.B o m N N N 9 1 1 9 1 1 m j 1 o 6.6.U 9 1 1 1 1 1 1 1 1 1 1 1 1 B -.",
"B B B B N N 0 0 B o o O.{ o o o o o o o o o o o o @ o o.-.o o o o o o o o 3 1 1 1 1 1 u B B B 9 W >.: 1 1 1 1 1 1 1 1 1 1 9 B :.",
"6.4.4.4.6.3 1 1 9 B o -.{ o o o o o o o o o Q 6.2.4.2.4.=.o o o o o o o : 9 1 1 1 1 1 9 9 9 V : 9 q 5.9 1 1 1 1 1 1 1 1 1 1 B 2.",
") 7 < < r &.#.` 1 N &.< > @ o o o o o o o } 4.<.2 ( < &.-.o o o o o o o 9 1 1 1 1 1 1 1 1 1 0 x t 3 4.3 1 1 1 1 1 : 9 1 1 1 ;.6.",
"C = o o 1 #.X.~ d ( 7.* o @ o o o o o o 5 6.=.#., x o ' { < o o o o o o 9 1 1 1 1 1 1 1 1 1 1 v y r X.d 9 1 1 9 1 d d y 3 d 6.#.",
"B O o o 1 1 1 w 6.6.6.= o o o o o o o . 6.6.A o B o o o - 4.o o o o o o 1 1 1 1 1 9 1 1 1 1 1 1 l m 1 6.: 9 1 : 1 7.6.;.: 6.6.q ",
"o o o o 1 1 1 1 1 1 7.= o o o o o o o X 4.o o o B o o o - 4.o o o o o o 9 1 1 1 1 1 1 1 1 1 1 1 z B 6.1 5.6.6.4.4.1 x / 4.1 1 1 ",
"o o O 1 1 1 1 1 1 1 4.7.[ @ o o o o o 4.4.o f B o o o o # o 6.6.+ o o o o 1 1 1 1 1 1 1 1 o 1 1 1 3 4.1 9 1 1 1 9 B t 1 0 7.1 1 ",
"o o O 1 1 1 1 1 1 1 q 6.:.;.: : &.=.+.4., c e > o o o o o o = # &.-.-.X 1 1 1 1 1 1 1 ; o o 1 1 Y =./ 9 1 1 1 1 9 B t 3 : 3 :.3 ",
"> = o 1 1 1 1 1 1 1 1 ^ X.6.g h 6.:.$.%.> z r 3 o o o o o o o o W ' { 8 g 9 1 1 1 g g s 8 8 h 9 T <.B 3 1 1 1 1 1 B t 1 1 1 3.4 ",
"B = o o 1 1 1 1 1 1 1 1 s 4.6.6.4. .B B B o k B o o o o o o o o o o @ 6.4.1 1 1 1 6.6.4.6.4.6.9 W <.B 1 1 1 1 1 9 B e 1 1 1 2.# ",
"B = o o X o o o o 9 1 1 1 1 1 4.9 1 1 1 @ @ k B o o o o o o o o o @ # 6.O 3.<.6.6.9 1 = o X o 2.| v o o o > 1 1 9 1 x m 1 1 7.q ",
"# o o o o o o o o X 9 1 1 1 4.3 9 1 1 1 @ @ k B o o o o o o o o o p 4.6.o 9 9 9 9 1 o r B N N 6.| B N X o o @ o 1 1 x v 1 1 6.q ",
"o o o o o o o o o : 9 1 3 9 6.<.1 1 1 9 > o k B o o o o o o 3 O.O.] q 4 1 1 1 1 1 1 x r O o = 2.F # = v v 3 o X o 1 x v 1 1 4.q ",
"o o o o o o o o O 9 3 1 : : ~ 6.F F k 1 1 q y z o o o O O & h ~ ~ G 1 1 1 1 1 1 1 1 m t o o o 4.S @ o u j r 3 o o t l z 1 1 2.q ",
"o o o o o o o = 1 1 1 1 9 9 : 6.6.6.6.9 9 B 4 o o o o 1 1 3 6.1 1 1 1 1 1 1 1 1 1 1 N r o o o -.S o o o o k v o o B q 1 1 1 7.q ",
"o o o o o o o * 1 1 1 1 1 1 9 6.9 : 9 6.1 B 4 o o o 1 1 3 6.1 1 1 1 1 1 1 1 1 1 1 1 N r o o o o L :.o o o o = B o N > * 1 > 3.q ",
"o @ o o o o o = 1 1 1 1 1 1 1 6.o & 9 7.7.: l B : 1 1 =.5.4.1 1 1 1 1 1 : 9 1 1 1 1 @ y N o o o o $ 4.X X X # b o o z c . 7.3 1 ",
"2.- o o o o o o 1 1 1 1 1 1 2.* o : 3 9 6.6.h 9 N B b ;.6.4.1 1 1 1 1 1 9 % o o o o o t B o o o o # 6.>.2.-.o.O + -.2.4.+.B 1 1 ",
"5.7 4 > 4 4 1 q t t 1 1 1 3 6.X o & 1 1 %.6.W h | | _ ` { 6.1 1 1 1 9 : ; o o o o o o r B o o o @ # 4.' ' ..@.p p 6.} { { z t t ",
"1.E B B n B B M B B 1 1 1 > 6.X o & 1 1 B <.6.6.<.<.6.d 4 6.1 1 1 1 1 o o o o o o o o r B o o o o # 4.o o z / 6.6.6.i 1 1 1 B B ",
"4., o o o o o o o o N 0 s 4.4.o o ; 3 N 9 1 1 1 : 9 : N m 9 4.1 9 r N B # o o o o o o r v o o o o $ 4.o o z x @ 4.6.a 1 1 1 1 1 ",
"o o.4.4.o o o o % o o >.6.6.B o B B B 9 9 1 9 9 9 9 o x N 0 4.1 M x 1 1 M & o o o o b r o o o o L 6.5.o o o = B @ 6.6.7.6.7.6.4.",
"o o 5 6.6.6.4.4.6.6.4.4.6.6.o B o o o o o o o o o o o o & B N 6.0 1 1 1 1 N r o o @ v r o o o 2.4.-.o o X o o o B 6.i > 1 1 1 1 ",
"& & 4 Y I I Y I I I I I Q 6.+ r r 1 o o o o o o o o o o & j j 6.3 1 1 1 1 u y u r y r 1 o o J I G D o o o o o @ j 4.i 1 1 1 1 1 ",
"1 1 1 9 1 1 9 1 1 1 1 9 p 6.o o B r @ o o o o o o o o o o 1 1 6.4 > 9 1 1 1 j B B B = + + O 6.o o o o o % o o o 9 3.a 1 1 1 1 1 ",
"1 1 1 1 1 1 1 1 1 1 1 1 s 6.o o B r @ o o o o o o o o o % 1 9 6.2.] 9 9 9 9 y C o o -.6.6.6.o o o o o o 9 1 9 : 9 5.p 1 1 1 1 1 ",
"1 1 1 1 1 1 1 1 1 1 1 9 p 6.o o C t o o o o o o o o o o o 1 1 6.3 D 6.6.6.6.7.6.6.6.5.2.6.o o o o o 1 1 3 : 9 3 M 6.f 1 1 ; 1 1 ",
"1 1 1 1 1 1 1 1 1 1 1 -.{ o 6.4.o r v o o o o o o o o o o o 9 6.3 1 9 1 9 9 l B 1 1 2.H 1 1 o o : 1 1 1 9 9 9 N 6.1 1 1 1 1 1 1 ",
"* > 1 1 1 1 1 > & & { p 2 o 8 8 ] D 3 l o o o o o ' ' ' ' ' { D 0 1 1 1 9 1 l B 1 1 -.H 1 1 ; ; 1 1 1 9 z z z t 4.1 1 1 & * 1 1 ",
"o 1 1 1 1 1 1 > o = 6.@ X o o o 3.K + N o o = = = 2.-.2.-.2.-.1 1 1 1 1 1 1 j B 1 1 3.H 1 1 1 1 1 1 1 1 B B m 9 4.1 1 : o @ 1 1 ",
". 1 1 1 1 1 1 1 @ -.o o o o o o . G 7.B @ @ Q 6.5.o o o o o 1 1 1 1 1 1 1 1 j B 1 1 6.F 1 1 1 1 1 1 1 N 1 1 : 0 5.1 % o o o o o ",
"o o % 1 1 1 1 r 4.o o o o o o o 4.K @ 4.4.4.A o o o o o o o 1 1 1 1 1 1 1 1 j B N 3 1 I 4.1 1 1 1 1 1 N 9 1 t 6.o o o o o o o o "
};
