/* XPM */
static char *result[] = {
/* columns rows colors chars-per-pixel */
"64 64 169 2 ",
"   c #1D5C0E",
".  c #205E0E",
"X  c #225F15",
"o  c #1E6212",
"O  c #1F601D",
"+  c #23620E",
"@  c #256414",
"#  c #296615",
"$  c #266B15",
"%  c #2B6B16",
"&  c #24631A",
"*  c #2A651A",
"=  c #266B19",
"-  c #2C6C1B",
";  c #326C17",
":  c #31671C",
">  c #336C1C",
",  c #386E1E",
"<  c #257116",
"1  c #2B7016",
"2  c #277118",
"3  c #2D721B",
"4  c #317317",
"5  c #34731C",
"6  c #39731E",
"7  c #33791D",
"8  c #3C7A1E",
"9  c #2F6625",
"0  c #2F6B21",
"q  c #346C22",
"w  c #396F25",
"e  c #366C2B",
"r  c #396F2A",
"t  c #2E7121",
"y  c #357323",
"u  c #3B7524",
"i  c #367924",
"p  c #3C7A24",
"a  c #357229",
"s  c #3B742A",
"d  c #377C29",
"f  c #3D7B2A",
"g  c #3D7535",
"h  c #3F7C31",
"j  c #427C1E",
"k  c #417624",
"l  c #427C25",
"z  c #4A7F27",
"x  c #41762C",
"c  c #437D2B",
"v  c #497E2B",
"b  c #427635",
"n  c #4A7736",
"m  c #437D32",
"M  c #4B7E32",
"N  c #42723B",
"B  c #49733F",
"V  c #457A39",
"C  c #4C7A39",
"Z  c #3E8025",
"A  c #3E812C",
"S  c #3F8231",
"D  c #448225",
"F  c #4B8425",
"G  c #478826",
"H  c #4D8A25",
"J  c #45822C",
"K  c #4B852C",
"L  c #47892B",
"P  c #4D8A2C",
"I  c #538627",
"U  c #518C26",
"Y  c #51872D",
"T  c #528B2D",
"R  c #588C2C",
"E  c #4D9A2B",
"W  c #55922D",
"Q  c #5A942E",
"!  c #509F2B",
"~  c #5A982F",
"^  c #448231",
"/  c #4B8532",
"(  c #458833",
")  c #4E8A32",
"_  c #4C833D",
"`  c #518731",
"'  c #538C32",
"]  c #598E34",
"[  c #52873B",
"{  c #538D39",
"}  c #588F39",
"|  c #559133",
" . c #5A9433",
".. c #579833",
"X. c #5D9A34",
"o. c #559139",
"O. c #5B953A",
"+. c #5C9A3B",
"@. c #619C2B",
"#. c #619C33",
"$. c #689E36",
"%. c #609638",
"&. c #639D3B",
"*. c #689F38",
"=. c #55A036",
"-. c #5AA433",
";. c #5DAA33",
":. c #5DA43C",
">. c #64A02D",
",. c #65A134",
"<. c #6BA536",
"1. c #6BA936",
"2. c #65A23C",
"3. c #6AA53B",
"4. c #66AB3B",
"5. c #6DAA3C",
"6. c #70A73A",
"7. c #71AD3D",
"8. c #6DB33C",
"9. c #75B43C",
"0. c #78B53E",
"q. c #77B83A",
"w. c #79BA3C",
"e. c #588840",
"r. c #5B884A",
"t. c #639D43",
"y. c #66A241",
"u. c #6CA543",
"i. c #6EAB43",
"p. c #6EAC4A",
"a. c #70A747",
"s. c #72AD44",
"d. c #70A548",
"f. c #72AD49",
"g. c #6FB043",
"h. c #74B243",
"j. c #79B643",
"k. c #77B844",
"l. c #7BBA45",
"z. c #74B24A",
"x. c #7AB54C",
"c. c #7CBB4B",
"v. c #74AC52",
"b. c #76B651",
"n. c #7DB952",
"m. c #7EC143",
"M. c #7FC04D",
"N. c #81BF47",
"B. c #81BE4C",
"V. c #82BD54",
"C. c #86BF5A",
"Z. c #84C44D",
"A. c #84C354",
"S. c #8AC555",
"D. c #87C956",
"F. c #8BCA54",
"G. c #86C35A",
"H. c #8BC65B",
"J. c #8CCB5C",
"K. c #91CD5D",
"L. c #8FD05E",
"P. c #91D156",
"I. c #91D15F",
"U. c #87C660",
"Y. c #8BC463",
"T. c #8ECB61",
"R. c #92CE62",
"E. c #95D163",
"W. c #94D068",
/* pixels */
"> i.6 P ) k.) ( #.T Y ` -  .` l W - T ' h.c ) U T P ' > ] K K P % R J ,.y ` T T P 2.f P P I P - Q y W y T T R ` A.L P T T T y >.",
"c P 2.c ; P H > D l H R.# H.l y T ] K % P H p / l H W.% x.> % T ` ) 8 ..) J / D F n.6 ,.> : F P ' l <.P D P f H  .l  .q ;  .l  .",
"6 P  .@ #.% ` c p k.) 7.J ! ] D J R $ X.5 v K - A.P 3.` ;.' ) K K - 2.H c P % F.P #.] 8.` P ) K u z.,.k T # b.K T o.q.H T ] P J ",
"P D c &.T k K f y ' G y Y i ] l K s &.T p P 5 # T P u P p &.5 P k +.T s T = # H ) f F l y.5 R u y.Y s ` 2 # T ' l K c 2.3 ' v i.",
"l p.6 T y Y - J P b.p T J T X.4 t.6 T u Y i 5 D V.f ' f P s.@ o.6 Q p ` x @ D V.f ` 3 ` l.# P y T f ] ( # j b.i P @ ` l.- Z c F ",
"G s.D 5 ) ^ H.K K D.S.| ] ^ Q y o.T 3 T ^ h.> ) E.S.W ) f <.& ] H 2 c K ..@ P J.D.2.u y 3.& o.I 7 6 K H @ K n.X.n.# y <.& / ) D ",
"J T P % P J.^ f ) 8 ) T.) % l / 5 U # G H.f y T 1 ' Y.) i k T % T # l u.y - T 3 ' v.J P y R % Y i 6 c > 1 T 6 K ] c P 6 F y T / ",
"P y F.^ > P # / s.' f V - @ R i % K.m u P y ^ J.R J x t u T % % W.m u L J ^ K.Y ) c d / T - % T.^ s G ) ( R.D +.) f ) T - D O./ ",
"Y #.) K J > # ~ u R p s ] ' x ' h.' ( / - u c.u R D g ' s.K ' h.) J / 8 ) E.p T K c K F.` o.7.L u K D ' H.l Y u./ c P.T } ,.i % ",
"P J ) P ] @ E.a 8 K 2.3 > T u P c ) Y ` 1 p.c ; ) ,.3 5  .f P f ) ' Y p L ` # ' &.5 D u.f P p K v P R p ` @ / ] d T i.x H c k u ",
"9 P p f u ) ' >  .: K ^ P / c g D A f p | ' D D * K ^ ) c ` V c J f x 2.` P k ; K c P f | b ^ J s ^ 7./ H f u P q P f P m f P s ",
"3 i.X.p ( s , f s.x.} J V M 2.q O.U c c f k 0 R.V.' D b ) l.g o.H ^ D A K # E.S.) ..a T Z.g [ P i P ( ' % I.A.f x.2 T A.b O.' @ ",
") t.` w K F K ^ v o.H J f F.z.K k.) q F D K J Y R ' D s u.c F h.` q W 6 P J T K O.G - v - I 9.) u 5.% P c R K ' K @ v * T 5.) c ",
"D q L R J J ^ c.' u K.q ) ) r P q P T D ^ u #.T q K.> K %.w ] > P F P K # H T q J.u 6 5.w ' 0 ~ k X.H @ H U y i.K # 3.e ) y f.; ",
"4 P u T J ` P Y s.P F K ' u ` t.W - R ^ ' T K W ) F ) ) P T J.P - Q f T ' H ` H J K K %.T T.L - ,.t Y ' T ) Q u P c 3.I E.G f 9.",
"6 i.y T | s.P c #.T P Y % %.` l X.- T o.7.c / T T F T - ] ) H ..- T / ,.p ( T T K <.D / K R W - ~ p  .u F T ] Y Z.o.P ) Q W y @.",
"f T X.k u T H p A D P D.u s.K s ` P c u T T c J D P H.k s.c u T P v p  .T K ( J K z.l s.u u P ) I p <.` J / c P O.D i.u u  .D ' ",
"l c | @ x.$ ' s Z h.' X.6 E ' F f R @ x.- Y J 4 M.| X.u ;.` ' u T @ z.G v K % A.R  .K 4.] ` u I y i. .c K % z.H P ] 8.' ] D T z ",
"G P w J. .` K u y ' F 3 K y &.8 R > T. .P P 3 * ) T y F f s.$ R > T.] x ' - - G o.f K G l.$ R > b.` q ' 2 # H ) K K K l.= R l +.",
"D p.> F y T > J ' V.l | J T ~ 4 o.5 K y T y > T J.f o.f T 7.@ J > T y R f @ F H.f ] - ` j.- 8 > T s ' G - F n.y ` o ` l.% 3 k T ",
"L h.J 1 ` S G.K ) A.S.T R J  .y  .T 2 ) ^ h.y ) I.S.T K s 3.& ' K < J K X.$ L R.A.2.6 q 6.& ' K 7 6 H U @ P A.X.V.# q 6.& J Y f ",
"D H T @ H K.m m o.8 ' Y.{ # l P 4 T # G D.s y ' 1 ` Y.' p u ) % U # k y.> % T 3 P v.) P y T & T u ; x - 2 T 6 v } J T > T y T / ",
"P f Z.m > P # J i.Y f [ = % O.i p A.^ a P 6 ^ S.` J ` - p ' 2 j J.b p P P h K.Y / ) d ( ` % j G.m f J ' c R.D O.' J P ` = T o.c ",
"P #.P / K % # 7.s R &.V ' ' m T h.T K / - c 7.u R t.m ) 3.Y ` h.) ) K i t.i.u Y u.v c N.' ' 7.J p J K p.s.p ' u.) s Z.P | ,.8 % ",
"J c / ` ` @ T.5 i J ] p s R c F s ) ` ` > p.D % J | f f X.u K u ) ' ) l P ' @ ^ | p J 2.r T i K ` ) ' D I X c R 3 ` 3.r T a J Y ",
"* T f c c ' o.4 i.* D ^ ) J u e D J c ^ T ' D T # l ( T c J b c J m / Q ' H F ; c f T i P b m J s { ,.) P G l J i ) w P c f P q ",
"- s.X.A J q , f s.B.' ^ V / 2.9 &.T J f s k - J.J.' D g ` c.e o.T c D f K @ J.R.) +.y T F.r ) T i P A ) % J.H.u c.t T D.s O.) - ",
"' O.T > P T K m l O.P ) m J.z.Y h.Y q H K / ^ P ' ) K m u.l T h.P q W p K ( R ` o.F y K @ T h.K u 5.$ P ^ R ) ) F # c * R 3.P c ",
"K : J  .) J x c.] y J.> T ` s ' * P F ) / y X.R > J.> K X.w o.* ' j | K & F R * J.u u 5.> ' * X.6 +.T @ H T > h.v % 5.: ) y z.: ",
"5 T 8 T J &.J P i.K F / ` s ' &.' - | ^ +.K T P T L ) K ' T J.) $ | f  .T Y P H K K c $.R R.P = $.y I P I ) W u J s <.R R.K u 9.",
"p s.% ] ) ,.) i #.T k T 3 ] l G i.@ P ) ,.K f R T k F p T J R h.@ T / 2.c K T P l #.O.F / T h.- Q J u.f P P ) K B.f.K ) T 5.i ,.",
"p ' T u F ' T K p J P l.` W | c ] F u F ] H ) c ( P c.` 3.` J ' K u D  .T ) J ( P i.P n.K K ` ` z 7 3.T K ^ c T ..I V.v P o.) I ",
"J f  .X J.@ ] y f s.| R > E T K u ` @ H.- ` c 4 c.| T y -.R ' q R @ n.l Y K - c. .P v 4.] P > Y y 2.' Y K % i.H K ` 5.W T u T D ",
"F H w J.' T c p y ' G % F 6  .8 T q J.' T P 2 = ` T - F p s.$ T > T.' c ` < * H ' i K D l.% I , z.Y q ' 1 # T ) J ) K l.1 T l X.",
"D a.> D u ` ; l T G.D o.) ) ~ 6 ) 6 P y T y > T R.J o.D P 7.$ c > L u Y p @ T J.^ ] 3 ) l.# p > P u ` c @ K V.i ' o ` 0.% 3 x T ",
"P h.G $ ' S A.K ) Z.F.P T c Q y o.T $ T S s.5 ) L.S.T D s <.O ` K < J F X.= J E.Z.2.6 q 3.& ) G 3 6 T T = J G.#.V.# q <.* f T p ",
"p P W 4 T Z.s m ' L ) v./ = J J 5 T 4 P c.u y o.8 K v./ i l T 3 T 5 D +.8 $ T i K t.^ P f H = T p 8 m i % T p ' K J ' k T t X.m ",
"J | 2.^ s / @ K ,.` f z.# j d.i 2.3.m f ) 5 D c.P ^ f.- c e.% 2.u.m f ) G s Z.K / 2.s m C = 5.y.f s / T p Z.D o. .^ V M @ 3.G i ",
"P %.) ) / % + N.c T G.M P ' _ Y h.' ) ) - P ,.u R G.^ M $.' Y x.) ) / l b.U u R C./ u q.T ' h.K p K ' U.W y Y u.' 9 w.Y ] 3.i % ",
"D c ) P T # J.7 i ^ K ^ h ' v F s ` ` P > f.D & ^ ) L c  .u T y ` ` P l ) ` @ m ] p ) *.9 T q ) ' ` ' J T & x T 2 ' 3.q T y Y Y ",
"X ' i c m ) ) 5 s.: D c ` J u r J f m ^ T ` D W * l ^ ' p K m ^ J h / X.' P T ; c f P i ` M h D f ) 1.` P F l J u ) q T / f F 0 ",
"- s.X.^ l > y f s.V./ ^ V c 2.* 2.T D p q l 0 S.J./ J b ` l.9 ' ' J D i K @ S.K.K +.a ] D.q F o.i P A T @ H.S.u c.-  .D.r ] ) - ",
"] o.R q P R K g l  .) ) m G.i.` y.P y K T J ^ P ' ' / m u.l R i.K u W i J ^ T ' ) K y ' # R g.K u 5.# L J T P P D - Y * R 3.` f ",
"f u D i./ f c s.T c R.y R ) c K s F u.K x i u.R l J.y P X.c P u H &.P K * 2.R p J.l l <.k K f | T o.T @ u.T c 2./ u 1.u J f 2.p ",
"5 ` 6 P J x.u ] ,.K T P M K ) 2.] # P f x.l ' H ` T ) c  .T J.' @ Y a 3.D ' F P ) K f 3.T J.P $ #.0 I K I / W u k u 5.' K.P i 9.",
"L 7.@ ] K W | - X.` > T 4 T q ) c.  T ) W P p R ) > H D K c o.D.@ K / 3.K J Y P 6 X.u.F K T J.- X.) x.J K P K c l.J.K c T c.p 6.",
"8 ' U 6 ) ' H ` p J P 0.] F ] l ] G y ) ' P ` A ^ P k.R 3.] K ' I > J &.` ` J ( P 5.T C.) ) ' ` l 6 3.' ) ^ J ' ..I H.) Y  .` K ",
"J p o.+ T.@ ] y p h.L T > =.P P u ] @ T.- R f > l.T P 6 :.K ) y ` * V.p ' c - l.R / c 4.P P > Y y &.P ) D $ i.` J ` 5.P ) l Y G ",
"P Y w J.` T c f 6 ) F # G 4 #.y I q J.K ` K 3 = ' ) @ F 8 7.$ I ; H.I c ) < @ P { 4 P D l.% I , s.` a ' $ # W / G / F w.3 I l  .",
"D s.y J u K % J T n.K o.) T ~ 5 / u K s K i 5 T G.K o.J Y 7.# J y ( s P J @ R A.( ] q P 0.# p y P s ) ) # T x.u ' o ` q.# y p | ",
"P 5.K # ) J t.K D M.l.i.H y R y Q P $ P ( O.f F J.N.i.G i  .o T Y $ D o.o.i K T.l.s.p l  .& P K t > 3.T y L S...s.6 p o.& c T f ",
"5 | I L ] 7.y h ' ..G } ^ @ T p i H G ' 7.u 5 ' G K } ^ u P J y T l T +.l @ T G P K c ) K G t  .f D e.D $ U f t.y f ' K U i a.u ",
"G y.P ( c ^ + R X.' g P.@ U V.q A.) ^ c ( 4 k l.T m F.% K r.* D.P S f / G > l.K / x.i N B @ F.L i i ^ | > m.D / #.m N n @ x.8 < ",
") X.T ) ) - + B.c T T.J K { M Y s.) ) ) q P @.y R T.c c *.) T s.P ' K c b.H 5 T Y.K u 9.T ' s.K l c o.J.R - T u.' q q.) ' 3.p % ",
"^ c ) K P % T.7 i / ) J h R c ) u ' ) K 6 p.D - ^ ] K J  .u ) y { ` ) l | ) 0 c  .f / %.q ) q ' ` ) K J P 0 f | 1 ' 2.q T 0 ' Y ",
"X ) y c ^ K K > s.> G f ' p u w ^ f c ( P ) Z X.* J f ' s K / m f ^ / X.) H Q % J f P u ' ` ^ D s { 7.` P U 8 / s P q ' ' f D q ",
"y i.Q / c u k f u.x.K J V %.3.y i.H ^ l u c 0 x.c.P G g o.5.e 2.] f H i K @ x.V./ ..y ] i.s ..' s X.i Y # x.x.i x.= ] g.x &.K y ",
"T ' ' u F T ^ s K W ^ ) f 2.O.T O.] c D I J u R ) ) J a u.l T +.T K T p D s R K ) c 0 u.y T +.P p 2.$ K u T J P p @ d.u ` ..T y ",
"6 ) p S./ y ^ &.T / E.f ' K ) u / l G.J s s x.T ' J.f ] Q T k ) D H.J v % H.P ` H.c P ,.H l ' L a.G ` @ H.T ' O.) D <.P D J P T ",
"8 ` > ) c H.;  .X.K T P m ' ` 2.] @ P f H.y ] T ` ' ` x X.T J.] @ J s u.c ' L T ' v u 5.T J.` @ #.0 T c Y K Q u u q 1.T K.T y 9.",
"F 5.% o.P T | -  .) > T ; T y R B.. Y K W ) d T ) , T p U c ' D.# v ) 3./ c T ) 6 *.y.F / ' D.>  .) l./ G P / c c.H.Y ^ T c.p 3.",
"5 ` T , ) ) I ' p J ` q.T U T l ] Y , ) T T ' f S ) 0.T 3.T P ' R > G +.' ' c ^ P 1.T H.P T ' ] k 6 i.' ) J m P ..T T.` T ] ' H ",
"K f  .@ H.* R y f i.D K > :.J K c ' & T.- ] u 3 x.H K y :.K P s ` * n.u R f - h.' ^ J 2.F / q Y i  .J T l - 2.` c ' 2.H F l / H ",
"K  .u Z.P P f p y o.D 6 J 8 @.i &.u B.F T c 3 $ ` K 6 D D s.= &.u l.K K / = @ T ' 8 c G l.= $.k 2.` c / < # W J H f K l.- %.J ) "
};
