/* XPM */
static char *_afaf02930794ca4e788d08600c0a45an0N46AjZN8jRKoV1[] = {
/* columns rows colors chars-per-pixel */
"64 64 256 2 ",
"   c #1B1C1C",
".  c #171B1B",
"X  c #251B18",
"o  c #361815",
"O  c #1C231C",
"+  c #172A07",
"@  c #28251A",
"#  c #332618",
"$  c #39381A",
"%  c #283315",
"&  c #1B1D22",
"*  c #1E1E28",
"=  c #221E22",
"-  c #1C2123",
";  c #182124",
":  c #262626",
">  c #362C26",
",  c #373427",
"<  c #373A37",
"1  c #2C3130",
"2  c #4F1A17",
"3  c #4D3219",
"4  c #6F2917",
"5  c #493929",
"6  c #453936",
"7  c #4F3128",
"8  c #74382A",
"9  c #6D332E",
"0  c #611B1B",
"q  c #2C4718",
"w  c #37581A",
"e  c #2C5510",
"r  c #2A650C",
"t  c #2C6A0D",
"y  c #256308",
"u  c #326C0E",
"i  c #2C6512",
"p  c #2D6B13",
"a  c #2A6918",
"s  c #326C14",
"d  c #366A1A",
"f  c #357215",
"g  c #3A7515",
"h  c #36721A",
"j  c #3B741C",
"k  c #3D7A1D",
"l  c #387817",
"z  c #337211",
"x  c #384827",
"c  c #3C5929",
"v  c #3C4936",
"b  c #3B6923",
"n  c #3C7522",
"m  c #3D7B23",
"M  c #387823",
"N  c #3E6931",
"B  c #1E5E01",
"V  c #4B4C19",
"C  c #744F19",
"Z  c #427C1D",
"A  c #42751D",
"S  c #4F661C",
"D  c #69691E",
"F  c #584629",
"G  c #475828",
"H  c #565828",
"J  c #494537",
"K  c #584939",
"L  c #4D4E2E",
"P  c #674638",
"I  c #764A3A",
"U  c #6A5838",
"Y  c #7B5939",
"T  c #6D4D2B",
"R  c #476828",
"E  c #556829",
"W  c #417522",
"Q  c #437C24",
"!  c #447D29",
"~  c #497C2B",
"^  c #497728",
"/  c #56752B",
"(  c #496833",
")  c #4B7934",
"_  c #547838",
"`  c #58663A",
"'  c #6F7137",
"]  c #3E4643",
"[  c #464947",
"{  c #554943",
"}  c #585546",
"|  c #585856",
" . c #4E4F52",
".. c #675B48",
"X. c #685C55",
"o. c #725047",
"O. c #576D43",
"+. c #676649",
"@. c #776648",
"#. c #69675B",
"$. c #77685A",
"%. c #6E7750",
"&. c #686A66",
"*. c #756B63",
"=. c #75786E",
"-. c #5B5E63",
";. c #912519",
":. c #8D342D",
">. c #A4342A",
",. c #8C473A",
"<. c #985835",
"1. c #8D532D",
"2. c #A74E38",
"3. c #956D30",
"4. c #A97236",
"5. c #985814",
"6. c #894A44",
"7. c #9A5749",
"8. c #8B5A57",
"9. c #975856",
"0. c #915049",
"q. c #A95649",
"w. c #AF504A",
"e. c #856A47",
"r. c #89754C",
"t. c #96794D",
"y. c #8A7756",
"u. c #987856",
"i. c #916A51",
"p. c #AD6B50",
"a. c #8E766C",
"s. c #B0756D",
"d. c #8E5C62",
"f. c #CA7A6A",
"g. c #C55D43",
"h. c #943F42",
"j. c #3F8126",
"k. c #3F801C",
"l. c #47831F",
"z. c #458225",
"x. c #4A8425",
"c. c #45822A",
"v. c #4B852C",
"b. c #4D8A2C",
"n. c #4A8828",
"m. c #528B2D",
"M. c #52872A",
"N. c #52912C",
"B. c #4C8532",
"V. c #4D8A32",
"C. c #478532",
"Z. c #528534",
"A. c #528C33",
"S. c #538C3A",
"D. c #588839",
"F. c #549134",
"G. c #55913A",
"H. c #5B943B",
"J. c #5C9A3C",
"K. c #5C9435",
"L. c #4E9134",
"P. c #639B3C",
"I. c #69873B",
"U. c #69A13E",
"Y. c #5E9A42",
"T. c #5B9442",
"R. c #5D8842",
"E. c #639D43",
"W. c #669847",
"Q. c #6E8F50",
"!. c #64A244",
"~. c #6BA54B",
"^. c #6BA649",
"/. c #72A94B",
"(. c #6DA951",
"). c #73AD53",
"_. c #76A857",
"`. c #7BB45B",
"'. c #78B556",
"]. c #6FB14F",
"[. c #7C866B",
"{. c #7DB862",
"}. c #79A761",
"|. c #7FC058",
" X c #AE8E36",
".X c #9B8659",
"XX c #928B4D",
"oX c #A6875A",
"OX c #B08E57",
"+X c #82BA5C",
"@X c #84A955",
"#X c #A9A75C",
"$X c #89857A",
"%X c #958B6A",
"&X c #B79768",
"*X c #A9977B",
"=X c #B89A77",
"-X c #AE8A6D",
";X c #85BB64",
":X c #87AB6D",
">X c #B6A46F",
",X c #CF9451",
"<X c #CCAB5A",
"1X c #C69C6B",
"2X c #C29D75",
"3X c #D08678",
"4X c #C4A268",
"5X c #CAA673",
"6X c #EABA71",
"7X c #89C669",
"8X c #8DC872",
"9X c #93CE74",
"0X c #93CD71",
"qX c #A1C17E",
"wX c #F0D773",
"eX c #7E7F84",
"rX c #888987",
"tX c #989589",
"yX c #9A9A96",
"uX c #968C89",
"iX c #A79C99",
"pX c #B1928A",
"aX c #9DA498",
"sX c #99A488",
"dX c #A6A69A",
"fX c #B6AB90",
"gX c #A9A9A6",
"hX c #B7B7AB",
"jX c #B9B9B5",
"kX c #B1AFAB",
"lX c #9A9FA2",
"zX c #CD968F",
"xX c #CCAE8E",
"cX c #C6B4AE",
"vX c #F1B9B6",
"bX c #E9A991",
"nX c #BDC3B8",
"mX c #B7C6A8",
"MX c #AFCC89",
"NX c #C5C5B9",
"BX c #D5C7B0",
"VX c #E7CAAF",
"CX c #DFE09D",
"ZX c #C8C9C5",
"AX c #D6D7CA",
"SX c #DADCD2",
"DX c #CFCFC6",
"FX c #EFD3D1",
"GX c #DEE2D2",
"HX c #E7E8DA",
"JX c #ECF1D7",
"KX c #EAEAE4",
"LX c #F3F2E8",
"PX c #F3F3EB",
"IX c #E7DEE3",
"UX c #DDBFC1",
/* pixels */
"s ).l v.S.).b.n.J.A.b.b.t H.A.Q G.t L.L.].k.b.b.m.M.A.s S.v.V.A.t A.B.Y.M C.m.M.x.U.Z M.v.A.A.t K.g F.f V.V.N.b.;Xn.m.m.A.b.l J.",
"z.v.E.c.r A.v.f n.k z.9Xr 7XQ f A.A.v.p z.b.k v.Z x.9Xs '.f t b.m.m.h Y.c.c.A.Q b.'.k E.s s c.v.m.Z ~.b.c.b.l.x.K.Q A.s s H.Z F.",
"l n.H.y E.p v.z.k '.m.^.z.H.A.n.x.S.s Y.n v.! s 7XM.^.x.!.N.N.z.x.r ~.b.m C.p 7XV.E.b.].b.A.v.M.A `.E.l b.r '.m.m.F.'.b.V.G.v.x.",
"b.z.k E.A.k b.k g A.z.g b.l G.Q M.A E.Z.n C.n r M.N.g m.k J.f b.k J.m.j b.p t b.V.k b.k ^.h M.Q W.B.j A.p r m.M.Z Q z.!.f B.v.(.",
"z.^.l A.f b.s z.b.'.Q A.Q A.T.s P.s S.h A.h t z.'.Z m.k A.).r G.h H.Z A.Q r z.+XZ m.p V.`.p b.h V.! V.v.y m `.f b.r m.`.p Q Q v.",
"z.).z.l A.c.7Xn.b.7X7XF.A.c.G.j F.A.d B.v.).l b.0X7XA.c.Q E.y G.V.s ! v.Y.y x.7X;XW.n M (.y V.B.M p V.V.r b.`.J.{.r f (.r C.B.B.",
"b.A.b.r v.7Xz.Q b.m A.7XV.i c.v.l b.i v.7Xm h V.t b.8XS.W n V.p V.r Q ~.h s V.d / I.b ~ d C.i V.h d Q p p B.l c.S.c.A.u V.h B.C.",
"n.l 8Xz.p A.r n.(.A.Q Q p p V.m p 8XQ j V.h C.7XV.c.! d n Z.s t 9Xc.W v.v.v.8Xd + R R ) ) i w _.R b c.B.z.9Xz.E.B.Q b.m.s c.T.C.",
"b.Y.A.c.v.p r Y.j A.m j S.S.m V.).A.v.v.s h `.Q A.! n S._.c.A.).V.c.n.h b.8Xb + %.G ( :X) R G q q w n G.7XQ A.~.c.Q 7Xn.K.!.h p ",
"V.c.V.V.A.i 9Xs m c.!.h d A.h A.Q b.A.A.s ).v.s v.E.h h E.W v.m C.V.b.Q b.V.w q $ +.G ` x x ` %.( ) S.M V.B M.K.Z b.^.Z m.W m M ",
"p V.m m m S.A.h Y.p V.! V.v.! h z.Z W m A.A.~ ! r b.c.C.Q A.! ! v.W k E.V.Z.( % =..., } sXhXNXNXc ~ ).C.B.k j v.f b.k v.Q Q V.M ",
"h (.Y.m c.n h m ).'.S.c.Q v.~.j J.b.! ! j n i W._.A.z.j.b.`.n T.S.B.v.! ) e %.L ..J $XkXhXSXSXnXb A.c.C.p 8X7Xk '.p b.7XW J.B.i ",
"n.Y.v.h B.c.v.c.! H.v.n.W 8X`.c.'.V.s v.c.C.e _ R D.v.n ~.^ Z._.Z.i D.w c q K K dXHXKXPXDXdXyXmXw _.i A.! S.c.S.V.r m p A.(.A.! ",
"c.s v.G.c.c.! `.A.l 8Xf A.v.h A.s v.A.c.c.n ( w w :Xi B.W.R R w Z.D.( q , =.a.AXNXhXnXKXLXNXgXmXw R.D.e ^ ^ d ).c.r (.s v.s ).u ",
"h v.k V.c.V.S.v.).n.v.v.v.j A.E.A.s G.Q A.~ R.%XG [._ _ R G L %.w _ x %.dXNXSXAXLXHXjXHXKXNXGXGX( R H V H E D.A n.Q ~.m.9Xx.l./.",
"h (.l A.A.).v.c.Y.A.v.b.t J.b.! E.s A.H.(.R G %X} [.G q %.=.NXv q ( x $XSXDXjXhXLXLXNXHXKXSXLXJX%.$ F T U E D.M.7XA.M.M.m.F.g J.",
"m V.J.k k v.B.Q c.c.b.7Xg (.n.k m.b.W W Z.b [.[.#.#.+.+.HXHXuX: O 1 aXGXgXSXSXNXGXLXcXHXHXHXSXNXVXY :.7.H / ^ v.K.x./.g k K.! A.",
"m z.F.y `.u S.n m ).F.J.l F.A.n.Q m.y `.b ( %.#.&.$XhXHXHXZX|   - [ jXNXKXKXLXNXSXKXDXKXDXNXDXKXBX-X:.q.H e _.V.v.m./.m.m.! S.! ",
"z.V.f 7XH.v.v.n n V.b.l x.g J.j b.s 7XY._ c x } NXNXAXKXKXkX] - . &.SXHXhXnXHXNXDXDXjXjXZXZXNXNXiXFXq.7.V w A.V.C.v.n.'.p V.Q E.",
"v.(.s b.u A.s v.V.;Xz.b.z.b.J.d H.h Z.d c x sXdXDXPXPXdXNXrX- .   | jXyXyXdXjXyXhXkXjXhXcXfXfXhXiXxXvXs.3 ( `.h C.y m.'.s h m b.",
"z.].n.t A.z.7Xc.v.7X7Xm.m.c.G.h H.Z.G w [.$XSXHXNXPXhXHXHXaX& ; &  .jXuXrXhXgXdXtXX.5 2 9 2 9 6.8.s.zXfXU ( ;XJ.{.r u ^.r c.B.m ",
"z.V.b.y b.8XQ z.A.k A.7Xb.r ! B.d / V .X*XBXBXdXNXAXSXSXKX=.& & & [ gXtXuXeX&.: X o o.9 q.:.0.:.q.,.,.Y F G j z.A.! A.f v.h V.b.",
"b.k {.c.s V.r n.(.b.Q b.s p G.! ^ R.%XxXbX&X&XBXAXAXDXNXhX&.& * &  .yXkX .: . X 3 P 8.9 :.2.w.:.w.>.2.p.3 H R H.A.! V.v.p V.G.Q ",
"b.Y.V.v.C.s y (.k A.E.Q V.S.~ Z.Q.Q.xXY 1.oX.X*XLXLXHXgXyX&.& & & [ dX6 . & & X o.6.9.8 q.:.w.;.g.>.;.w.8 3 E ~.Z.d ;XV.G.!.j s ",
"n.Q V.v.S.r 8Xl k x.S.m n S.~ _ G fXr.-X-XVXAXGXZXKXLXLXyX&.-      .*.X X = > X.8.8.9 4 q.:.w.;.g.>.;.w.q.2 V D.d Z.~.h A.h C.C.",
"r V.Q ! ! A.G.h ~.r c.c.A.~ W w +.fXfX*X# HXSXLXjXAXPXLXgXrX. O   > > < , J 6 o P 8 8 4 w.;.w.;.;.w.:.:.w.8 V ( R Z.h b.m m C.h ",
"p ).E.Q ! h h j (.;XA.c.! B.(.q hXuXNX@ @ NXSXLXSXNXLXLXAXaXO   O O @ < : O   X I 8 8 8 w.;.2.>.4 ,.:.4 w.,.7 G :Xi F.7Xf H.S.a ",
"A.Y.V.s A.v.C.c.Q G.v.A.! 8X}.q NX=.gXkXIXAXSXJXHXjXPXLXLXdX. O     @ . . ; - X o.8 8 8 w.:.:.:.0 0 8 0 4 ,.P % w i z.y F.^.v.z.",
"c.i n.H.b.c.m {.G.l 7Xu A.Z.N O.HXZXyXKX=.kXAXHXHXnXKXhXLXcX1 & & &   - & & & X 7 I ,.4 :.:.2 8 9 2 9 9 2 3 7 L c i (.u x.f '.t ",
"h A.l m.Q E.v.v.~.z.x.v.Z.^ _ O.JXHXkXlXkXSXHXZXSXnXjXjXHXSX&.  . -     - & & X o.8 7.0 4 9 2 7 7 2 2 7 7 5 # V ( n ^.b.9Xb.l ].",
"W ~.s A.m.J.A.m J.A.k M.f D.R O.JXPXZXDXPXDXkXZXKXKXNXAXaXDXrX: - . - & & & & X 9 8 9 2 o 7 o 6 J # , @ X O q R `.'.x.x.m.^.j ~.",
"k A.b.g b.A.V.v.Q z.b.+XM.I.R.q AXaXrXgXjXgXjXgXZXZXgXAXAXZXKX< & & & & & & & X o.o.2 o X { 6 # @ X . @   % R D.J.x.+Xl.x.K.v.B.",
"n.k G.y 7Xy S.n m ).S.d S E O.x nXnXgXjXjXdXjXrXkXkXjXZXrXZXjX< & & & . -   & : > # X { , o o 9 o.} { J @ % Q.Z.B.A.^.N.b.k A.v.",
"x.b.f 7XF.b.c.! h A./ V XXV ` v aXZXuXjXjXkXyXjXkXdXNXjXNXjXjXkX- . : & . & . : > # @   X > o.8.VX$.} < { O._ v.v.Z.x.'.z b.m J.",
"z.(.s c.h b.s z.A.@XD 1.4.C K hX&.cXkXdXgXkX$X#.{ #.[.aXnXkXkXcX[ &     - ; ; O } L x O   1 X.K %XK } | { %._.f A.B M.'.t p m G.",
"x.).v.i S.z.7Xc.v.XX X4.4.3.y.AXAXyXgXkX-.1 : &.#.J v < &.[ iXZXgX    =     X X y.e.%X% X : tX$XNXhXdXDXX.+.Q.E.;Xr g E.r c.V.j ",
"m A.b.g A.;Xn ) / D 4.,X4.4.r.tXa.#.gX1 & = [ yXKXKX=.| 1 - .  .kX=.  X 6 $.o.o.7.1.T T a.d.#.X.| =.=. .{ J b S.C.! A.Q C.h T.z.",
"c.V.^.v.j B.d R @XCX,X5.4.C .X%.+.fXfX*.: | iXIXDXIXkX&.-.  -   : | : X a.-Xs.3X3X3Xp.7.7.8.a.jXjXZXZXaXaX[.( D.T.C.! C.r ~.v.h ",
"v.E.B.B.A.d e qXCX5X,X4.<.C OX#XXXCXfXFXK iXcXpXIXIXrX] < : & & - - : : tXfXi.s.s.f.3X2.,.6.6 6 jXjX=.%.O._ ) ~.S.a {.V.b.^.k p ",
"z.Q Z.B.S.i }.CXCXCX<X5.1.OX XwXC &XfX*XpXd.d.8.a.cX< ] ] < . & & & = | iXpXs.s.f.s.p.q.I o.6 =  .ZX#.O.O.e ^ A.h V.~.s b.f b.b.",
"B V.M ) ) Z.) MXCXCX,X5.1.3.<XwX<.s.P *XzX9.9.9.d.kX: -.-.] = & 1 yXuXkXFX6.2.w.9.o.I I 7 P { < -.hXK V R / ^ x.l b.g b.v.n v.s ",
"t (.T.c.! b b R I.XX5.4.1.5. X<X<.0.9.vXs.s.s.9.8.FX|  . .< &   1 eX-.uXFX0.2.w.s.} { K K ..X.X.DX$.@.y.%.Q.;Xj `.f m.7XQ G.B.t ",
"A.H.A.s A.A.c.Q A D C 1.1.4.<X5.p.f.6.FXs.0.s.9.9.vXa.1 [ v :   &.&.&.cXzX0.w.0.cXX.$X..tX*.a.uXy.y.F r..X' / Z.z.r m.r S.~.V.W ",
"Q W ! (.v.Q j.).M.S r.i.4  X6X5.<.q.0.vXFX6.zXFX,.s.FX[ v [  .| &.&.$XFX9.bXf.6.cX&.#., } a.{ a.i.1.i.3 u.r./ W.v.l ~.W v.Q E.j ",
"h G.h v.z.`.l A.W.E *X.X X6X4.<.2.7.-Xs.I 6.zX:.f.9.pXIX} } < J | *.UX8.9.zX6.9.X.dX*.# } fX$.U u.t.t.3 t.r.' A Q l ^.b.0Xx.Z ).",
"b.(.r H.v.S.A.d R._ %X%XXX<X3.,Xp.p.xXpXzXs.0.h.f.0.8.tX$ +.X.X...X.d.pX0.s.6.s.5 J J # K } J F t.e.e.3 Y U E ^ `.7Xz.x.m.'.Z ^.",
"M V.V.f m.A.A.Z.( sXdXfXxXXX3.<X<.zXpXpX=XzXp.q.vXs.P 7 r.&Xi.-X-XP 7 zXzXzX-Xa.y.$.*.*.$.$.#.*.P T F F U U E Z.H.m.7XM.N.K.x.b.",
"v.k H.B 8Xt A.n N Q.[.[.XXT 4.6X,.-Xy.%XoX-XbX7.9.8.9 y.2Xp.8 s.2Xi.7 { 8.i.u.-XcXuX*.J $XtXX.> # U F U U H Q.A.x.m.^.m.n.Z b.n.",
"b.b.l 7XA.V.! ! n D.) d _ ' i.,.s.zXF 3 r.t.u.VXi.o.3 *X1X1X<.OX1XoXK > e.&X&XbX5 cX..BXcXy.F pX# J H E R e D.v.c.b.x.'.u M.! H.",
"z.^.l z.j V.s c.A.+Xv.S.Z.G -Xa.cXa.*XU 3 oX2X2X=X=X3 a.oXOX<.p.oXe.5 5 xX&X1X2XBX@.K *X=Xe.T .XU 5 G _ w Z.`.j A.y m.).r W W S.",
"b.^.x.r A.Q E.c.~ +X`.(.B.b H fX*X@.oX&Xe.F .XxX5X-XU @.=XOXT 1.=X@.5 y.=X2X=Xy...F OX1X2XY T t.@.@.` _ j v.;XP.(.f M H.r z.v.m ",
"f m.b.n.A.).f ! M.K.v.V.C.i ^ ( G ' oX&X>X.XT F t.xX..5 y.u.i.u.U $ J *X2Xu.F V F =X1X1Xu.F T .Xt.y.w ^ r b.x.P.f z.V.v.v.j (.M ",
"b.!.b.b.c.z.y b.P.m.Z 7Xr V.{.n :XE ' XX&X&X&Xr.3 5 J , , 5 F 5 # , 1 , 5 F Y .XoXoX&XoX@.F Y r.T r.w B.f {.~ v.J.Q M z.r `.M p ",
"c.E.A.C.B.p y `.Z b.0Xc.! S.! V._._ E ' 3.t.XXt..Xy.@.+.....@.@.......+.@.=X&X&Xt.r.e.@.$ @ 5 y.U %.w 8XV.p Z.(.S.p ).V.m.!.m p ",
"C.m S.v.V.p 8Xl k z.b.c.! G.! v.n S.Z./ S ' ' ' &X>X>X1X1X1X4X4X4X4X4X1X2X2X&XOX' H $ $ + % % ` G G d Q V.p ! S.p V.!.s A.f V.V.",
"B A.h ! c.C.c.f ].p C.Q A.Q A h v.n ! Z.D./ E H XXOX#X&X4X4X4X4X<X<X<X4X&XOXXXD E w G q c c c c G ) W.A.A.A.W v.n C.h m.A.Q v.s ",
"h (.H.v.v.d W W !.`.V.c.Q H.~.f ^.m.~ ~ j ! d _.@X/ / S D #X#X#X#X#X' S / w /.@X_ R.b R.Q.W T.D.W T.W A.r `.).k {.i S.).W W.B.h ",
"V.A.G.n c.A.v.j v.S.C.C.! ~.H.m.J.m.Z v.x.n.h G.Z.~ Z.W /./ / I./ / D.W ~ n m.z.b.c.s (.h v.Y.n.k !.i ~ A A.x.b.n r (.j A.J.A.h ",
"l v.j 7Xv.h v.E.A.v.9X! V.b.n.k v.! 7X! Q Q '.b.A.8Xh A.K.M.Q m.v.7X! v.s ;Xm.b.7XQ M.P.m.l.A.B.].c.b.y 7Xb.b.J.m.x.~.v.Z z.b.A.",
"l m.l b.j.7Xt H.J.v.V.b.z.b.b.!.A.r V.m 7Xj G.b.A.A.A.k P.m.7XA.B n.g (.W A.v.A.b.x.g ^.m.7Xb.r J.s b.z.m.x.G.Z j u (.b.7XN.f ).",
"b.!.t F.c.F.F.t H.A.f b.u b.l m.+XB V.C.S.b.M L.V.s m.Q x.Z F.7Xt v.M.!.B.! Z.n.g P.^.x.z.A.9Xs G.A.`.n.x.x.v.! `.7Xl.l.l.|.Z !.",
"f A.A.p F.V.b.F.m Q m.'.b.b.A.! F.x.h A.v.b.L.m ! A.).m.^.M.b.m.m.u x.P.V.V.c.v.x./.M.7Xm.m.v.G.Q j ^.m.b.z.v.c.J.b.7XN.N.N.N.x.",
"c.! H.y 8Xp S.h j ).x.x.f !.v.v.m A.y 7Xs S.j p '.b.v.m E.x.x.Z A.i `.j V.m s ).G.! z.E.v.n.f n.W J.z.V.z.t E.G.z.b.!.m.x.Z c.A.",
"B.S.j ;Xv.A.n ! n A.x.g z.l Y.j W.n +Xx.Z.! h r m.x.h m z.).r E.j +XB.c.C.p y A.V.Q Q x.'.t !.k !.v.Q V.p r G.k v.z.x.'.s P.v.v."
};
