/* XPM */
static char *af1f3c17ee3e402ad3653c6fd4d16ee88VFQ1FzOt67cERcQ[] = {
/* columns rows colors chars-per-pixel */
"64 64 244 2 ",
"   c #2A9BE2",
".  c #2C95EE",
"X  c #2B9BED",
"o  c #339DE5",
"O  c #3695EA",
"+  c #349DED",
"@  c #3B9CEA",
"#  c #2E8FF5",
"$  c #348FF5",
"%  c #2796F5",
"&  c #2C94F5",
"*  c #269BF5",
"=  c #2D9DF5",
"-  c #2C94F9",
";  c #279BF9",
":  c #2E9EFA",
">  c #3197F5",
",  c #329EF5",
"<  c #399DF5",
"1  c #3193FA",
"2  c #329EFA",
"3  c #389BF9",
"4  c #1DADEF",
"5  c #1EB2EE",
"6  c #1EADF6",
"7  c #1FA8F8",
"8  c #1DB4F4",
"9  c #1DBBF6",
"0  c #1EB4FA",
"q  c #1EBCFA",
"w  c #28A5E7",
"e  c #2DA3EC",
"r  c #25A9EF",
"t  c #2CACEC",
"y  c #33A2E6",
"u  c #39A3E4",
"i  c #3DABE5",
"p  c #35A2ED",
"a  c #3AA3EC",
"s  c #34AAEB",
"d  c #3BABEC",
"f  c #27BCE7",
"g  c #24B4EE",
"h  c #2CB5EE",
"j  c #2BBEED",
"k  c #32B3ED",
"l  c #3EB4ED",
"z  c #39BCEB",
"x  c #24A4F5",
"c  c #2DA3F5",
"v  c #25ADF5",
"b  c #2BABF5",
"n  c #24A4F9",
"m  c #2DA3FA",
"M  c #25ADFA",
"N  c #2BABFA",
"B  c #31A1F4",
"V  c #39A4F4",
"C  c #34AAF3",
"Z  c #3CACF3",
"A  c #31A2FA",
"S  c #31AAFB",
"D  c #3FADFB",
"F  c #25B3F5",
"G  c #2AB2F6",
"H  c #23BBF5",
"J  c #2ABBF3",
"K  c #24B4FA",
"L  c #29B2FA",
"P  c #23BCFB",
"I  c #2ABBFC",
"U  c #35B5F4",
"Y  c #3CB4F5",
"T  c #35BBF6",
"R  c #3ABAF5",
"E  c #36B6FB",
"W  c #3BB3FB",
"Q  c #34BBFB",
"!  c #38B9FB",
"~  c #419EE5",
"^  c #46A7E8",
"/  c #44A4EC",
"(  c #43ACEC",
")  c #46B8E5",
"_  c #44B2EE",
"`  c #4CB6EC",
"'  c #44BAEC",
"]  c #4CBAEF",
"[  c #55B3EB",
"{  c #51BAEE",
"}  c #46A9F6",
"|  c #43ADF4",
" . c #43ABFA",
".. c #54ADF8",
"X. c #44B3F3",
"o. c #4AB6F4",
"O. c #44BBF4",
"+. c #4CBAF3",
"@. c #48B5F9",
"#. c #4FBBFD",
"$. c #58B3F5",
"%. c #53BDF3",
"&. c #53BDFA",
"*. c #67ADEC",
"=. c #6BB2E7",
"-. c #69BBF6",
";. c #76BBF2",
":. c #1CC4F5",
">. c #1DCCF7",
",. c #15C6FA",
"<. c #1DC4FB",
"1. c #16CBFA",
"2. c #1CCBFC",
"3. c #0FD9F5",
"4. c #16D1F5",
"5. c #17D4FD",
"6. c #1CD2FC",
"7. c #16D9FF",
"8. c #1CDDFF",
"9. c #2BC4ED",
"0. c #27C8EB",
"q. c #33C7EE",
"w. c #3EC4EE",
"e. c #3BD3ED",
"r. c #24C2F4",
"t. c #2EC3F3",
"y. c #23CDF3",
"u. c #2AC9F4",
"i. c #23C3FD",
"p. c #2BC3FC",
"a. c #24CCFC",
"s. c #2ACCFC",
"d. c #34C3F4",
"f. c #3AC4F3",
"g. c #35CBF4",
"h. c #3BCBF4",
"j. c #35C2FB",
"k. c #3DC5FC",
"l. c #3CC9F9",
"z. c #24D2FC",
"x. c #28D2F8",
"c. c #36D3F6",
"v. c #42C6EF",
"b. c #4CC3ED",
"n. c #44CBEE",
"m. c #56C7E9",
"M. c #53C2EC",
"N. c #5BC6ED",
"B. c #5ECAEF",
"V. c #4AD9EE",
"C. c #44C5F3",
"Z. c #4DC2F5",
"A. c #4CCBF4",
"S. c #44C8F8",
"D. c #56C3F3",
"F. c #5BC4F4",
"G. c #53CBF5",
"H. c #5DCBF5",
"J. c #54C2FB",
"K. c #5BC5FC",
"L. c #55C8F8",
"P. c #5DCCFC",
"I. c #47D6F7",
"U. c #4CDCFB",
"Y. c #54D2F4",
"T. c #5CD2F3",
"R. c #56DAF5",
"E. c #5ADBF5",
"W. c #55D3FC",
"Q. c #5ED4FE",
"!. c #55DBF9",
"~. c #5CDCFC",
"^. c #66D7EE",
"/. c #63CCF7",
"(. c #6BC3FE",
"). c #62CDFB",
"_. c #6ACEFE",
"`. c #78CAF8",
"'. c #63D3F6",
"]. c #6BD5F5",
"[. c #6BD9F5",
"{. c #63D2FB",
"}. c #6AD4FC",
"|. c #65DCFB",
" X c #6DDCFC",
".X c #72DCF6",
"XX c #72D3FD",
"oX c #74DDFC",
"OX c #7BDFFD",
"+X c #4BE3FD",
"@X c #4EE8FC",
"#X c #58E2FC",
"$X c #5FF0FF",
"%X c #63E3F7",
"&X c #69E4F5",
"*X c #64E4FB",
"=X c #6BE1FB",
"-X c #64ECFD",
";X c #6BECFC",
":X c #75E1F6",
">X c #7AE0F6",
",X c #74E3FD",
"<X c #7BE4FD",
"1X c #75EAFC",
"2X c #7CEBFE",
"3X c #6BF4FD",
"4X c #74F4FE",
"5X c #7DF2FE",
"6X c #84BDE5",
"7X c #89CBF5",
"8X c #95CEF8",
"9X c #84D6F6",
"0X c #8FD1F0",
"qX c #9BD8F4",
"wX c #A6D5F5",
"eX c #B5DFFD",
"rX c #80E6FD",
"tX c #8BE2FD",
"yX c #83ECFE",
"uX c #88ECFD",
"iX c #97E8FA",
"pX c #84F4FE",
"aX c #8BF5FF",
"sX c #84FAFF",
"dX c #8CFBFF",
"fX c #92F5FE",
"gX c #9BF7FF",
"hX c #93FBFE",
"jX c #AAE6FC",
"kX c #B9E5FA",
"lX c #A5F4FF",
"zX c #B4F6FF",
"xX c #BDFCFF",
"cX c #C4EBF9",
"vX c #D3ECFD",
"bX c #C6F8FF",
"nX c #D3F2FF",
"mX c #D9F0FD",
"MX c #D4FCFF",
"NX c #DDFDFF",
"BX c #E3FEFF",
"VX c #ECFDFE",
"CX c #F3FFFF",
"ZX c #FCFDFD",
/* pixels */
"pX: 2 XX, 2 2 , i.g.2 , 2 N N i.N m 2 = , + N v 9 K i.N 2 B r.hXB r.H b %X4.K A b 2.P H R .X}.B = K N , m 2 2 2 oX_ A B B < |.k.",
"= aX X2 2 c M F t C 4XX   0.H H M | y c p sXh b , , c 3Xi.C.d H.Q.hX;.gX2 , ,XH 9 c , B b i.P dXpXS.H N B 2 c d.P , A aXhX, 2 P ",
"r.N p X G.i.M.{., ,X- ,.M - m.B B r.N v <.N [.dXd 0.<.N c , : P N ZX@ 2 c c N S.) aX< < p : H P A 2 2Xb i.N i.1XN sX*Xc 2 B m c ",
"B 5.P m <.gX).F.F.- x 8 - - & & i G H A c N >.b f.+., 5XK v K P g P R m = m P <X& & - & - R iXkXm.&.%.gX XH dXB B B c P n , 2 2 ",
"G n 2.+XU _.> & & F * & & & - ; dXU c 2 2 2 N t.c B 2 2 aXd mX0X< , A :.n.W.& & - & - v i.yXZXQ s.E X.p.! X.D.m 2 , , A F P , , ",
"A K.A B t W.. - % 8 . o > - & J o.2 , }.<Xi , m v K K c x p 2 bXBX2 , B P aX& - - ; P aX2 2 &.W W s.x.a.D W W ,X2X= 2 2 2 c 9 i.",
"c b 6.K N m I.X v l 2 , D OXb N N P N , 2 ( , N i.I 2.c , B D.: : N P c N i.j :X Xc.n.b B , 2 <X[.m.5XdXhX2XaXX.Z +.X.D.aXsXl &.",
"F N A 2 , P d.V.K K c 2 A K G.|.b : H F P *Xl.b | {.c 4.%XO.b F <.A B K i.K d.6.1.n c N h.O.Z 2 , 2 V 2 m 4Xc.P : 2 2 B N v 2 c ",
"m 2 2 B ( }.m A B 2 2.>.>.N b / kX: ;.G I.S.#.#.2 2 2 B N dXG c m 2X, oX2 ( dXP 2 , 2 , c V.K H H $Xi.N A b c {.z A 2 2 :.<.i.b ",
", B {.2 ,  X< D.Z A b H :.M Y., @ BX8XZX~ P 2 : a 2 2 B A I.3X~.5X<.m = aXc N 2.i.v m F i.c ] hXo c A :.<.N Q rXZXZXNX2.N m 2 u ",
", , 2 , 2 , 2 N G dXg b P.B 2 2 m 2 : c o.|.i.P N 1XS N K OX2 m 2 m P i.n.m K m m <.9 B m m 2 hX: F L F N 2X`.MX8X`. .pXhXhX1XA ",
"N c N B B F i.N 2 c w.5Xd m 2 M i.i.K K g.|., & e ~.pX,X( 2 m 2 2 , 2 w r.2.c 2 2 2 N i.N yXpXI >.N 2 x -Xc c , N N , m M J sXb ",
"m b F 2.b N m + hXhXD W z.-Xi.N < m F dXx & & & - & 7 o., , , M i.H N sXN = 2 , 2 2 = A 2XM &X' r.0 eXV >.F P i.i.H <.K N B {.}.",
"B }., 2 B A }.X.W W E p.s.E pX| c hX( % x 7 & & & - * ,.#Xi.4X|.yXA a.lX< 2 A I k fXhX%.H m ,X2 ^ CX4XG 2 2 m F : , N I *X_ = c ",
",  .2 2 B { W Y s.x.z.E E W W X.dXp V X v 9 <.1.9 P x - ; 1Xm , , 2 N a.7XZXVXjXS i.i.H c aX2 , 2 , x i.).N H c 2 , H.}.c K K c ",
"N k dXJ z.z.a.8.T W ! z.s.s.T :XB B M H A , ,X; * P ; & H.2 P B , m N K j.iX(. .2 P 2 , a B , 2 , 2 c , N r.c :X, %.: m c I G b ",
"-X6.3.y.l Y |.p hX[ wXVXMXgXN i.2.q N , 2 3 @ ZXCXCX4X0.<.F F <.v A i.c , OX2X2 m P m ( aX2 2 2 2 2 c b 7.B < <XdXpXk.K P N B 2 ",
", c B <.F 2 , X.2 , A }., : c K K i.<.B Z .X/ m : q k.B B c F q 4.C.dXhXhXd = | '.sX= X.B , 2 2 = c q N L A.: 2 F <.M pX_ Z V +.",
"2 c F i.H i.H +., 2 , , N ;XG c < , m i.] , : b i.N , <X6X^ *.: V U.E U ,X, F i.<.B aXB 2 2 + t A p.m , pXN <.<.b , : a yX}., c ",
"c P b , p <Xe b 2 2 , F N B d , A p dXu K i.6.P 2 , c m c c BX=. .E q.;XP H b N c H K y m.5XI v N 2 , <XoX' i.m.+Xr dXdXF.2 hX/.",
"!.c B 2 2 @ B P B b P N 2 , ..wX2 = : B , K c F P F i.F c , , pXo.1Xa.c , 2 2 2 2 2 M 1.H hX2 , 2 2 , B B H oX, , O.P F v }.B r.",
"c D.B 2 aX+.P i.7.F m A K H CXwXvXuXZ H i.v : 2 c c , N i.aXZ G.b 6.B A 2 2 2 B B , m L m p hX, 2 2 , , D.G 2 2 2 : B A Y.2.q A ",
"i.M K E.m i.oX2 = K i.A.' CXj 6.6.:.h c A m 2 , m 2 A c j I.3XK b 2 c , : = + pXsXc F K J m 1XB = 2 *.cX2 r.2 2 : : N dXr.P K F ",
"i.m c b b A B pXV oXV : K 2 , A b i.C.B m 2 2 + B pXsXdX, , 2 v pXc m = 2 oXC F F j pXdXfXaX] r -.=.O CXcX9 I c 2 B <.: , 2 m 2 ",
"N 4X5XL 2 , , 2 c A , N i.C : 2 , 2 b dXK F P Z.N H hX2 , 2 , 2 A S.pX5X1XH F = n P B , : , - M 6 n x 0 o.aX= H <.-Xb F F N , c ",
"K ^.b <.2.F 2 2 2 m F b 2 m o.2 , 2 2 , A.aX` A N pX2 , 2 2 2 2 c ).2 c P :  XF F B 2 , B | 1 - - = 8 * $ & hXb.T.s.&XN i.I P F ",
"hXm dXm x H i.c = c i.2 ` hX).2XyXoXy e 5X0 n B : [., , 2 2 2 2 + 2 2 v ,.7.P 2Xp : 2 < y . - - & & * M . J.E W W W Q 1X( c , n ",
"n i.m <X2 2 c P H r.K :.dXc 2 2 2 2 m i. XA v <.M {.B 2 2 2 , { V m F b n B m 2 jXy m e G.: ; - - & > {.z.W W W W s.T W W _.].J.",
"F B , B , , , : p.dX_ %.q 2 , b i.2.i.P.2 , 2 2 sX2 2 , 2 2 C i p b <.v I F m 2 2 CXZX,XsX* K x * V L.U.w.! ! a.z.p.W uXy A 2 F ",
", 2 2 dXB X 2 A n., 2 2 m I H b = A H B , A < N.r.X A = p  XdXM <.k , = , N i.M d p H M 2 }.&.` s b N i.N ] R E U p.sX, , , n F ",
"2 , 2 ,Xc 2 i.P C P.2 A 2 2 m c 2 2 m ].VXZXcX..K >.g t H N 2 P A 2 <XaXpX: c >.dXH H P c 2 + 2 2 , 2 i.2 A + aX) dXb H F N 7.H ",
"v B .Xe 2 c i.i.2 ,  X X, 2 2 m 2 2 [ jXS.$.D A B c ;Xi.A 2 N n : , 2 , B hXF C ` 2 2 m i.A pX2 2 2 L F m d yX/.2 H.O.r.F N 2 A ",
"c sXG 2 b i.N N r.hXW E 2X2 , m 2 m h c v F F P i.a.}., 2 2 K B 2 2 2 2 , ) b.{ 2 ,X, c N ;Xd , 2 B BXa a , 2 2 c G r.2 B F., 2 ",
"|.L ~.L A m m yXhXp.W Y W X.pXW W.T b : c 2 2 _.yX2.c : 2 c i.A 2 2 <X1 x r fXm 2 A | , }.: i.B VXCXK.m m 2 2 F q N 2 2 2 = o 2 ",
"F B 2 , | x 2XW W 8.T W W W p.E O.m , , , B 2 , n L : pXhXdXdXoXyXdX. n 1.5Xt 2 2 c , 2X, 2 P 6.K n 6.=X XsXK 9 A F j d D.).A +.",
"2 B 2 2 c %.= ,XQ T p.s.p.s.p.W 2X& pX2 , , B.c = I ,XT.x.s.s.s.y.aXH 8 a m b v c c , 2 D.c 0 , , , B c.sXt uXpXaX+.B F v c B I ",
"2 m 2 2 = 2 c <Xe.E Y W E E pX4X0 & & a : hX& - 1Xy.P A.W W W W MX..- & /., B 5XN v i.Z + F m , 2 2 a 2 P 2 , 2 2 2 ( c F 6.2.N ",
"i.F A , ,XA 2 q B dX}.W W VX* 5 = P & . } - - R N , x ,XW  .X.nXXX, dX2 B : }.2 Q.:XK.<.hX<.F m m yX_.<.M 2 2 2 b L F pXA x B P ",
", c i.B , m F G c , A zXVXvXXX: & ; W._ X - yXI 2 2 2XW W R 4XjX: : A < ( J.2 c K i.i.O.ZXZXxXf , , <.sXE.Z F i.M , B 2 + %.2 2 ",
"2 5Xb 5.b i.c c P N A } oX`.<X- & ( A Z <.>.M 2 2 2 , Y t.R c , 2 v b B [.N m F A m / hXm 3 {.M P P N 2 c b T.N i.c c A  .aX, , ",
"p.d.X.c N : , c , F F 2.#X, c A B 2 ` c , F 2.H m , A Q.i.2 , ,XI i.F P Y K H L , a i. X: F.B m N i.B , , , B <Xc |.F g : n x !.",
", , A < B e 2 2 2 [.J.o b H 2 2 , 2 , , B i., m E.2X= <.<.L P g.fX!.aX,X: < W.' XXe :.dXb |.}.2 : P B 2 , F.yX# 4 0 x ; x v 4Xi.",
"v = 2 A + + B 2 pXX.i.K i.N M c ,  Xc p.b m N.2 L F H N b <.b +.N M 2 , 2 H q B v P a rXs.x.U Y  Xy.( B &.& x 6 n - & & - > 2 m ",
"F P m : {  . .B 2 q m V  XB N ;XH 2 v Y .XF.B ;.B B m , i., 2Xc t.| 2 m A i.P K N : C.p.Q E p.p.T Q z.dXw P 2.6 0 & & - < }.2 , ",
"B m h.<X` 2 B F P I , , 2 B + 2 N 2.a.b c kXkXm.MXp.q p.N B B N b }.b q b m m , , N p.E W W W W E z.Q p.ZX7X& & ; 8 P H '.2 , 2 ",
"F i.R.4XF v 2.N , m , , , 2X, , , m i.H i.fXL b K c T.< , .X2 B i.F dXH H A , 2 , W U W W W W p.a.T iXiX$.nXBX- . - - X K : N F ",
"}.i 2 N U N m G i.b 2 B .X2 B N b P 5X2 m 2 2 i.2 + ` V p 2 '.' t.D.OXa N i.C N jXjXt.j.! W p.J T pXN G 2 B , B , yX& %.4Xu.;Xc ",
"m 3 c H e +.yXB : K C , kXm i.b B y m : , B 2 r. X:X< m L dXn = & - - . ,XE x o.bX2 2 c k.f..XZ.U K >.b i.N c Z X.dXU.j.c B : , ",
"m , v M , 2 _ XX2 lXNXZXNXMXBXi.P R | &.a 8 y.;Xz y }.4XM ; & & & & & % 2.xXbXnXA 2 2 , 2 2 2 Q.2.b = 2 c b p.d.<.F v , 2 2 2 2 ",
"2 P b 2 2 B.2 , a {.n & ; - & & ( b i.<.$XN 2 2 c b M v U.v ; & - & { dXD.= Y.b + 2 2 B 2 + aX<.B 2 2 2 , B aX( dXsXp , 2 , 2 2 ",
"x F , @.< 2 , v <.F XX- - - & + 2 : A P , <X+., 2 : A 1X/.+.P M * yXB F , 2 m P p yXc , aX_.@.<.: , c 2 2 9X2XT u.s.z.4X%., 2 A ",
"S.>Xb.D B B N i.b i.c 2X- & 1 5X, A i.B c 2 = .XM pXsXe m : K.Q.r.rXp.B N b b N K 2 K.& - & ; e.hXhX+.2 ZXU W s.W W Y R z.a.dXV ",
"9 P m U.J <.b B A , p.pXa yXc , A #Xm , ). X Xg.X.2 m , 2 B B H , B c F M c N c U.2Xn K P 0 q ; 6 v 9XbXR E s.E W W W O.F.2 G 2.",
"B = , m m ].2 : {.:X, b i.: 2 L A 4XpX|.W W O.<.v N , 2 H 2.P Z.l P H N 2 B , ).D.% x x c K & & & * Y.E s.6.W W W W d X.F H P N ",
"2 , c 2 c , dXrXu , B K :.H <.N 5Xp.E Q s.u.z.9.b <.P H H , =XK <.H  X, B 2 yX: m N sXVXjX-.- - &.H.W E z.W E W W aX+ n i.c m B ",
"c , : A < }.- & & x 5Xb 2 2 N f X.W W W W s.sXA aX5XpXZ :XB B 2 m b :.O dX= = P K b CXqXVXCX0X5XW W p.z.E Y W X.B B 2 H d.;XK P ",
"t P r.j <.6 * % x x - <X, H.}.R s.E W W d.=XA 2 e 2 v ,XF , c c P b f.Y.M F r.H tX= , m , B N h.hXdXg.p.s.R ,XB = OX4Xi., 2 p ( ",
"P.hXF G x - n K P . - .XH.2 = 2 pXQ E g.&XH b < 2 c _., F K <.N m A V A #.S H.|.2 2 2 : , m B Y F 2 B X.}.pXT.,XK 2.F c , 2 , | ",
"i.m = - & & & - ; 6 t 2 B , A K G bXZXx : 2 N K N d.5 9.k B d = }.= , B OXb P , 2 2 2 , A h.aXb 2 c , <Xi 2 , c j s 2 2 2 2 2 B ",
"b 2 < /.> & & & . ,XO.I b q F N , 2 zX2 + D.P H v.- & X ~.A 2 Z rX6X2 VXW.;X2Xb c m m m I.P I F p 2 2 {.< c N p.2 < A , 2 2 , F ",
"B K. X, , OX. oX, _ ).u.H N i.Y.| 2 A c 2 A.D.%.& & } hXH >.M m A P ZXd.b < A Z hX}.R !.P.}., N <.g.2Xc A i.N B m c ,X= , N I N ",
"F H F <.B 2 /., = F I B hXV dXZ P B 2 W.+Xh - - . % Z.H N V M L b 2XN , , , , + ( dXM m 2 , i.sX^.p A u.@XdXN N , , B sXU 2.<., ",
"A = , A r.dXF 2 c F B B aX= 2 A b A.|.F i.i., 1X/ dXi.A :Xa : c 9.B , 2 B 2 2 N dXt A c A K B hXB 2 2 2 c F +X8 K N F y.hXaXA |.",
", 2 2 2 s b b 7.2.: 2X{.2 2 2 2 I U ] , B N pXC P K B , : 2 aXR H B 2 2 , d 1XR B N r.I.b m F., , 2 , m N N 2 ).' F 9.l F z.!.2 "
};
